%TF.GenerationSoftware,KiCad,Pcbnew,10.0.5*%
%TF.CreationDate,NORMALIZED*%
%TF.ProjectId,board,626f6172-642e-46b6-9963-61645f706362,rev?*%
%TF.SameCoordinates,Original*%
%TF.FileFunction,AssemblyDrawing,Top*%
%FSLAX46Y46*%
G04 Gerber Fmt 4.6, Leading zero omitted, Abs format (unit mm)*
G04 Created by KiCad NORMALIZED*
%MOMM*%
%LPD*%
G01*
G04 APERTURE LIST*
%ADD10C,0.150000*%
G04 APERTURE END LIST*
D10*
X1642856Y-8359580D02*
X1595237Y-8407200D01*
X1595237Y-8407200D02*
X1452380Y-8454819D01*
X1452380Y-8454819D02*
X1357142Y-8454819D01*
X1357142Y-8454819D02*
X1214285Y-8407200D01*
X1214285Y-8407200D02*
X1119047Y-8311961D01*
X1119047Y-8311961D02*
X1071428Y-8216723D01*
X1071428Y-8216723D02*
X1023809Y-8026247D01*
X1023809Y-8026247D02*
X1023809Y-7883390D01*
X1023809Y-7883390D02*
X1071428Y-7692914D01*
X1071428Y-7692914D02*
X1119047Y-7597676D01*
X1119047Y-7597676D02*
X1214285Y-7502438D01*
X1214285Y-7502438D02*
X1357142Y-7454819D01*
X1357142Y-7454819D02*
X1452380Y-7454819D01*
X1452380Y-7454819D02*
X1595237Y-7502438D01*
X1595237Y-7502438D02*
X1642856Y-7550057D01*
X2499999Y-7788152D02*
X2499999Y-8454819D01*
X2071428Y-7788152D02*
X2071428Y-8311961D01*
X2071428Y-8311961D02*
X2119047Y-8407200D01*
X2119047Y-8407200D02*
X2214285Y-8454819D01*
X2214285Y-8454819D02*
X2357142Y-8454819D01*
X2357142Y-8454819D02*
X2452380Y-8407200D01*
X2452380Y-8407200D02*
X2499999Y-8359580D01*
X2928571Y-8407200D02*
X3023809Y-8454819D01*
X3023809Y-8454819D02*
X3214285Y-8454819D01*
X3214285Y-8454819D02*
X3309523Y-8407200D01*
X3309523Y-8407200D02*
X3357142Y-8311961D01*
X3357142Y-8311961D02*
X3357142Y-8264342D01*
X3357142Y-8264342D02*
X3309523Y-8169104D01*
X3309523Y-8169104D02*
X3214285Y-8121485D01*
X3214285Y-8121485D02*
X3071428Y-8121485D01*
X3071428Y-8121485D02*
X2976190Y-8073866D01*
X2976190Y-8073866D02*
X2928571Y-7978628D01*
X2928571Y-7978628D02*
X2928571Y-7931009D01*
X2928571Y-7931009D02*
X2976190Y-7835771D01*
X2976190Y-7835771D02*
X3071428Y-7788152D01*
X3071428Y-7788152D02*
X3214285Y-7788152D01*
X3214285Y-7788152D02*
X3309523Y-7835771D01*
X3642857Y-7788152D02*
X4023809Y-7788152D01*
X3785714Y-7454819D02*
X3785714Y-8311961D01*
X3785714Y-8311961D02*
X3833333Y-8407200D01*
X3833333Y-8407200D02*
X3928571Y-8454819D01*
X3928571Y-8454819D02*
X4023809Y-8454819D01*
X4500000Y-8454819D02*
X4404762Y-8407200D01*
X4404762Y-8407200D02*
X4357143Y-8359580D01*
X4357143Y-8359580D02*
X4309524Y-8264342D01*
X4309524Y-8264342D02*
X4309524Y-7978628D01*
X4309524Y-7978628D02*
X4357143Y-7883390D01*
X4357143Y-7883390D02*
X4404762Y-7835771D01*
X4404762Y-7835771D02*
X4500000Y-7788152D01*
X4500000Y-7788152D02*
X4642857Y-7788152D01*
X4642857Y-7788152D02*
X4738095Y-7835771D01*
X4738095Y-7835771D02*
X4785714Y-7883390D01*
X4785714Y-7883390D02*
X4833333Y-7978628D01*
X4833333Y-7978628D02*
X4833333Y-8264342D01*
X4833333Y-8264342D02*
X4785714Y-8359580D01*
X4785714Y-8359580D02*
X4738095Y-8407200D01*
X4738095Y-8407200D02*
X4642857Y-8454819D01*
X4642857Y-8454819D02*
X4500000Y-8454819D01*
X5261905Y-8454819D02*
X5261905Y-7788152D01*
X5261905Y-7883390D02*
X5309524Y-7835771D01*
X5309524Y-7835771D02*
X5404762Y-7788152D01*
X5404762Y-7788152D02*
X5547619Y-7788152D01*
X5547619Y-7788152D02*
X5642857Y-7835771D01*
X5642857Y-7835771D02*
X5690476Y-7931009D01*
X5690476Y-7931009D02*
X5690476Y-8454819D01*
X5690476Y-7931009D02*
X5738095Y-7835771D01*
X5738095Y-7835771D02*
X5833333Y-7788152D01*
X5833333Y-7788152D02*
X5976190Y-7788152D01*
X5976190Y-7788152D02*
X6071429Y-7835771D01*
X6071429Y-7835771D02*
X6119048Y-7931009D01*
X6119048Y-7931009D02*
X6119048Y-8454819D01*
X6595238Y-8454819D02*
X6595238Y-7454819D01*
X6595238Y-7454819D02*
X6976190Y-7454819D01*
X6976190Y-7454819D02*
X7071428Y-7502438D01*
X7071428Y-7502438D02*
X7119047Y-7550057D01*
X7119047Y-7550057D02*
X7166666Y-7645295D01*
X7166666Y-7645295D02*
X7166666Y-7788152D01*
X7166666Y-7788152D02*
X7119047Y-7883390D01*
X7119047Y-7883390D02*
X7071428Y-7931009D01*
X7071428Y-7931009D02*
X6976190Y-7978628D01*
X6976190Y-7978628D02*
X6595238Y-7978628D01*
X8023809Y-8454819D02*
X8023809Y-7931009D01*
X8023809Y-7931009D02*
X7976190Y-7835771D01*
X7976190Y-7835771D02*
X7880952Y-7788152D01*
X7880952Y-7788152D02*
X7690476Y-7788152D01*
X7690476Y-7788152D02*
X7595238Y-7835771D01*
X8023809Y-8407200D02*
X7928571Y-8454819D01*
X7928571Y-8454819D02*
X7690476Y-8454819D01*
X7690476Y-8454819D02*
X7595238Y-8407200D01*
X7595238Y-8407200D02*
X7547619Y-8311961D01*
X7547619Y-8311961D02*
X7547619Y-8216723D01*
X7547619Y-8216723D02*
X7595238Y-8121485D01*
X7595238Y-8121485D02*
X7690476Y-8073866D01*
X7690476Y-8073866D02*
X7928571Y-8073866D01*
X7928571Y-8073866D02*
X8023809Y-8026247D01*
X8928571Y-8454819D02*
X8928571Y-7454819D01*
X8928571Y-8407200D02*
X8833333Y-8454819D01*
X8833333Y-8454819D02*
X8642857Y-8454819D01*
X8642857Y-8454819D02*
X8547619Y-8407200D01*
X8547619Y-8407200D02*
X8500000Y-8359580D01*
X8500000Y-8359580D02*
X8452381Y-8264342D01*
X8452381Y-8264342D02*
X8452381Y-7978628D01*
X8452381Y-7978628D02*
X8500000Y-7883390D01*
X8500000Y-7883390D02*
X8547619Y-7835771D01*
X8547619Y-7835771D02*
X8642857Y-7788152D01*
X8642857Y-7788152D02*
X8833333Y-7788152D01*
X8833333Y-7788152D02*
X8928571Y-7835771D01*
M02*
