%TF.GenerationSoftware,KiCad,Pcbnew,10.0.5*%
%TF.CreationDate,NORMALIZED*%
%TF.ProjectId,board,626f6172-642e-46b6-9963-61645f706362,rev?*%
%TF.SameCoordinates,Original*%
%TF.FileFunction,AssemblyDrawing,Top*%
%FSLAX46Y46*%
G04 Gerber Fmt 4.6, Leading zero omitted, Abs format (unit mm)*
G04 Created by KiCad NORMALIZED*
%MOMM*%
%LPD*%
G01*
G04 APERTURE LIST*
%ADD10C,0.150000*%
G04 APERTURE END LIST*
D10*
X904762Y-7454819D02*
X904762Y-8264342D01*
X904762Y-8264342D02*
X952381Y-8359580D01*
X952381Y-8359580D02*
X1000000Y-8407200D01*
X1000000Y-8407200D02*
X1095238Y-8454819D01*
X1095238Y-8454819D02*
X1285714Y-8454819D01*
X1285714Y-8454819D02*
X1380952Y-8407200D01*
X1380952Y-8407200D02*
X1428571Y-8359580D01*
X1428571Y-8359580D02*
X1476190Y-8264342D01*
X1476190Y-8264342D02*
X1476190Y-7454819D01*
X1952381Y-7788152D02*
X1952381Y-8454819D01*
X1952381Y-7883390D02*
X2000000Y-7835771D01*
X2000000Y-7835771D02*
X2095238Y-7788152D01*
X2095238Y-7788152D02*
X2238095Y-7788152D01*
X2238095Y-7788152D02*
X2333333Y-7835771D01*
X2333333Y-7835771D02*
X2380952Y-7931009D01*
X2380952Y-7931009D02*
X2380952Y-8454819D01*
X2809524Y-8407200D02*
X2904762Y-8454819D01*
X2904762Y-8454819D02*
X3095238Y-8454819D01*
X3095238Y-8454819D02*
X3190476Y-8407200D01*
X3190476Y-8407200D02*
X3238095Y-8311961D01*
X3238095Y-8311961D02*
X3238095Y-8264342D01*
X3238095Y-8264342D02*
X3190476Y-8169104D01*
X3190476Y-8169104D02*
X3095238Y-8121485D01*
X3095238Y-8121485D02*
X2952381Y-8121485D01*
X2952381Y-8121485D02*
X2857143Y-8073866D01*
X2857143Y-8073866D02*
X2809524Y-7978628D01*
X2809524Y-7978628D02*
X2809524Y-7931009D01*
X2809524Y-7931009D02*
X2857143Y-7835771D01*
X2857143Y-7835771D02*
X2952381Y-7788152D01*
X2952381Y-7788152D02*
X3095238Y-7788152D01*
X3095238Y-7788152D02*
X3190476Y-7835771D01*
X3666667Y-7788152D02*
X3666667Y-8788152D01*
X3666667Y-7835771D02*
X3761905Y-7788152D01*
X3761905Y-7788152D02*
X3952381Y-7788152D01*
X3952381Y-7788152D02*
X4047619Y-7835771D01*
X4047619Y-7835771D02*
X4095238Y-7883390D01*
X4095238Y-7883390D02*
X4142857Y-7978628D01*
X4142857Y-7978628D02*
X4142857Y-8264342D01*
X4142857Y-8264342D02*
X4095238Y-8359580D01*
X4095238Y-8359580D02*
X4047619Y-8407200D01*
X4047619Y-8407200D02*
X3952381Y-8454819D01*
X3952381Y-8454819D02*
X3761905Y-8454819D01*
X3761905Y-8454819D02*
X3666667Y-8407200D01*
X4952381Y-8407200D02*
X4857143Y-8454819D01*
X4857143Y-8454819D02*
X4666667Y-8454819D01*
X4666667Y-8454819D02*
X4571429Y-8407200D01*
X4571429Y-8407200D02*
X4523810Y-8311961D01*
X4523810Y-8311961D02*
X4523810Y-7931009D01*
X4523810Y-7931009D02*
X4571429Y-7835771D01*
X4571429Y-7835771D02*
X4666667Y-7788152D01*
X4666667Y-7788152D02*
X4857143Y-7788152D01*
X4857143Y-7788152D02*
X4952381Y-7835771D01*
X4952381Y-7835771D02*
X5000000Y-7931009D01*
X5000000Y-7931009D02*
X5000000Y-8026247D01*
X5000000Y-8026247D02*
X4523810Y-8121485D01*
X5857143Y-8407200D02*
X5761905Y-8454819D01*
X5761905Y-8454819D02*
X5571429Y-8454819D01*
X5571429Y-8454819D02*
X5476191Y-8407200D01*
X5476191Y-8407200D02*
X5428572Y-8359580D01*
X5428572Y-8359580D02*
X5380953Y-8264342D01*
X5380953Y-8264342D02*
X5380953Y-7978628D01*
X5380953Y-7978628D02*
X5428572Y-7883390D01*
X5428572Y-7883390D02*
X5476191Y-7835771D01*
X5476191Y-7835771D02*
X5571429Y-7788152D01*
X5571429Y-7788152D02*
X5761905Y-7788152D01*
X5761905Y-7788152D02*
X5857143Y-7835771D01*
X6285715Y-8454819D02*
X6285715Y-7788152D01*
X6285715Y-7454819D02*
X6238096Y-7502438D01*
X6238096Y-7502438D02*
X6285715Y-7550057D01*
X6285715Y-7550057D02*
X6333334Y-7502438D01*
X6333334Y-7502438D02*
X6285715Y-7454819D01*
X6285715Y-7454819D02*
X6285715Y-7550057D01*
X6619048Y-7788152D02*
X7000000Y-7788152D01*
X6761905Y-8454819D02*
X6761905Y-7597676D01*
X6761905Y-7597676D02*
X6809524Y-7502438D01*
X6809524Y-7502438D02*
X6904762Y-7454819D01*
X6904762Y-7454819D02*
X7000000Y-7454819D01*
X7333334Y-8454819D02*
X7333334Y-7788152D01*
X7333334Y-7454819D02*
X7285715Y-7502438D01*
X7285715Y-7502438D02*
X7333334Y-7550057D01*
X7333334Y-7550057D02*
X7380953Y-7502438D01*
X7380953Y-7502438D02*
X7333334Y-7454819D01*
X7333334Y-7454819D02*
X7333334Y-7550057D01*
X8190476Y-8407200D02*
X8095238Y-8454819D01*
X8095238Y-8454819D02*
X7904762Y-8454819D01*
X7904762Y-8454819D02*
X7809524Y-8407200D01*
X7809524Y-8407200D02*
X7761905Y-8311961D01*
X7761905Y-8311961D02*
X7761905Y-7931009D01*
X7761905Y-7931009D02*
X7809524Y-7835771D01*
X7809524Y-7835771D02*
X7904762Y-7788152D01*
X7904762Y-7788152D02*
X8095238Y-7788152D01*
X8095238Y-7788152D02*
X8190476Y-7835771D01*
X8190476Y-7835771D02*
X8238095Y-7931009D01*
X8238095Y-7931009D02*
X8238095Y-8026247D01*
X8238095Y-8026247D02*
X7761905Y-8121485D01*
X9095238Y-8454819D02*
X9095238Y-7454819D01*
X9095238Y-8407200D02*
X9000000Y-8454819D01*
X9000000Y-8454819D02*
X8809524Y-8454819D01*
X8809524Y-8454819D02*
X8714286Y-8407200D01*
X8714286Y-8407200D02*
X8666667Y-8359580D01*
X8666667Y-8359580D02*
X8619048Y-8264342D01*
X8619048Y-8264342D02*
X8619048Y-7978628D01*
X8619048Y-7978628D02*
X8666667Y-7883390D01*
X8666667Y-7883390D02*
X8714286Y-7835771D01*
X8714286Y-7835771D02*
X8809524Y-7788152D01*
X8809524Y-7788152D02*
X9000000Y-7788152D01*
X9000000Y-7788152D02*
X9095238Y-7835771D01*
M02*
