%TF.GenerationSoftware,KiCad,Pcbnew,10.0.5*%
%TF.CreationDate,NORMALIZED*%
%TF.ProjectId,board,626f6172-642e-46b6-9963-61645f706362,rev?*%
%TF.SameCoordinates,Original*%
%TF.FileFunction,AssemblyDrawing,Top*%
%FSLAX46Y46*%
G04 Gerber Fmt 4.6, Leading zero omitted, Abs format (unit mm)*
G04 Created by KiCad NORMALIZED*
%MOMM*%
%LPD*%
G01*
G04 APERTURE LIST*
%ADD10C,0.150000*%
G04 APERTURE END LIST*
D10*
X904761Y-9454819D02*
X904761Y-8454819D01*
X904761Y-8454819D02*
X1285713Y-8454819D01*
X1285713Y-8454819D02*
X1380951Y-8502438D01*
X1380951Y-8502438D02*
X1428570Y-8550057D01*
X1428570Y-8550057D02*
X1476189Y-8645295D01*
X1476189Y-8645295D02*
X1476189Y-8788152D01*
X1476189Y-8788152D02*
X1428570Y-8883390D01*
X1428570Y-8883390D02*
X1380951Y-8931009D01*
X1380951Y-8931009D02*
X1285713Y-8978628D01*
X1285713Y-8978628D02*
X904761Y-8978628D01*
X2333332Y-9454819D02*
X2333332Y-8931009D01*
X2333332Y-8931009D02*
X2285713Y-8835771D01*
X2285713Y-8835771D02*
X2190475Y-8788152D01*
X2190475Y-8788152D02*
X1999999Y-8788152D01*
X1999999Y-8788152D02*
X1904761Y-8835771D01*
X2333332Y-9407200D02*
X2238094Y-9454819D01*
X2238094Y-9454819D02*
X1999999Y-9454819D01*
X1999999Y-9454819D02*
X1904761Y-9407200D01*
X1904761Y-9407200D02*
X1857142Y-9311961D01*
X1857142Y-9311961D02*
X1857142Y-9216723D01*
X1857142Y-9216723D02*
X1904761Y-9121485D01*
X1904761Y-9121485D02*
X1999999Y-9073866D01*
X1999999Y-9073866D02*
X2238094Y-9073866D01*
X2238094Y-9073866D02*
X2333332Y-9026247D01*
X3238094Y-9454819D02*
X3238094Y-8454819D01*
X3238094Y-9407200D02*
X3142856Y-9454819D01*
X3142856Y-9454819D02*
X2952380Y-9454819D01*
X2952380Y-9454819D02*
X2857142Y-9407200D01*
X2857142Y-9407200D02*
X2809523Y-9359580D01*
X2809523Y-9359580D02*
X2761904Y-9264342D01*
X2761904Y-9264342D02*
X2761904Y-8978628D01*
X2761904Y-8978628D02*
X2809523Y-8883390D01*
X2809523Y-8883390D02*
X2857142Y-8835771D01*
X2857142Y-8835771D02*
X2952380Y-8788152D01*
X2952380Y-8788152D02*
X3142856Y-8788152D01*
X3142856Y-8788152D02*
X3238094Y-8835771D01*
X4285713Y-9359580D02*
X4238094Y-9407200D01*
X4238094Y-9407200D02*
X4095237Y-9454819D01*
X4095237Y-9454819D02*
X3999999Y-9454819D01*
X3999999Y-9454819D02*
X3857142Y-9407200D01*
X3857142Y-9407200D02*
X3761904Y-9311961D01*
X3761904Y-9311961D02*
X3714285Y-9216723D01*
X3714285Y-9216723D02*
X3666666Y-9026247D01*
X3666666Y-9026247D02*
X3666666Y-8883390D01*
X3666666Y-8883390D02*
X3714285Y-8692914D01*
X3714285Y-8692914D02*
X3761904Y-8597676D01*
X3761904Y-8597676D02*
X3857142Y-8502438D01*
X3857142Y-8502438D02*
X3999999Y-8454819D01*
X3999999Y-8454819D02*
X4095237Y-8454819D01*
X4095237Y-8454819D02*
X4238094Y-8502438D01*
X4238094Y-8502438D02*
X4285713Y-8550057D01*
X4714285Y-9454819D02*
X4714285Y-8454819D01*
X5142856Y-9454819D02*
X5142856Y-8931009D01*
X5142856Y-8931009D02*
X5095237Y-8835771D01*
X5095237Y-8835771D02*
X4999999Y-8788152D01*
X4999999Y-8788152D02*
X4857142Y-8788152D01*
X4857142Y-8788152D02*
X4761904Y-8835771D01*
X4761904Y-8835771D02*
X4714285Y-8883390D01*
X5619047Y-9454819D02*
X5619047Y-8788152D01*
X5619047Y-8454819D02*
X5571428Y-8502438D01*
X5571428Y-8502438D02*
X5619047Y-8550057D01*
X5619047Y-8550057D02*
X5666666Y-8502438D01*
X5666666Y-8502438D02*
X5619047Y-8454819D01*
X5619047Y-8454819D02*
X5619047Y-8550057D01*
X6238094Y-9454819D02*
X6142856Y-9407200D01*
X6142856Y-9407200D02*
X6095237Y-9311961D01*
X6095237Y-9311961D02*
X6095237Y-8454819D01*
X7047618Y-9454819D02*
X7047618Y-8454819D01*
X7047618Y-9407200D02*
X6952380Y-9454819D01*
X6952380Y-9454819D02*
X6761904Y-9454819D01*
X6761904Y-9454819D02*
X6666666Y-9407200D01*
X6666666Y-9407200D02*
X6619047Y-9359580D01*
X6619047Y-9359580D02*
X6571428Y-9264342D01*
X6571428Y-9264342D02*
X6571428Y-8978628D01*
X6571428Y-8978628D02*
X6619047Y-8883390D01*
X6619047Y-8883390D02*
X6666666Y-8835771D01*
X6666666Y-8835771D02*
X6761904Y-8788152D01*
X6761904Y-8788152D02*
X6952380Y-8788152D01*
X6952380Y-8788152D02*
X7047618Y-8835771D01*
X7714285Y-8454819D02*
X7904761Y-8454819D01*
X7904761Y-8454819D02*
X7999999Y-8502438D01*
X7999999Y-8502438D02*
X8095237Y-8597676D01*
X8095237Y-8597676D02*
X8142856Y-8788152D01*
X8142856Y-8788152D02*
X8142856Y-9121485D01*
X8142856Y-9121485D02*
X8095237Y-9311961D01*
X8095237Y-9311961D02*
X7999999Y-9407200D01*
X7999999Y-9407200D02*
X7904761Y-9454819D01*
X7904761Y-9454819D02*
X7714285Y-9454819D01*
X7714285Y-9454819D02*
X7619047Y-9407200D01*
X7619047Y-9407200D02*
X7523809Y-9311961D01*
X7523809Y-9311961D02*
X7476190Y-9121485D01*
X7476190Y-9121485D02*
X7476190Y-8788152D01*
X7476190Y-8788152D02*
X7523809Y-8597676D01*
X7523809Y-8597676D02*
X7619047Y-8502438D01*
X7619047Y-8502438D02*
X7714285Y-8454819D01*
X8571428Y-9454819D02*
X8571428Y-8788152D01*
X8571428Y-8978628D02*
X8619047Y-8883390D01*
X8619047Y-8883390D02*
X8666666Y-8835771D01*
X8666666Y-8835771D02*
X8761904Y-8788152D01*
X8761904Y-8788152D02*
X8857142Y-8788152D01*
X9619047Y-9454819D02*
X9619047Y-8454819D01*
X9619047Y-9407200D02*
X9523809Y-9454819D01*
X9523809Y-9454819D02*
X9333333Y-9454819D01*
X9333333Y-9454819D02*
X9238095Y-9407200D01*
X9238095Y-9407200D02*
X9190476Y-9359580D01*
X9190476Y-9359580D02*
X9142857Y-9264342D01*
X9142857Y-9264342D02*
X9142857Y-8978628D01*
X9142857Y-8978628D02*
X9190476Y-8883390D01*
X9190476Y-8883390D02*
X9238095Y-8835771D01*
X9238095Y-8835771D02*
X9333333Y-8788152D01*
X9333333Y-8788152D02*
X9523809Y-8788152D01*
X9523809Y-8788152D02*
X9619047Y-8835771D01*
X10476190Y-9407200D02*
X10380952Y-9454819D01*
X10380952Y-9454819D02*
X10190476Y-9454819D01*
X10190476Y-9454819D02*
X10095238Y-9407200D01*
X10095238Y-9407200D02*
X10047619Y-9311961D01*
X10047619Y-9311961D02*
X10047619Y-8931009D01*
X10047619Y-8931009D02*
X10095238Y-8835771D01*
X10095238Y-8835771D02*
X10190476Y-8788152D01*
X10190476Y-8788152D02*
X10380952Y-8788152D01*
X10380952Y-8788152D02*
X10476190Y-8835771D01*
X10476190Y-8835771D02*
X10523809Y-8931009D01*
X10523809Y-8931009D02*
X10523809Y-9026247D01*
X10523809Y-9026247D02*
X10047619Y-9121485D01*
X10952381Y-9454819D02*
X10952381Y-8788152D01*
X10952381Y-8978628D02*
X11000000Y-8883390D01*
X11000000Y-8883390D02*
X11047619Y-8835771D01*
X11047619Y-8835771D02*
X11142857Y-8788152D01*
X11142857Y-8788152D02*
X11238095Y-8788152D01*
M02*
