%TF.GenerationSoftware,KiCad,Pcbnew,10.0.5*%
%TF.CreationDate,NORMALIZED*%
%TF.ProjectId,board,626f6172-642e-46b6-9963-61645f706362,rev?*%
%TF.SameCoordinates,Original*%
%TF.FileFunction,Legend,Top*%
%TF.FilePolarity,Positive*%
%FSLAX46Y46*%
G04 Gerber Fmt 4.6, Leading zero omitted, Abs format (unit mm)*
G04 Created by KiCad NORMALIZED*
%MOMM*%
%LPD*%
G01*
G04 APERTURE LIST*
%ADD10C,0.125000*%
G04 APERTURE END LIST*
D10*
X9095238Y-7932309D02*
X9238095Y-7979928D01*
X9238095Y-7979928D02*
X9285714Y-8027547D01*
X9285714Y-8027547D02*
X9333333Y-8122785D01*
X9333333Y-8122785D02*
X9333333Y-8265642D01*
X9333333Y-8265642D02*
X9285714Y-8360880D01*
X9285714Y-8360880D02*
X9238095Y-8408500D01*
X9238095Y-8408500D02*
X9142857Y-8456119D01*
X9142857Y-8456119D02*
X8761905Y-8456119D01*
X8761905Y-8456119D02*
X8761905Y-7456119D01*
X8761905Y-7456119D02*
X9095238Y-7456119D01*
X9095238Y-7456119D02*
X9190476Y-7503738D01*
X9190476Y-7503738D02*
X9238095Y-7551357D01*
X9238095Y-7551357D02*
X9285714Y-7646595D01*
X9285714Y-7646595D02*
X9285714Y-7741833D01*
X9285714Y-7741833D02*
X9238095Y-7837071D01*
X9238095Y-7837071D02*
X9190476Y-7884690D01*
X9190476Y-7884690D02*
X9095238Y-7932309D01*
X9095238Y-7932309D02*
X8761905Y-7932309D01*
X10333333Y-8456119D02*
X10000000Y-7979928D01*
X9761905Y-8456119D02*
X9761905Y-7456119D01*
X9761905Y-7456119D02*
X10142857Y-7456119D01*
X10142857Y-7456119D02*
X10238095Y-7503738D01*
X10238095Y-7503738D02*
X10285714Y-7551357D01*
X10285714Y-7551357D02*
X10333333Y-7646595D01*
X10333333Y-7646595D02*
X10333333Y-7789452D01*
X10333333Y-7789452D02*
X10285714Y-7884690D01*
X10285714Y-7884690D02*
X10238095Y-7932309D01*
X10238095Y-7932309D02*
X10142857Y-7979928D01*
X10142857Y-7979928D02*
X9761905Y-7979928D01*
X11285714Y-8456119D02*
X10714286Y-8456119D01*
X11000000Y-8456119D02*
X11000000Y-7456119D01*
X11000000Y-7456119D02*
X10904762Y-7598976D01*
X10904762Y-7598976D02*
X10809524Y-7694214D01*
X10809524Y-7694214D02*
X10714286Y-7741833D01*
X10485238Y-7932309D02*
X10628095Y-7979928D01*
X10628095Y-7979928D02*
X10675714Y-8027547D01*
X10675714Y-8027547D02*
X10723333Y-8122785D01*
X10723333Y-8122785D02*
X10723333Y-8265642D01*
X10723333Y-8265642D02*
X10675714Y-8360880D01*
X10675714Y-8360880D02*
X10628095Y-8408500D01*
X10628095Y-8408500D02*
X10532857Y-8456119D01*
X10532857Y-8456119D02*
X10151905Y-8456119D01*
X10151905Y-8456119D02*
X10151905Y-7456119D01*
X10151905Y-7456119D02*
X10485238Y-7456119D01*
X10485238Y-7456119D02*
X10580476Y-7503738D01*
X10580476Y-7503738D02*
X10628095Y-7551357D01*
X10628095Y-7551357D02*
X10675714Y-7646595D01*
X10675714Y-7646595D02*
X10675714Y-7741833D01*
X10675714Y-7741833D02*
X10628095Y-7837071D01*
X10628095Y-7837071D02*
X10580476Y-7884690D01*
X10580476Y-7884690D02*
X10485238Y-7932309D01*
X10485238Y-7932309D02*
X10151905Y-7932309D01*
X11723333Y-8456119D02*
X11390000Y-7979928D01*
X11151905Y-8456119D02*
X11151905Y-7456119D01*
X11151905Y-7456119D02*
X11532857Y-7456119D01*
X11532857Y-7456119D02*
X11628095Y-7503738D01*
X11628095Y-7503738D02*
X11675714Y-7551357D01*
X11675714Y-7551357D02*
X11723333Y-7646595D01*
X11723333Y-7646595D02*
X11723333Y-7789452D01*
X11723333Y-7789452D02*
X11675714Y-7884690D01*
X11675714Y-7884690D02*
X11628095Y-7932309D01*
X11628095Y-7932309D02*
X11532857Y-7979928D01*
X11532857Y-7979928D02*
X11151905Y-7979928D01*
X12104286Y-7551357D02*
X12151905Y-7503738D01*
X12151905Y-7503738D02*
X12247143Y-7456119D01*
X12247143Y-7456119D02*
X12485238Y-7456119D01*
X12485238Y-7456119D02*
X12580476Y-7503738D01*
X12580476Y-7503738D02*
X12628095Y-7551357D01*
X12628095Y-7551357D02*
X12675714Y-7646595D01*
X12675714Y-7646595D02*
X12675714Y-7741833D01*
X12675714Y-7741833D02*
X12628095Y-7884690D01*
X12628095Y-7884690D02*
X12056667Y-8456119D01*
X12056667Y-8456119D02*
X12675714Y-8456119D01*
X9047618Y-18360880D02*
X8999999Y-18408500D01*
X8999999Y-18408500D02*
X8857142Y-18456119D01*
X8857142Y-18456119D02*
X8761904Y-18456119D01*
X8761904Y-18456119D02*
X8619047Y-18408500D01*
X8619047Y-18408500D02*
X8523809Y-18313261D01*
X8523809Y-18313261D02*
X8476190Y-18218023D01*
X8476190Y-18218023D02*
X8428571Y-18027547D01*
X8428571Y-18027547D02*
X8428571Y-17884690D01*
X8428571Y-17884690D02*
X8476190Y-17694214D01*
X8476190Y-17694214D02*
X8523809Y-17598976D01*
X8523809Y-17598976D02*
X8619047Y-17503738D01*
X8619047Y-17503738D02*
X8761904Y-17456119D01*
X8761904Y-17456119D02*
X8857142Y-17456119D01*
X8857142Y-17456119D02*
X8999999Y-17503738D01*
X8999999Y-17503738D02*
X9047618Y-17551357D01*
X9333333Y-17456119D02*
X9904761Y-17456119D01*
X9619047Y-18456119D02*
X9619047Y-17456119D01*
X10714285Y-18456119D02*
X10238095Y-18456119D01*
X10238095Y-18456119D02*
X10238095Y-17456119D01*
X11571428Y-18456119D02*
X11000000Y-18456119D01*
X11285714Y-18456119D02*
X11285714Y-17456119D01*
X11285714Y-17456119D02*
X11190476Y-17598976D01*
X11190476Y-17598976D02*
X11095238Y-17694214D01*
X11095238Y-17694214D02*
X11000000Y-17741833D01*
X10647618Y-18360880D02*
X10599999Y-18408500D01*
X10599999Y-18408500D02*
X10457142Y-18456119D01*
X10457142Y-18456119D02*
X10361904Y-18456119D01*
X10361904Y-18456119D02*
X10219047Y-18408500D01*
X10219047Y-18408500D02*
X10123809Y-18313261D01*
X10123809Y-18313261D02*
X10076190Y-18218023D01*
X10076190Y-18218023D02*
X10028571Y-18027547D01*
X10028571Y-18027547D02*
X10028571Y-17884690D01*
X10028571Y-17884690D02*
X10076190Y-17694214D01*
X10076190Y-17694214D02*
X10123809Y-17598976D01*
X10123809Y-17598976D02*
X10219047Y-17503738D01*
X10219047Y-17503738D02*
X10361904Y-17456119D01*
X10361904Y-17456119D02*
X10457142Y-17456119D01*
X10457142Y-17456119D02*
X10599999Y-17503738D01*
X10599999Y-17503738D02*
X10647618Y-17551357D01*
X10933333Y-17456119D02*
X11504761Y-17456119D01*
X11219047Y-18456119D02*
X11219047Y-17456119D01*
X12314285Y-18456119D02*
X11838095Y-18456119D01*
X11838095Y-18456119D02*
X11838095Y-17456119D01*
X12600000Y-17551357D02*
X12647619Y-17503738D01*
X12647619Y-17503738D02*
X12742857Y-17456119D01*
X12742857Y-17456119D02*
X12980952Y-17456119D01*
X12980952Y-17456119D02*
X13076190Y-17503738D01*
X13076190Y-17503738D02*
X13123809Y-17551357D01*
X13123809Y-17551357D02*
X13171428Y-17646595D01*
X13171428Y-17646595D02*
X13171428Y-17741833D01*
X13171428Y-17741833D02*
X13123809Y-17884690D01*
X13123809Y-17884690D02*
X12552381Y-18456119D01*
X12552381Y-18456119D02*
X13171428Y-18456119D01*
M02*
