%TF.GenerationSoftware,KiCad,Pcbnew,10.0.5*%
%TF.CreationDate,NORMALIZED*%
%TF.ProjectId,board,626f6172-642e-46b6-9963-61645f706362,rev?*%
%TF.SameCoordinates,Original*%
%TF.FileFunction,Copper,L1,Top*%
%TF.FilePolarity,Positive*%
%FSLAX46Y46*%
G04 Gerber Fmt 4.6, Leading zero omitted, Abs format (unit mm)*
G04 Created by KiCad NORMALIZED*
%MOMM*%
%LPD*%
G01*
G04 APERTURE LIST*
%ADD10C,0.300000*%
%TA.AperFunction,NonConductor*%
%ADD11C,0.300000*%
%TD*%
%TA.AperFunction,SMDPad,CuDef*%
%ADD12R,1.600000X1.600000*%
%TD*%
G04 APERTURE END LIST*
D10*
D11*
X10000000Y-8909638D02*
X10000000Y-6909638D01*
D10*
D11*
X28619048Y-8909638D02*
X28619048Y-6909638D01*
X28619048Y-6909638D02*
X29285715Y-8338209D01*
X29285715Y-8338209D02*
X29952381Y-6909638D01*
X29952381Y-6909638D02*
X29952381Y-8909638D01*
X30904762Y-8909638D02*
X30904762Y-6909638D01*
X30904762Y-6909638D02*
X31571429Y-8338209D01*
X31571429Y-8338209D02*
X32238095Y-6909638D01*
X32238095Y-6909638D02*
X32238095Y-8909638D01*
X33190476Y-8909638D02*
X33190476Y-6909638D01*
X33190476Y-6909638D02*
X33857143Y-8338209D01*
X33857143Y-8338209D02*
X34523809Y-6909638D01*
X34523809Y-6909638D02*
X34523809Y-8909638D01*
X35476190Y-8909638D02*
X35476190Y-6909638D01*
X35476190Y-6909638D02*
X36142857Y-8338209D01*
X36142857Y-8338209D02*
X36809523Y-6909638D01*
X36809523Y-6909638D02*
X36809523Y-8909638D01*
X37761904Y-8909638D02*
X37761904Y-6909638D01*
X37761904Y-6909638D02*
X38428571Y-8338209D01*
X38428571Y-8338209D02*
X39095237Y-6909638D01*
X39095237Y-6909638D02*
X39095237Y-8909638D01*
X40047618Y-8909638D02*
X40047618Y-6909638D01*
X40047618Y-6909638D02*
X40714285Y-8338209D01*
X40714285Y-8338209D02*
X41380951Y-6909638D01*
X41380951Y-6909638D02*
X41380951Y-8909638D01*
D10*
D11*
X31131197Y-33155225D02*
X29716983Y-31741011D01*
X29716983Y-31741011D02*
X31198540Y-32279759D01*
X31198540Y-32279759D02*
X30659792Y-30798202D01*
X30659792Y-30798202D02*
X32074006Y-32212416D01*
X32747441Y-31538981D02*
X31333227Y-30124767D01*
X31333227Y-30124767D02*
X32814784Y-30663515D01*
X32814784Y-30663515D02*
X32276036Y-29181958D01*
X32276036Y-29181958D02*
X33690250Y-30596172D01*
X34363684Y-29922737D02*
X32949471Y-28508524D01*
X32949471Y-28508524D02*
X34431028Y-29047272D01*
X34431028Y-29047272D02*
X33892280Y-27565715D01*
X33892280Y-27565715D02*
X35306493Y-28979928D01*
X35979928Y-28306493D02*
X34565715Y-26892280D01*
X34565715Y-26892280D02*
X36047272Y-27431028D01*
X36047272Y-27431028D02*
X35508524Y-25949471D01*
X35508524Y-25949471D02*
X36922737Y-27363684D01*
X37596172Y-26690249D02*
X36181959Y-25276036D01*
X36181959Y-25276036D02*
X37663516Y-25814784D01*
X37663516Y-25814784D02*
X37124768Y-24333227D01*
X37124768Y-24333227D02*
X38538981Y-25747440D01*
X39212416Y-25074006D02*
X37798202Y-23659792D01*
X37798202Y-23659792D02*
X39279760Y-24198540D01*
X39279760Y-24198540D02*
X38741011Y-22716983D01*
X38741011Y-22716983D02*
X40155225Y-24131196D01*
D12*
%TO.P,,1*%
%TO.N,GND*%
X3000000Y-38000000D03*
%TD*%
M02*
