%TF.GenerationSoftware,KiCad,Pcbnew,10.0.5*%
%TF.CreationDate,NORMALIZED*%
%TF.ProjectId,board,626f6172-642e-46b6-9963-61645f706362,rev?*%
%TF.SameCoordinates,Original*%
%TF.FileFunction,Copper,L1,Top*%
%TF.FilePolarity,Positive*%
%FSLAX46Y46*%
G04 Gerber Fmt 4.6, Leading zero omitted, Abs format (unit mm)*
G04 Created by KiCad NORMALIZED*
%MOMM*%
%LPD*%
G01*
G04 APERTURE LIST*
%ADD10C,0.150000*%
%TA.AperFunction,NonConductor*%
%ADD11C,0.150000*%
%TD*%
G04 APERTURE END LIST*
D10*
D11*
X20479636Y-9869819D02*
X20384398Y-9822200D01*
X20384398Y-9822200D02*
X20336779Y-9726961D01*
X20336779Y-9726961D02*
X20336779Y-8869819D01*
X21241541Y-9822200D02*
X21146303Y-9869819D01*
X21146303Y-9869819D02*
X20955827Y-9869819D01*
X20955827Y-9869819D02*
X20860589Y-9822200D01*
X20860589Y-9822200D02*
X20812970Y-9726961D01*
X20812970Y-9726961D02*
X20812970Y-9346009D01*
X20812970Y-9346009D02*
X20860589Y-9250771D01*
X20860589Y-9250771D02*
X20955827Y-9203152D01*
X20955827Y-9203152D02*
X21146303Y-9203152D01*
X21146303Y-9203152D02*
X21241541Y-9250771D01*
X21241541Y-9250771D02*
X21289160Y-9346009D01*
X21289160Y-9346009D02*
X21289160Y-9441247D01*
X21289160Y-9441247D02*
X20812970Y-9536485D01*
X21574875Y-9203152D02*
X21955827Y-9203152D01*
X21717732Y-9869819D02*
X21717732Y-9012676D01*
X21717732Y-9012676D02*
X21765351Y-8917438D01*
X21765351Y-8917438D02*
X21860589Y-8869819D01*
X21860589Y-8869819D02*
X21955827Y-8869819D01*
X22146304Y-9203152D02*
X22527256Y-9203152D01*
X22289161Y-8869819D02*
X22289161Y-9726961D01*
X22289161Y-9726961D02*
X22336780Y-9822200D01*
X22336780Y-9822200D02*
X22432018Y-9869819D01*
X22432018Y-9869819D02*
X22527256Y-9869819D01*
X22860590Y-9488866D02*
X23622495Y-9488866D01*
X24098685Y-9869819D02*
X24098685Y-8869819D01*
X24098685Y-9250771D02*
X24193923Y-9203152D01*
X24193923Y-9203152D02*
X24384399Y-9203152D01*
X24384399Y-9203152D02*
X24479637Y-9250771D01*
X24479637Y-9250771D02*
X24527256Y-9298390D01*
X24527256Y-9298390D02*
X24574875Y-9393628D01*
X24574875Y-9393628D02*
X24574875Y-9679342D01*
X24574875Y-9679342D02*
X24527256Y-9774580D01*
X24527256Y-9774580D02*
X24479637Y-9822200D01*
X24479637Y-9822200D02*
X24384399Y-9869819D01*
X24384399Y-9869819D02*
X24193923Y-9869819D01*
X24193923Y-9869819D02*
X24098685Y-9822200D01*
X25146304Y-9869819D02*
X25051066Y-9822200D01*
X25051066Y-9822200D02*
X25003447Y-9774580D01*
X25003447Y-9774580D02*
X24955828Y-9679342D01*
X24955828Y-9679342D02*
X24955828Y-9393628D01*
X24955828Y-9393628D02*
X25003447Y-9298390D01*
X25003447Y-9298390D02*
X25051066Y-9250771D01*
X25051066Y-9250771D02*
X25146304Y-9203152D01*
X25146304Y-9203152D02*
X25289161Y-9203152D01*
X25289161Y-9203152D02*
X25384399Y-9250771D01*
X25384399Y-9250771D02*
X25432018Y-9298390D01*
X25432018Y-9298390D02*
X25479637Y-9393628D01*
X25479637Y-9393628D02*
X25479637Y-9679342D01*
X25479637Y-9679342D02*
X25432018Y-9774580D01*
X25432018Y-9774580D02*
X25384399Y-9822200D01*
X25384399Y-9822200D02*
X25289161Y-9869819D01*
X25289161Y-9869819D02*
X25146304Y-9869819D01*
X25765352Y-9203152D02*
X26146304Y-9203152D01*
X25908209Y-8869819D02*
X25908209Y-9726961D01*
X25908209Y-9726961D02*
X25955828Y-9822200D01*
X25955828Y-9822200D02*
X26051066Y-9869819D01*
X26051066Y-9869819D02*
X26146304Y-9869819D01*
X26336781Y-9203152D02*
X26717733Y-9203152D01*
X26479638Y-8869819D02*
X26479638Y-9726961D01*
X26479638Y-9726961D02*
X26527257Y-9822200D01*
X26527257Y-9822200D02*
X26622495Y-9869819D01*
X26622495Y-9869819D02*
X26717733Y-9869819D01*
X27193924Y-9869819D02*
X27098686Y-9822200D01*
X27098686Y-9822200D02*
X27051067Y-9774580D01*
X27051067Y-9774580D02*
X27003448Y-9679342D01*
X27003448Y-9679342D02*
X27003448Y-9393628D01*
X27003448Y-9393628D02*
X27051067Y-9298390D01*
X27051067Y-9298390D02*
X27098686Y-9250771D01*
X27098686Y-9250771D02*
X27193924Y-9203152D01*
X27193924Y-9203152D02*
X27336781Y-9203152D01*
X27336781Y-9203152D02*
X27432019Y-9250771D01*
X27432019Y-9250771D02*
X27479638Y-9298390D01*
X27479638Y-9298390D02*
X27527257Y-9393628D01*
X27527257Y-9393628D02*
X27527257Y-9679342D01*
X27527257Y-9679342D02*
X27479638Y-9774580D01*
X27479638Y-9774580D02*
X27432019Y-9822200D01*
X27432019Y-9822200D02*
X27336781Y-9869819D01*
X27336781Y-9869819D02*
X27193924Y-9869819D01*
X27955829Y-9869819D02*
X27955829Y-9203152D01*
X27955829Y-9298390D02*
X28003448Y-9250771D01*
X28003448Y-9250771D02*
X28098686Y-9203152D01*
X28098686Y-9203152D02*
X28241543Y-9203152D01*
X28241543Y-9203152D02*
X28336781Y-9250771D01*
X28336781Y-9250771D02*
X28384400Y-9346009D01*
X28384400Y-9346009D02*
X28384400Y-9869819D01*
X28384400Y-9346009D02*
X28432019Y-9250771D01*
X28432019Y-9250771D02*
X28527257Y-9203152D01*
X28527257Y-9203152D02*
X28670114Y-9203152D01*
X28670114Y-9203152D02*
X28765353Y-9250771D01*
X28765353Y-9250771D02*
X28812972Y-9346009D01*
X28812972Y-9346009D02*
X28812972Y-9869819D01*
D10*
D11*
X13044172Y-16039819D02*
X13044172Y-15373152D01*
X13044172Y-15563628D02*
X13091791Y-15468390D01*
X13091791Y-15468390D02*
X13139410Y-15420771D01*
X13139410Y-15420771D02*
X13234648Y-15373152D01*
X13234648Y-15373152D02*
X13329886Y-15373152D01*
X13663220Y-16039819D02*
X13663220Y-15373152D01*
X13663220Y-15039819D02*
X13615601Y-15087438D01*
X13615601Y-15087438D02*
X13663220Y-15135057D01*
X13663220Y-15135057D02*
X13710839Y-15087438D01*
X13710839Y-15087438D02*
X13663220Y-15039819D01*
X13663220Y-15039819D02*
X13663220Y-15135057D01*
X14567981Y-15373152D02*
X14567981Y-16182676D01*
X14567981Y-16182676D02*
X14520362Y-16277914D01*
X14520362Y-16277914D02*
X14472743Y-16325533D01*
X14472743Y-16325533D02*
X14377505Y-16373152D01*
X14377505Y-16373152D02*
X14234648Y-16373152D01*
X14234648Y-16373152D02*
X14139410Y-16325533D01*
X14567981Y-15992200D02*
X14472743Y-16039819D01*
X14472743Y-16039819D02*
X14282267Y-16039819D01*
X14282267Y-16039819D02*
X14187029Y-15992200D01*
X14187029Y-15992200D02*
X14139410Y-15944580D01*
X14139410Y-15944580D02*
X14091791Y-15849342D01*
X14091791Y-15849342D02*
X14091791Y-15563628D01*
X14091791Y-15563628D02*
X14139410Y-15468390D01*
X14139410Y-15468390D02*
X14187029Y-15420771D01*
X14187029Y-15420771D02*
X14282267Y-15373152D01*
X14282267Y-15373152D02*
X14472743Y-15373152D01*
X14472743Y-15373152D02*
X14567981Y-15420771D01*
X15044172Y-16039819D02*
X15044172Y-15039819D01*
X15472743Y-16039819D02*
X15472743Y-15516009D01*
X15472743Y-15516009D02*
X15425124Y-15420771D01*
X15425124Y-15420771D02*
X15329886Y-15373152D01*
X15329886Y-15373152D02*
X15187029Y-15373152D01*
X15187029Y-15373152D02*
X15091791Y-15420771D01*
X15091791Y-15420771D02*
X15044172Y-15468390D01*
X15806077Y-15373152D02*
X16187029Y-15373152D01*
X15948934Y-15039819D02*
X15948934Y-15896961D01*
X15948934Y-15896961D02*
X15996553Y-15992200D01*
X15996553Y-15992200D02*
X16091791Y-16039819D01*
X16091791Y-16039819D02*
X16187029Y-16039819D01*
X16520363Y-15658866D02*
X17282268Y-15658866D01*
X17615601Y-15373152D02*
X17996553Y-15373152D01*
X17758458Y-15039819D02*
X17758458Y-15896961D01*
X17758458Y-15896961D02*
X17806077Y-15992200D01*
X17806077Y-15992200D02*
X17901315Y-16039819D01*
X17901315Y-16039819D02*
X17996553Y-16039819D01*
X18472744Y-16039819D02*
X18377506Y-15992200D01*
X18377506Y-15992200D02*
X18329887Y-15944580D01*
X18329887Y-15944580D02*
X18282268Y-15849342D01*
X18282268Y-15849342D02*
X18282268Y-15563628D01*
X18282268Y-15563628D02*
X18329887Y-15468390D01*
X18329887Y-15468390D02*
X18377506Y-15420771D01*
X18377506Y-15420771D02*
X18472744Y-15373152D01*
X18472744Y-15373152D02*
X18615601Y-15373152D01*
X18615601Y-15373152D02*
X18710839Y-15420771D01*
X18710839Y-15420771D02*
X18758458Y-15468390D01*
X18758458Y-15468390D02*
X18806077Y-15563628D01*
X18806077Y-15563628D02*
X18806077Y-15849342D01*
X18806077Y-15849342D02*
X18758458Y-15944580D01*
X18758458Y-15944580D02*
X18710839Y-15992200D01*
X18710839Y-15992200D02*
X18615601Y-16039819D01*
X18615601Y-16039819D02*
X18472744Y-16039819D01*
X19234649Y-15373152D02*
X19234649Y-16373152D01*
X19234649Y-15420771D02*
X19329887Y-15373152D01*
X19329887Y-15373152D02*
X19520363Y-15373152D01*
X19520363Y-15373152D02*
X19615601Y-15420771D01*
X19615601Y-15420771D02*
X19663220Y-15468390D01*
X19663220Y-15468390D02*
X19710839Y-15563628D01*
X19710839Y-15563628D02*
X19710839Y-15849342D01*
X19710839Y-15849342D02*
X19663220Y-15944580D01*
X19663220Y-15944580D02*
X19615601Y-15992200D01*
X19615601Y-15992200D02*
X19520363Y-16039819D01*
X19520363Y-16039819D02*
X19329887Y-16039819D01*
X19329887Y-16039819D02*
X19234649Y-15992200D01*
D10*
D11*
X17452380Y-20407200D02*
X17357142Y-20454819D01*
X17357142Y-20454819D02*
X17166666Y-20454819D01*
X17166666Y-20454819D02*
X17071428Y-20407200D01*
X17071428Y-20407200D02*
X17023809Y-20359580D01*
X17023809Y-20359580D02*
X16976190Y-20264342D01*
X16976190Y-20264342D02*
X16976190Y-19978628D01*
X16976190Y-19978628D02*
X17023809Y-19883390D01*
X17023809Y-19883390D02*
X17071428Y-19835771D01*
X17071428Y-19835771D02*
X17166666Y-19788152D01*
X17166666Y-19788152D02*
X17357142Y-19788152D01*
X17357142Y-19788152D02*
X17452380Y-19835771D01*
X18261904Y-20407200D02*
X18166666Y-20454819D01*
X18166666Y-20454819D02*
X17976190Y-20454819D01*
X17976190Y-20454819D02*
X17880952Y-20407200D01*
X17880952Y-20407200D02*
X17833333Y-20311961D01*
X17833333Y-20311961D02*
X17833333Y-19931009D01*
X17833333Y-19931009D02*
X17880952Y-19835771D01*
X17880952Y-19835771D02*
X17976190Y-19788152D01*
X17976190Y-19788152D02*
X18166666Y-19788152D01*
X18166666Y-19788152D02*
X18261904Y-19835771D01*
X18261904Y-19835771D02*
X18309523Y-19931009D01*
X18309523Y-19931009D02*
X18309523Y-20026247D01*
X18309523Y-20026247D02*
X17833333Y-20121485D01*
X18738095Y-19788152D02*
X18738095Y-20454819D01*
X18738095Y-19883390D02*
X18785714Y-19835771D01*
X18785714Y-19835771D02*
X18880952Y-19788152D01*
X18880952Y-19788152D02*
X19023809Y-19788152D01*
X19023809Y-19788152D02*
X19119047Y-19835771D01*
X19119047Y-19835771D02*
X19166666Y-19931009D01*
X19166666Y-19931009D02*
X19166666Y-20454819D01*
X19500000Y-19788152D02*
X19880952Y-19788152D01*
X19642857Y-19454819D02*
X19642857Y-20311961D01*
X19642857Y-20311961D02*
X19690476Y-20407200D01*
X19690476Y-20407200D02*
X19785714Y-20454819D01*
X19785714Y-20454819D02*
X19880952Y-20454819D01*
X20595238Y-20407200D02*
X20500000Y-20454819D01*
X20500000Y-20454819D02*
X20309524Y-20454819D01*
X20309524Y-20454819D02*
X20214286Y-20407200D01*
X20214286Y-20407200D02*
X20166667Y-20311961D01*
X20166667Y-20311961D02*
X20166667Y-19931009D01*
X20166667Y-19931009D02*
X20214286Y-19835771D01*
X20214286Y-19835771D02*
X20309524Y-19788152D01*
X20309524Y-19788152D02*
X20500000Y-19788152D01*
X20500000Y-19788152D02*
X20595238Y-19835771D01*
X20595238Y-19835771D02*
X20642857Y-19931009D01*
X20642857Y-19931009D02*
X20642857Y-20026247D01*
X20642857Y-20026247D02*
X20166667Y-20121485D01*
X21071429Y-20454819D02*
X21071429Y-19788152D01*
X21071429Y-19978628D02*
X21119048Y-19883390D01*
X21119048Y-19883390D02*
X21166667Y-19835771D01*
X21166667Y-19835771D02*
X21261905Y-19788152D01*
X21261905Y-19788152D02*
X21357143Y-19788152D01*
X22071429Y-20407200D02*
X21976191Y-20454819D01*
X21976191Y-20454819D02*
X21785715Y-20454819D01*
X21785715Y-20454819D02*
X21690477Y-20407200D01*
X21690477Y-20407200D02*
X21642858Y-20311961D01*
X21642858Y-20311961D02*
X21642858Y-19931009D01*
X21642858Y-19931009D02*
X21690477Y-19835771D01*
X21690477Y-19835771D02*
X21785715Y-19788152D01*
X21785715Y-19788152D02*
X21976191Y-19788152D01*
X21976191Y-19788152D02*
X22071429Y-19835771D01*
X22071429Y-19835771D02*
X22119048Y-19931009D01*
X22119048Y-19931009D02*
X22119048Y-20026247D01*
X22119048Y-20026247D02*
X21642858Y-20121485D01*
X22976191Y-20454819D02*
X22976191Y-19454819D01*
X22976191Y-20407200D02*
X22880953Y-20454819D01*
X22880953Y-20454819D02*
X22690477Y-20454819D01*
X22690477Y-20454819D02*
X22595239Y-20407200D01*
X22595239Y-20407200D02*
X22547620Y-20359580D01*
X22547620Y-20359580D02*
X22500001Y-20264342D01*
X22500001Y-20264342D02*
X22500001Y-19978628D01*
X22500001Y-19978628D02*
X22547620Y-19883390D01*
X22547620Y-19883390D02*
X22595239Y-19835771D01*
X22595239Y-19835771D02*
X22690477Y-19788152D01*
X22690477Y-19788152D02*
X22880953Y-19788152D01*
X22880953Y-19788152D02*
X22976191Y-19835771D01*
M02*
