%TF.GenerationSoftware,KiCad,Pcbnew,10.0.5*%
%TF.CreationDate,NORMALIZED*%
%TF.ProjectId,board,626f6172-642e-46b6-9963-61645f706362,rev?*%
%TF.SameCoordinates,Original*%
%TF.FileFunction,Legend,Top*%
%TF.FilePolarity,Positive*%
%FSLAX46Y46*%
G04 Gerber Fmt 4.6, Leading zero omitted, Abs format (unit mm)*
G04 Created by KiCad NORMALIZED*
%MOMM*%
%LPD*%
G01*
G04 APERTURE LIST*
%ADD10C,0.150000*%
%ADD11C,0.050000*%
%ADD12C,0.020000*%
%ADD13C,0.080000*%
G04 APERTURE END LIST*
D10*
X31523809Y-5454819D02*
X31523809Y-4454819D01*
X31523809Y-4454819D02*
X31761904Y-4454819D01*
X31761904Y-4454819D02*
X31904761Y-4502438D01*
X31904761Y-4502438D02*
X31999999Y-4597676D01*
X31999999Y-4597676D02*
X32047618Y-4692914D01*
X32047618Y-4692914D02*
X32095237Y-4883390D01*
X32095237Y-4883390D02*
X32095237Y-5026247D01*
X32095237Y-5026247D02*
X32047618Y-5216723D01*
X32047618Y-5216723D02*
X31999999Y-5311961D01*
X31999999Y-5311961D02*
X31904761Y-5407200D01*
X31904761Y-5407200D02*
X31761904Y-5454819D01*
X31761904Y-5454819D02*
X31523809Y-5454819D01*
X33095237Y-5454819D02*
X32761904Y-4978628D01*
X32523809Y-5454819D02*
X32523809Y-4454819D01*
X32523809Y-4454819D02*
X32904761Y-4454819D01*
X32904761Y-4454819D02*
X32999999Y-4502438D01*
X32999999Y-4502438D02*
X33047618Y-4550057D01*
X33047618Y-4550057D02*
X33095237Y-4645295D01*
X33095237Y-4645295D02*
X33095237Y-4788152D01*
X33095237Y-4788152D02*
X33047618Y-4883390D01*
X33047618Y-4883390D02*
X32999999Y-4931009D01*
X32999999Y-4931009D02*
X32904761Y-4978628D01*
X32904761Y-4978628D02*
X32523809Y-4978628D01*
X34095237Y-5359580D02*
X34047618Y-5407200D01*
X34047618Y-5407200D02*
X33904761Y-5454819D01*
X33904761Y-5454819D02*
X33809523Y-5454819D01*
X33809523Y-5454819D02*
X33666666Y-5407200D01*
X33666666Y-5407200D02*
X33571428Y-5311961D01*
X33571428Y-5311961D02*
X33523809Y-5216723D01*
X33523809Y-5216723D02*
X33476190Y-5026247D01*
X33476190Y-5026247D02*
X33476190Y-4883390D01*
X33476190Y-4883390D02*
X33523809Y-4692914D01*
X33523809Y-4692914D02*
X33571428Y-4597676D01*
X33571428Y-4597676D02*
X33666666Y-4502438D01*
X33666666Y-4502438D02*
X33809523Y-4454819D01*
X33809523Y-4454819D02*
X33904761Y-4454819D01*
X33904761Y-4454819D02*
X34047618Y-4502438D01*
X34047618Y-4502438D02*
X34095237Y-4550057D01*
X34285714Y-5550057D02*
X35047618Y-5550057D01*
X35285714Y-4931009D02*
X35619047Y-4931009D01*
X35761904Y-5454819D02*
X35285714Y-5454819D01*
X35285714Y-5454819D02*
X35285714Y-4454819D01*
X35285714Y-4454819D02*
X35761904Y-4454819D01*
X36761904Y-5454819D02*
X36428571Y-4978628D01*
X36190476Y-5454819D02*
X36190476Y-4454819D01*
X36190476Y-4454819D02*
X36571428Y-4454819D01*
X36571428Y-4454819D02*
X36666666Y-4502438D01*
X36666666Y-4502438D02*
X36714285Y-4550057D01*
X36714285Y-4550057D02*
X36761904Y-4645295D01*
X36761904Y-4645295D02*
X36761904Y-4788152D01*
X36761904Y-4788152D02*
X36714285Y-4883390D01*
X36714285Y-4883390D02*
X36666666Y-4931009D01*
X36666666Y-4931009D02*
X36571428Y-4978628D01*
X36571428Y-4978628D02*
X36190476Y-4978628D01*
X37761904Y-5454819D02*
X37428571Y-4978628D01*
X37190476Y-5454819D02*
X37190476Y-4454819D01*
X37190476Y-4454819D02*
X37571428Y-4454819D01*
X37571428Y-4454819D02*
X37666666Y-4502438D01*
X37666666Y-4502438D02*
X37714285Y-4550057D01*
X37714285Y-4550057D02*
X37761904Y-4645295D01*
X37761904Y-4645295D02*
X37761904Y-4788152D01*
X37761904Y-4788152D02*
X37714285Y-4883390D01*
X37714285Y-4883390D02*
X37666666Y-4931009D01*
X37666666Y-4931009D02*
X37571428Y-4978628D01*
X37571428Y-4978628D02*
X37190476Y-4978628D01*
X38380952Y-4454819D02*
X38571428Y-4454819D01*
X38571428Y-4454819D02*
X38666666Y-4502438D01*
X38666666Y-4502438D02*
X38761904Y-4597676D01*
X38761904Y-4597676D02*
X38809523Y-4788152D01*
X38809523Y-4788152D02*
X38809523Y-5121485D01*
X38809523Y-5121485D02*
X38761904Y-5311961D01*
X38761904Y-5311961D02*
X38666666Y-5407200D01*
X38666666Y-5407200D02*
X38571428Y-5454819D01*
X38571428Y-5454819D02*
X38380952Y-5454819D01*
X38380952Y-5454819D02*
X38285714Y-5407200D01*
X38285714Y-5407200D02*
X38190476Y-5311961D01*
X38190476Y-5311961D02*
X38142857Y-5121485D01*
X38142857Y-5121485D02*
X38142857Y-4788152D01*
X38142857Y-4788152D02*
X38190476Y-4597676D01*
X38190476Y-4597676D02*
X38285714Y-4502438D01*
X38285714Y-4502438D02*
X38380952Y-4454819D01*
X39809523Y-5454819D02*
X39476190Y-4978628D01*
X39238095Y-5454819D02*
X39238095Y-4454819D01*
X39238095Y-4454819D02*
X39619047Y-4454819D01*
X39619047Y-4454819D02*
X39714285Y-4502438D01*
X39714285Y-4502438D02*
X39761904Y-4550057D01*
X39761904Y-4550057D02*
X39809523Y-4645295D01*
X39809523Y-4645295D02*
X39809523Y-4788152D01*
X39809523Y-4788152D02*
X39761904Y-4883390D01*
X39761904Y-4883390D02*
X39714285Y-4931009D01*
X39714285Y-4931009D02*
X39619047Y-4978628D01*
X39619047Y-4978628D02*
X39238095Y-4978628D01*
X40857143Y-4454819D02*
X41428571Y-4454819D01*
X41142857Y-5454819D02*
X41142857Y-4454819D01*
X41952381Y-4454819D02*
X42142857Y-4454819D01*
X42142857Y-4454819D02*
X42238095Y-4502438D01*
X42238095Y-4502438D02*
X42333333Y-4597676D01*
X42333333Y-4597676D02*
X42380952Y-4788152D01*
X42380952Y-4788152D02*
X42380952Y-5121485D01*
X42380952Y-5121485D02*
X42333333Y-5311961D01*
X42333333Y-5311961D02*
X42238095Y-5407200D01*
X42238095Y-5407200D02*
X42142857Y-5454819D01*
X42142857Y-5454819D02*
X41952381Y-5454819D01*
X41952381Y-5454819D02*
X41857143Y-5407200D01*
X41857143Y-5407200D02*
X41761905Y-5311961D01*
X41761905Y-5311961D02*
X41714286Y-5121485D01*
X41714286Y-5121485D02*
X41714286Y-4788152D01*
X41714286Y-4788152D02*
X41761905Y-4597676D01*
X41761905Y-4597676D02*
X41857143Y-4502438D01*
X41857143Y-4502438D02*
X41952381Y-4454819D01*
X42809524Y-5454819D02*
X42809524Y-4454819D01*
X43380952Y-5454819D02*
X42952381Y-4883390D01*
X43380952Y-4454819D02*
X42809524Y-5026247D01*
X43809524Y-4931009D02*
X44142857Y-4931009D01*
X44285714Y-5454819D02*
X43809524Y-5454819D01*
X43809524Y-5454819D02*
X43809524Y-4454819D01*
X43809524Y-4454819D02*
X44285714Y-4454819D01*
X44714286Y-5454819D02*
X44714286Y-4454819D01*
X44714286Y-4454819D02*
X45285714Y-5454819D01*
X45285714Y-5454819D02*
X45285714Y-4454819D01*
X45523810Y-5550057D02*
X46285714Y-5550057D01*
X46523810Y-4931009D02*
X46857143Y-4931009D01*
X47000000Y-5454819D02*
X46523810Y-5454819D01*
X46523810Y-5454819D02*
X46523810Y-4454819D01*
X46523810Y-4454819D02*
X47000000Y-4454819D01*
X48000000Y-5454819D02*
X47666667Y-4978628D01*
X47428572Y-5454819D02*
X47428572Y-4454819D01*
X47428572Y-4454819D02*
X47809524Y-4454819D01*
X47809524Y-4454819D02*
X47904762Y-4502438D01*
X47904762Y-4502438D02*
X47952381Y-4550057D01*
X47952381Y-4550057D02*
X48000000Y-4645295D01*
X48000000Y-4645295D02*
X48000000Y-4788152D01*
X48000000Y-4788152D02*
X47952381Y-4883390D01*
X47952381Y-4883390D02*
X47904762Y-4931009D01*
X47904762Y-4931009D02*
X47809524Y-4978628D01*
X47809524Y-4978628D02*
X47428572Y-4978628D01*
X49000000Y-5454819D02*
X48666667Y-4978628D01*
X48428572Y-5454819D02*
X48428572Y-4454819D01*
X48428572Y-4454819D02*
X48809524Y-4454819D01*
X48809524Y-4454819D02*
X48904762Y-4502438D01*
X48904762Y-4502438D02*
X48952381Y-4550057D01*
X48952381Y-4550057D02*
X49000000Y-4645295D01*
X49000000Y-4645295D02*
X49000000Y-4788152D01*
X49000000Y-4788152D02*
X48952381Y-4883390D01*
X48952381Y-4883390D02*
X48904762Y-4931009D01*
X48904762Y-4931009D02*
X48809524Y-4978628D01*
X48809524Y-4978628D02*
X48428572Y-4978628D01*
X49619048Y-4454819D02*
X49809524Y-4454819D01*
X49809524Y-4454819D02*
X49904762Y-4502438D01*
X49904762Y-4502438D02*
X50000000Y-4597676D01*
X50000000Y-4597676D02*
X50047619Y-4788152D01*
X50047619Y-4788152D02*
X50047619Y-5121485D01*
X50047619Y-5121485D02*
X50000000Y-5311961D01*
X50000000Y-5311961D02*
X49904762Y-5407200D01*
X49904762Y-5407200D02*
X49809524Y-5454819D01*
X49809524Y-5454819D02*
X49619048Y-5454819D01*
X49619048Y-5454819D02*
X49523810Y-5407200D01*
X49523810Y-5407200D02*
X49428572Y-5311961D01*
X49428572Y-5311961D02*
X49380953Y-5121485D01*
X49380953Y-5121485D02*
X49380953Y-4788152D01*
X49380953Y-4788152D02*
X49428572Y-4597676D01*
X49428572Y-4597676D02*
X49523810Y-4502438D01*
X49523810Y-4502438D02*
X49619048Y-4454819D01*
X51047619Y-5454819D02*
X50714286Y-4978628D01*
X50476191Y-5454819D02*
X50476191Y-4454819D01*
X50476191Y-4454819D02*
X50857143Y-4454819D01*
X50857143Y-4454819D02*
X50952381Y-4502438D01*
X50952381Y-4502438D02*
X51000000Y-4550057D01*
X51000000Y-4550057D02*
X51047619Y-4645295D01*
X51047619Y-4645295D02*
X51047619Y-4788152D01*
X51047619Y-4788152D02*
X51000000Y-4883390D01*
X51000000Y-4883390D02*
X50952381Y-4931009D01*
X50952381Y-4931009D02*
X50857143Y-4978628D01*
X50857143Y-4978628D02*
X50476191Y-4978628D01*
X51238096Y-5550057D02*
X52000000Y-5550057D01*
X52809524Y-5359580D02*
X52761905Y-5407200D01*
X52761905Y-5407200D02*
X52619048Y-5454819D01*
X52619048Y-5454819D02*
X52523810Y-5454819D01*
X52523810Y-5454819D02*
X52380953Y-5407200D01*
X52380953Y-5407200D02*
X52285715Y-5311961D01*
X52285715Y-5311961D02*
X52238096Y-5216723D01*
X52238096Y-5216723D02*
X52190477Y-5026247D01*
X52190477Y-5026247D02*
X52190477Y-4883390D01*
X52190477Y-4883390D02*
X52238096Y-4692914D01*
X52238096Y-4692914D02*
X52285715Y-4597676D01*
X52285715Y-4597676D02*
X52380953Y-4502438D01*
X52380953Y-4502438D02*
X52523810Y-4454819D01*
X52523810Y-4454819D02*
X52619048Y-4454819D01*
X52619048Y-4454819D02*
X52761905Y-4502438D01*
X52761905Y-4502438D02*
X52809524Y-4550057D01*
X53428572Y-4454819D02*
X53619048Y-4454819D01*
X53619048Y-4454819D02*
X53714286Y-4502438D01*
X53714286Y-4502438D02*
X53809524Y-4597676D01*
X53809524Y-4597676D02*
X53857143Y-4788152D01*
X53857143Y-4788152D02*
X53857143Y-5121485D01*
X53857143Y-5121485D02*
X53809524Y-5311961D01*
X53809524Y-5311961D02*
X53714286Y-5407200D01*
X53714286Y-5407200D02*
X53619048Y-5454819D01*
X53619048Y-5454819D02*
X53428572Y-5454819D01*
X53428572Y-5454819D02*
X53333334Y-5407200D01*
X53333334Y-5407200D02*
X53238096Y-5311961D01*
X53238096Y-5311961D02*
X53190477Y-5121485D01*
X53190477Y-5121485D02*
X53190477Y-4788152D01*
X53190477Y-4788152D02*
X53238096Y-4597676D01*
X53238096Y-4597676D02*
X53333334Y-4502438D01*
X53333334Y-4502438D02*
X53428572Y-4454819D01*
X54285715Y-5454819D02*
X54285715Y-4454819D01*
X54285715Y-4454819D02*
X54857143Y-5454819D01*
X54857143Y-5454819D02*
X54857143Y-4454819D01*
X55190477Y-4454819D02*
X55761905Y-4454819D01*
X55476191Y-5454819D02*
X55476191Y-4454819D01*
X56666667Y-5454819D02*
X56333334Y-4978628D01*
X56095239Y-5454819D02*
X56095239Y-4454819D01*
X56095239Y-4454819D02*
X56476191Y-4454819D01*
X56476191Y-4454819D02*
X56571429Y-4502438D01*
X56571429Y-4502438D02*
X56619048Y-4550057D01*
X56619048Y-4550057D02*
X56666667Y-4645295D01*
X56666667Y-4645295D02*
X56666667Y-4788152D01*
X56666667Y-4788152D02*
X56619048Y-4883390D01*
X56619048Y-4883390D02*
X56571429Y-4931009D01*
X56571429Y-4931009D02*
X56476191Y-4978628D01*
X56476191Y-4978628D02*
X56095239Y-4978628D01*
X57285715Y-4454819D02*
X57476191Y-4454819D01*
X57476191Y-4454819D02*
X57571429Y-4502438D01*
X57571429Y-4502438D02*
X57666667Y-4597676D01*
X57666667Y-4597676D02*
X57714286Y-4788152D01*
X57714286Y-4788152D02*
X57714286Y-5121485D01*
X57714286Y-5121485D02*
X57666667Y-5311961D01*
X57666667Y-5311961D02*
X57571429Y-5407200D01*
X57571429Y-5407200D02*
X57476191Y-5454819D01*
X57476191Y-5454819D02*
X57285715Y-5454819D01*
X57285715Y-5454819D02*
X57190477Y-5407200D01*
X57190477Y-5407200D02*
X57095239Y-5311961D01*
X57095239Y-5311961D02*
X57047620Y-5121485D01*
X57047620Y-5121485D02*
X57047620Y-4788152D01*
X57047620Y-4788152D02*
X57095239Y-4597676D01*
X57095239Y-4597676D02*
X57190477Y-4502438D01*
X57190477Y-4502438D02*
X57285715Y-4454819D01*
X58619048Y-5454819D02*
X58142858Y-5454819D01*
X58142858Y-5454819D02*
X58142858Y-4454819D01*
X29904762Y-12454819D02*
X29904762Y-11454819D01*
X29904762Y-11454819D02*
X30142857Y-11454819D01*
X30142857Y-11454819D02*
X30285714Y-11502438D01*
X30285714Y-11502438D02*
X30380952Y-11597676D01*
X30380952Y-11597676D02*
X30428571Y-11692914D01*
X30428571Y-11692914D02*
X30476190Y-11883390D01*
X30476190Y-11883390D02*
X30476190Y-12026247D01*
X30476190Y-12026247D02*
X30428571Y-12216723D01*
X30428571Y-12216723D02*
X30380952Y-12311961D01*
X30380952Y-12311961D02*
X30285714Y-12407200D01*
X30285714Y-12407200D02*
X30142857Y-12454819D01*
X30142857Y-12454819D02*
X29904762Y-12454819D01*
X31476190Y-12454819D02*
X31142857Y-11978628D01*
X30904762Y-12454819D02*
X30904762Y-11454819D01*
X30904762Y-11454819D02*
X31285714Y-11454819D01*
X31285714Y-11454819D02*
X31380952Y-11502438D01*
X31380952Y-11502438D02*
X31428571Y-11550057D01*
X31428571Y-11550057D02*
X31476190Y-11645295D01*
X31476190Y-11645295D02*
X31476190Y-11788152D01*
X31476190Y-11788152D02*
X31428571Y-11883390D01*
X31428571Y-11883390D02*
X31380952Y-11931009D01*
X31380952Y-11931009D02*
X31285714Y-11978628D01*
X31285714Y-11978628D02*
X30904762Y-11978628D01*
X32476190Y-12359580D02*
X32428571Y-12407200D01*
X32428571Y-12407200D02*
X32285714Y-12454819D01*
X32285714Y-12454819D02*
X32190476Y-12454819D01*
X32190476Y-12454819D02*
X32047619Y-12407200D01*
X32047619Y-12407200D02*
X31952381Y-12311961D01*
X31952381Y-12311961D02*
X31904762Y-12216723D01*
X31904762Y-12216723D02*
X31857143Y-12026247D01*
X31857143Y-12026247D02*
X31857143Y-11883390D01*
X31857143Y-11883390D02*
X31904762Y-11692914D01*
X31904762Y-11692914D02*
X31952381Y-11597676D01*
X31952381Y-11597676D02*
X32047619Y-11502438D01*
X32047619Y-11502438D02*
X32190476Y-11454819D01*
X32190476Y-11454819D02*
X32285714Y-11454819D01*
X32285714Y-11454819D02*
X32428571Y-11502438D01*
X32428571Y-11502438D02*
X32476190Y-11550057D01*
X32666667Y-12550057D02*
X33428571Y-12550057D01*
X33571429Y-11454819D02*
X33809524Y-12454819D01*
X33809524Y-12454819D02*
X34000000Y-11740533D01*
X34000000Y-11740533D02*
X34190476Y-12454819D01*
X34190476Y-12454819D02*
X34428572Y-11454819D01*
X34761905Y-12169104D02*
X35238095Y-12169104D01*
X34666667Y-12454819D02*
X35000000Y-11454819D01*
X35000000Y-11454819D02*
X35333333Y-12454819D01*
X36238095Y-12454819D02*
X35904762Y-11978628D01*
X35666667Y-12454819D02*
X35666667Y-11454819D01*
X35666667Y-11454819D02*
X36047619Y-11454819D01*
X36047619Y-11454819D02*
X36142857Y-11502438D01*
X36142857Y-11502438D02*
X36190476Y-11550057D01*
X36190476Y-11550057D02*
X36238095Y-11645295D01*
X36238095Y-11645295D02*
X36238095Y-11788152D01*
X36238095Y-11788152D02*
X36190476Y-11883390D01*
X36190476Y-11883390D02*
X36142857Y-11931009D01*
X36142857Y-11931009D02*
X36047619Y-11978628D01*
X36047619Y-11978628D02*
X35666667Y-11978628D01*
X36666667Y-12454819D02*
X36666667Y-11454819D01*
X36666667Y-11454819D02*
X37238095Y-12454819D01*
X37238095Y-12454819D02*
X37238095Y-11454819D01*
X37714286Y-12454819D02*
X37714286Y-11454819D01*
X38190476Y-12454819D02*
X38190476Y-11454819D01*
X38190476Y-11454819D02*
X38761904Y-12454819D01*
X38761904Y-12454819D02*
X38761904Y-11454819D01*
X39761904Y-11502438D02*
X39666666Y-11454819D01*
X39666666Y-11454819D02*
X39523809Y-11454819D01*
X39523809Y-11454819D02*
X39380952Y-11502438D01*
X39380952Y-11502438D02*
X39285714Y-11597676D01*
X39285714Y-11597676D02*
X39238095Y-11692914D01*
X39238095Y-11692914D02*
X39190476Y-11883390D01*
X39190476Y-11883390D02*
X39190476Y-12026247D01*
X39190476Y-12026247D02*
X39238095Y-12216723D01*
X39238095Y-12216723D02*
X39285714Y-12311961D01*
X39285714Y-12311961D02*
X39380952Y-12407200D01*
X39380952Y-12407200D02*
X39523809Y-12454819D01*
X39523809Y-12454819D02*
X39619047Y-12454819D01*
X39619047Y-12454819D02*
X39761904Y-12407200D01*
X39761904Y-12407200D02*
X39809523Y-12359580D01*
X39809523Y-12359580D02*
X39809523Y-12026247D01*
X39809523Y-12026247D02*
X39619047Y-12026247D01*
X40857143Y-11454819D02*
X41428571Y-11454819D01*
X41142857Y-12454819D02*
X41142857Y-11454819D01*
X41952381Y-11454819D02*
X42142857Y-11454819D01*
X42142857Y-11454819D02*
X42238095Y-11502438D01*
X42238095Y-11502438D02*
X42333333Y-11597676D01*
X42333333Y-11597676D02*
X42380952Y-11788152D01*
X42380952Y-11788152D02*
X42380952Y-12121485D01*
X42380952Y-12121485D02*
X42333333Y-12311961D01*
X42333333Y-12311961D02*
X42238095Y-12407200D01*
X42238095Y-12407200D02*
X42142857Y-12454819D01*
X42142857Y-12454819D02*
X41952381Y-12454819D01*
X41952381Y-12454819D02*
X41857143Y-12407200D01*
X41857143Y-12407200D02*
X41761905Y-12311961D01*
X41761905Y-12311961D02*
X41714286Y-12121485D01*
X41714286Y-12121485D02*
X41714286Y-11788152D01*
X41714286Y-11788152D02*
X41761905Y-11597676D01*
X41761905Y-11597676D02*
X41857143Y-11502438D01*
X41857143Y-11502438D02*
X41952381Y-11454819D01*
X42809524Y-12454819D02*
X42809524Y-11454819D01*
X43380952Y-12454819D02*
X42952381Y-11883390D01*
X43380952Y-11454819D02*
X42809524Y-12026247D01*
X43809524Y-11931009D02*
X44142857Y-11931009D01*
X44285714Y-12454819D02*
X43809524Y-12454819D01*
X43809524Y-12454819D02*
X43809524Y-11454819D01*
X43809524Y-11454819D02*
X44285714Y-11454819D01*
X44714286Y-12454819D02*
X44714286Y-11454819D01*
X44714286Y-11454819D02*
X45285714Y-12454819D01*
X45285714Y-12454819D02*
X45285714Y-11454819D01*
X45523810Y-12550057D02*
X46285714Y-12550057D01*
X46428572Y-11454819D02*
X46666667Y-12454819D01*
X46666667Y-12454819D02*
X46857143Y-11740533D01*
X46857143Y-11740533D02*
X47047619Y-12454819D01*
X47047619Y-12454819D02*
X47285715Y-11454819D01*
X47619048Y-12169104D02*
X48095238Y-12169104D01*
X47523810Y-12454819D02*
X47857143Y-11454819D01*
X47857143Y-11454819D02*
X48190476Y-12454819D01*
X49095238Y-12454819D02*
X48761905Y-11978628D01*
X48523810Y-12454819D02*
X48523810Y-11454819D01*
X48523810Y-11454819D02*
X48904762Y-11454819D01*
X48904762Y-11454819D02*
X49000000Y-11502438D01*
X49000000Y-11502438D02*
X49047619Y-11550057D01*
X49047619Y-11550057D02*
X49095238Y-11645295D01*
X49095238Y-11645295D02*
X49095238Y-11788152D01*
X49095238Y-11788152D02*
X49047619Y-11883390D01*
X49047619Y-11883390D02*
X49000000Y-11931009D01*
X49000000Y-11931009D02*
X48904762Y-11978628D01*
X48904762Y-11978628D02*
X48523810Y-11978628D01*
X49523810Y-12454819D02*
X49523810Y-11454819D01*
X49523810Y-11454819D02*
X50095238Y-12454819D01*
X50095238Y-12454819D02*
X50095238Y-11454819D01*
X50571429Y-12454819D02*
X50571429Y-11454819D01*
X51047619Y-12454819D02*
X51047619Y-11454819D01*
X51047619Y-11454819D02*
X51619047Y-12454819D01*
X51619047Y-12454819D02*
X51619047Y-11454819D01*
X52619047Y-11502438D02*
X52523809Y-11454819D01*
X52523809Y-11454819D02*
X52380952Y-11454819D01*
X52380952Y-11454819D02*
X52238095Y-11502438D01*
X52238095Y-11502438D02*
X52142857Y-11597676D01*
X52142857Y-11597676D02*
X52095238Y-11692914D01*
X52095238Y-11692914D02*
X52047619Y-11883390D01*
X52047619Y-11883390D02*
X52047619Y-12026247D01*
X52047619Y-12026247D02*
X52095238Y-12216723D01*
X52095238Y-12216723D02*
X52142857Y-12311961D01*
X52142857Y-12311961D02*
X52238095Y-12407200D01*
X52238095Y-12407200D02*
X52380952Y-12454819D01*
X52380952Y-12454819D02*
X52476190Y-12454819D01*
X52476190Y-12454819D02*
X52619047Y-12407200D01*
X52619047Y-12407200D02*
X52666666Y-12359580D01*
X52666666Y-12359580D02*
X52666666Y-12026247D01*
X52666666Y-12026247D02*
X52476190Y-12026247D01*
X52857143Y-12550057D02*
X53619047Y-12550057D01*
X54428571Y-12359580D02*
X54380952Y-12407200D01*
X54380952Y-12407200D02*
X54238095Y-12454819D01*
X54238095Y-12454819D02*
X54142857Y-12454819D01*
X54142857Y-12454819D02*
X54000000Y-12407200D01*
X54000000Y-12407200D02*
X53904762Y-12311961D01*
X53904762Y-12311961D02*
X53857143Y-12216723D01*
X53857143Y-12216723D02*
X53809524Y-12026247D01*
X53809524Y-12026247D02*
X53809524Y-11883390D01*
X53809524Y-11883390D02*
X53857143Y-11692914D01*
X53857143Y-11692914D02*
X53904762Y-11597676D01*
X53904762Y-11597676D02*
X54000000Y-11502438D01*
X54000000Y-11502438D02*
X54142857Y-11454819D01*
X54142857Y-11454819D02*
X54238095Y-11454819D01*
X54238095Y-11454819D02*
X54380952Y-11502438D01*
X54380952Y-11502438D02*
X54428571Y-11550057D01*
X55047619Y-11454819D02*
X55238095Y-11454819D01*
X55238095Y-11454819D02*
X55333333Y-11502438D01*
X55333333Y-11502438D02*
X55428571Y-11597676D01*
X55428571Y-11597676D02*
X55476190Y-11788152D01*
X55476190Y-11788152D02*
X55476190Y-12121485D01*
X55476190Y-12121485D02*
X55428571Y-12311961D01*
X55428571Y-12311961D02*
X55333333Y-12407200D01*
X55333333Y-12407200D02*
X55238095Y-12454819D01*
X55238095Y-12454819D02*
X55047619Y-12454819D01*
X55047619Y-12454819D02*
X54952381Y-12407200D01*
X54952381Y-12407200D02*
X54857143Y-12311961D01*
X54857143Y-12311961D02*
X54809524Y-12121485D01*
X54809524Y-12121485D02*
X54809524Y-11788152D01*
X54809524Y-11788152D02*
X54857143Y-11597676D01*
X54857143Y-11597676D02*
X54952381Y-11502438D01*
X54952381Y-11502438D02*
X55047619Y-11454819D01*
X55904762Y-12454819D02*
X55904762Y-11454819D01*
X55904762Y-11454819D02*
X56476190Y-12454819D01*
X56476190Y-12454819D02*
X56476190Y-11454819D01*
X56809524Y-11454819D02*
X57380952Y-11454819D01*
X57095238Y-12454819D02*
X57095238Y-11454819D01*
X58285714Y-12454819D02*
X57952381Y-11978628D01*
X57714286Y-12454819D02*
X57714286Y-11454819D01*
X57714286Y-11454819D02*
X58095238Y-11454819D01*
X58095238Y-11454819D02*
X58190476Y-11502438D01*
X58190476Y-11502438D02*
X58238095Y-11550057D01*
X58238095Y-11550057D02*
X58285714Y-11645295D01*
X58285714Y-11645295D02*
X58285714Y-11788152D01*
X58285714Y-11788152D02*
X58238095Y-11883390D01*
X58238095Y-11883390D02*
X58190476Y-11931009D01*
X58190476Y-11931009D02*
X58095238Y-11978628D01*
X58095238Y-11978628D02*
X57714286Y-11978628D01*
X58904762Y-11454819D02*
X59095238Y-11454819D01*
X59095238Y-11454819D02*
X59190476Y-11502438D01*
X59190476Y-11502438D02*
X59285714Y-11597676D01*
X59285714Y-11597676D02*
X59333333Y-11788152D01*
X59333333Y-11788152D02*
X59333333Y-12121485D01*
X59333333Y-12121485D02*
X59285714Y-12311961D01*
X59285714Y-12311961D02*
X59190476Y-12407200D01*
X59190476Y-12407200D02*
X59095238Y-12454819D01*
X59095238Y-12454819D02*
X58904762Y-12454819D01*
X58904762Y-12454819D02*
X58809524Y-12407200D01*
X58809524Y-12407200D02*
X58714286Y-12311961D01*
X58714286Y-12311961D02*
X58666667Y-12121485D01*
X58666667Y-12121485D02*
X58666667Y-11788152D01*
X58666667Y-11788152D02*
X58714286Y-11597676D01*
X58714286Y-11597676D02*
X58809524Y-11502438D01*
X58809524Y-11502438D02*
X58904762Y-11454819D01*
X60238095Y-12454819D02*
X59761905Y-12454819D01*
X59761905Y-12454819D02*
X59761905Y-11454819D01*
X8261905Y-19407200D02*
X8404762Y-19454819D01*
X8404762Y-19454819D02*
X8642857Y-19454819D01*
X8642857Y-19454819D02*
X8738095Y-19407200D01*
X8738095Y-19407200D02*
X8785714Y-19359580D01*
X8785714Y-19359580D02*
X8833333Y-19264342D01*
X8833333Y-19264342D02*
X8833333Y-19169104D01*
X8833333Y-19169104D02*
X8785714Y-19073866D01*
X8785714Y-19073866D02*
X8738095Y-19026247D01*
X8738095Y-19026247D02*
X8642857Y-18978628D01*
X8642857Y-18978628D02*
X8452381Y-18931009D01*
X8452381Y-18931009D02*
X8357143Y-18883390D01*
X8357143Y-18883390D02*
X8309524Y-18835771D01*
X8309524Y-18835771D02*
X8261905Y-18740533D01*
X8261905Y-18740533D02*
X8261905Y-18645295D01*
X8261905Y-18645295D02*
X8309524Y-18550057D01*
X8309524Y-18550057D02*
X8357143Y-18502438D01*
X8357143Y-18502438D02*
X8452381Y-18454819D01*
X8452381Y-18454819D02*
X8690476Y-18454819D01*
X8690476Y-18454819D02*
X8833333Y-18502438D01*
X8547619Y-18311961D02*
X8547619Y-19597676D01*
X9547619Y-19835771D02*
X9500000Y-19835771D01*
X9500000Y-19835771D02*
X9404762Y-19788152D01*
X9404762Y-19788152D02*
X9357143Y-19692914D01*
X9357143Y-19692914D02*
X9357143Y-19216723D01*
X9357143Y-19216723D02*
X9309524Y-19121485D01*
X9309524Y-19121485D02*
X9214286Y-19073866D01*
X9214286Y-19073866D02*
X9309524Y-19026247D01*
X9309524Y-19026247D02*
X9357143Y-18931009D01*
X9357143Y-18931009D02*
X9357143Y-18454819D01*
X9357143Y-18454819D02*
X9404762Y-18359580D01*
X9404762Y-18359580D02*
X9500000Y-18311961D01*
X9500000Y-18311961D02*
X9547619Y-18311961D01*
X9928572Y-19454819D02*
X9928572Y-18454819D01*
X9928572Y-18454819D02*
X10261905Y-19169104D01*
X10261905Y-19169104D02*
X10595238Y-18454819D01*
X10595238Y-18454819D02*
X10595238Y-19454819D01*
X11071429Y-19454819D02*
X11071429Y-18454819D01*
X11500000Y-19407200D02*
X11642857Y-19454819D01*
X11642857Y-19454819D02*
X11880952Y-19454819D01*
X11880952Y-19454819D02*
X11976190Y-19407200D01*
X11976190Y-19407200D02*
X12023809Y-19359580D01*
X12023809Y-19359580D02*
X12071428Y-19264342D01*
X12071428Y-19264342D02*
X12071428Y-19169104D01*
X12071428Y-19169104D02*
X12023809Y-19073866D01*
X12023809Y-19073866D02*
X11976190Y-19026247D01*
X11976190Y-19026247D02*
X11880952Y-18978628D01*
X11880952Y-18978628D02*
X11690476Y-18931009D01*
X11690476Y-18931009D02*
X11595238Y-18883390D01*
X11595238Y-18883390D02*
X11547619Y-18835771D01*
X11547619Y-18835771D02*
X11500000Y-18740533D01*
X11500000Y-18740533D02*
X11500000Y-18645295D01*
X11500000Y-18645295D02*
X11547619Y-18550057D01*
X11547619Y-18550057D02*
X11595238Y-18502438D01*
X11595238Y-18502438D02*
X11690476Y-18454819D01*
X11690476Y-18454819D02*
X11928571Y-18454819D01*
X11928571Y-18454819D02*
X12071428Y-18502438D01*
X12452381Y-19407200D02*
X12595238Y-19454819D01*
X12595238Y-19454819D02*
X12833333Y-19454819D01*
X12833333Y-19454819D02*
X12928571Y-19407200D01*
X12928571Y-19407200D02*
X12976190Y-19359580D01*
X12976190Y-19359580D02*
X13023809Y-19264342D01*
X13023809Y-19264342D02*
X13023809Y-19169104D01*
X13023809Y-19169104D02*
X12976190Y-19073866D01*
X12976190Y-19073866D02*
X12928571Y-19026247D01*
X12928571Y-19026247D02*
X12833333Y-18978628D01*
X12833333Y-18978628D02*
X12642857Y-18931009D01*
X12642857Y-18931009D02*
X12547619Y-18883390D01*
X12547619Y-18883390D02*
X12500000Y-18835771D01*
X12500000Y-18835771D02*
X12452381Y-18740533D01*
X12452381Y-18740533D02*
X12452381Y-18645295D01*
X12452381Y-18645295D02*
X12500000Y-18550057D01*
X12500000Y-18550057D02*
X12547619Y-18502438D01*
X12547619Y-18502438D02*
X12642857Y-18454819D01*
X12642857Y-18454819D02*
X12880952Y-18454819D01*
X12880952Y-18454819D02*
X13023809Y-18502438D01*
X13452381Y-19454819D02*
X13452381Y-18454819D01*
X13928571Y-19454819D02*
X13928571Y-18454819D01*
X13928571Y-18454819D02*
X14499999Y-19454819D01*
X14499999Y-19454819D02*
X14499999Y-18454819D01*
X15499999Y-18502438D02*
X15404761Y-18454819D01*
X15404761Y-18454819D02*
X15261904Y-18454819D01*
X15261904Y-18454819D02*
X15119047Y-18502438D01*
X15119047Y-18502438D02*
X15023809Y-18597676D01*
X15023809Y-18597676D02*
X14976190Y-18692914D01*
X14976190Y-18692914D02*
X14928571Y-18883390D01*
X14928571Y-18883390D02*
X14928571Y-19026247D01*
X14928571Y-19026247D02*
X14976190Y-19216723D01*
X14976190Y-19216723D02*
X15023809Y-19311961D01*
X15023809Y-19311961D02*
X15119047Y-19407200D01*
X15119047Y-19407200D02*
X15261904Y-19454819D01*
X15261904Y-19454819D02*
X15357142Y-19454819D01*
X15357142Y-19454819D02*
X15499999Y-19407200D01*
X15499999Y-19407200D02*
X15547618Y-19359580D01*
X15547618Y-19359580D02*
X15547618Y-19026247D01*
X15547618Y-19026247D02*
X15357142Y-19026247D01*
X15738095Y-19550057D02*
X16499999Y-19550057D01*
X16595238Y-18454819D02*
X17166666Y-18454819D01*
X16880952Y-19454819D02*
X16880952Y-18454819D01*
X17690476Y-18454819D02*
X17880952Y-18454819D01*
X17880952Y-18454819D02*
X17976190Y-18502438D01*
X17976190Y-18502438D02*
X18071428Y-18597676D01*
X18071428Y-18597676D02*
X18119047Y-18788152D01*
X18119047Y-18788152D02*
X18119047Y-19121485D01*
X18119047Y-19121485D02*
X18071428Y-19311961D01*
X18071428Y-19311961D02*
X17976190Y-19407200D01*
X17976190Y-19407200D02*
X17880952Y-19454819D01*
X17880952Y-19454819D02*
X17690476Y-19454819D01*
X17690476Y-19454819D02*
X17595238Y-19407200D01*
X17595238Y-19407200D02*
X17500000Y-19311961D01*
X17500000Y-19311961D02*
X17452381Y-19121485D01*
X17452381Y-19121485D02*
X17452381Y-18788152D01*
X17452381Y-18788152D02*
X17500000Y-18597676D01*
X17500000Y-18597676D02*
X17595238Y-18502438D01*
X17595238Y-18502438D02*
X17690476Y-18454819D01*
X18547619Y-19454819D02*
X18547619Y-18454819D01*
X19119047Y-19454819D02*
X18690476Y-18883390D01*
X19119047Y-18454819D02*
X18547619Y-19026247D01*
X19547619Y-18931009D02*
X19880952Y-18931009D01*
X20023809Y-19454819D02*
X19547619Y-19454819D01*
X19547619Y-19454819D02*
X19547619Y-18454819D01*
X19547619Y-18454819D02*
X20023809Y-18454819D01*
X20452381Y-19454819D02*
X20452381Y-18454819D01*
X20452381Y-18454819D02*
X21023809Y-19454819D01*
X21023809Y-19454819D02*
X21023809Y-18454819D01*
X21404762Y-19835771D02*
X21452381Y-19835771D01*
X21452381Y-19835771D02*
X21547619Y-19788152D01*
X21547619Y-19788152D02*
X21595238Y-19692914D01*
X21595238Y-19692914D02*
X21595238Y-19216723D01*
X21595238Y-19216723D02*
X21642857Y-19121485D01*
X21642857Y-19121485D02*
X21738095Y-19073866D01*
X21738095Y-19073866D02*
X21642857Y-19026247D01*
X21642857Y-19026247D02*
X21595238Y-18931009D01*
X21595238Y-18931009D02*
X21595238Y-18454819D01*
X21595238Y-18454819D02*
X21547619Y-18359580D01*
X21547619Y-18359580D02*
X21452381Y-18311961D01*
X21452381Y-18311961D02*
X21404762Y-18311961D01*
X42119047Y-19454819D02*
X42119047Y-18788152D01*
X42119047Y-18978628D02*
X42166666Y-18883390D01*
X42166666Y-18883390D02*
X42214285Y-18835771D01*
X42214285Y-18835771D02*
X42309523Y-18788152D01*
X42309523Y-18788152D02*
X42404761Y-18788152D01*
X43119047Y-19407200D02*
X43023809Y-19454819D01*
X43023809Y-19454819D02*
X42833333Y-19454819D01*
X42833333Y-19454819D02*
X42738095Y-19407200D01*
X42738095Y-19407200D02*
X42690476Y-19311961D01*
X42690476Y-19311961D02*
X42690476Y-18931009D01*
X42690476Y-18931009D02*
X42738095Y-18835771D01*
X42738095Y-18835771D02*
X42833333Y-18788152D01*
X42833333Y-18788152D02*
X43023809Y-18788152D01*
X43023809Y-18788152D02*
X43119047Y-18835771D01*
X43119047Y-18835771D02*
X43166666Y-18931009D01*
X43166666Y-18931009D02*
X43166666Y-19026247D01*
X43166666Y-19026247D02*
X42690476Y-19121485D01*
X43547619Y-19407200D02*
X43642857Y-19454819D01*
X43642857Y-19454819D02*
X43833333Y-19454819D01*
X43833333Y-19454819D02*
X43928571Y-19407200D01*
X43928571Y-19407200D02*
X43976190Y-19311961D01*
X43976190Y-19311961D02*
X43976190Y-19264342D01*
X43976190Y-19264342D02*
X43928571Y-19169104D01*
X43928571Y-19169104D02*
X43833333Y-19121485D01*
X43833333Y-19121485D02*
X43690476Y-19121485D01*
X43690476Y-19121485D02*
X43595238Y-19073866D01*
X43595238Y-19073866D02*
X43547619Y-18978628D01*
X43547619Y-18978628D02*
X43547619Y-18931009D01*
X43547619Y-18931009D02*
X43595238Y-18835771D01*
X43595238Y-18835771D02*
X43690476Y-18788152D01*
X43690476Y-18788152D02*
X43833333Y-18788152D01*
X43833333Y-18788152D02*
X43928571Y-18835771D01*
X44547619Y-19454819D02*
X44452381Y-19407200D01*
X44452381Y-19407200D02*
X44404762Y-19359580D01*
X44404762Y-19359580D02*
X44357143Y-19264342D01*
X44357143Y-19264342D02*
X44357143Y-18978628D01*
X44357143Y-18978628D02*
X44404762Y-18883390D01*
X44404762Y-18883390D02*
X44452381Y-18835771D01*
X44452381Y-18835771D02*
X44547619Y-18788152D01*
X44547619Y-18788152D02*
X44690476Y-18788152D01*
X44690476Y-18788152D02*
X44785714Y-18835771D01*
X44785714Y-18835771D02*
X44833333Y-18883390D01*
X44833333Y-18883390D02*
X44880952Y-18978628D01*
X44880952Y-18978628D02*
X44880952Y-19264342D01*
X44880952Y-19264342D02*
X44833333Y-19359580D01*
X44833333Y-19359580D02*
X44785714Y-19407200D01*
X44785714Y-19407200D02*
X44690476Y-19454819D01*
X44690476Y-19454819D02*
X44547619Y-19454819D01*
X45452381Y-19454819D02*
X45357143Y-19407200D01*
X45357143Y-19407200D02*
X45309524Y-19311961D01*
X45309524Y-19311961D02*
X45309524Y-18454819D01*
X45738096Y-18788152D02*
X45976191Y-19454819D01*
X45976191Y-19454819D02*
X46214286Y-18788152D01*
X46976191Y-19407200D02*
X46880953Y-19454819D01*
X46880953Y-19454819D02*
X46690477Y-19454819D01*
X46690477Y-19454819D02*
X46595239Y-19407200D01*
X46595239Y-19407200D02*
X46547620Y-19311961D01*
X46547620Y-19311961D02*
X46547620Y-18931009D01*
X46547620Y-18931009D02*
X46595239Y-18835771D01*
X46595239Y-18835771D02*
X46690477Y-18788152D01*
X46690477Y-18788152D02*
X46880953Y-18788152D01*
X46880953Y-18788152D02*
X46976191Y-18835771D01*
X46976191Y-18835771D02*
X47023810Y-18931009D01*
X47023810Y-18931009D02*
X47023810Y-19026247D01*
X47023810Y-19026247D02*
X46547620Y-19121485D01*
X47880953Y-19454819D02*
X47880953Y-18454819D01*
X47880953Y-19407200D02*
X47785715Y-19454819D01*
X47785715Y-19454819D02*
X47595239Y-19454819D01*
X47595239Y-19454819D02*
X47500001Y-19407200D01*
X47500001Y-19407200D02*
X47452382Y-19359580D01*
X47452382Y-19359580D02*
X47404763Y-19264342D01*
X47404763Y-19264342D02*
X47404763Y-18978628D01*
X47404763Y-18978628D02*
X47452382Y-18883390D01*
X47452382Y-18883390D02*
X47500001Y-18835771D01*
X47500001Y-18835771D02*
X47595239Y-18788152D01*
X47595239Y-18788152D02*
X47785715Y-18788152D01*
X47785715Y-18788152D02*
X47880953Y-18835771D01*
X22142856Y-26454819D02*
X22142856Y-25454819D01*
X22142856Y-25454819D02*
X21809523Y-26169104D01*
X21809523Y-26169104D02*
X21476190Y-25454819D01*
X21476190Y-25454819D02*
X21476190Y-26454819D01*
X20999999Y-26454819D02*
X20999999Y-25454819D01*
X19952381Y-26454819D02*
X20285714Y-25978628D01*
X20523809Y-26454819D02*
X20523809Y-25454819D01*
X20523809Y-25454819D02*
X20142857Y-25454819D01*
X20142857Y-25454819D02*
X20047619Y-25502438D01*
X20047619Y-25502438D02*
X20000000Y-25550057D01*
X20000000Y-25550057D02*
X19952381Y-25645295D01*
X19952381Y-25645295D02*
X19952381Y-25788152D01*
X19952381Y-25788152D02*
X20000000Y-25883390D01*
X20000000Y-25883390D02*
X20047619Y-25931009D01*
X20047619Y-25931009D02*
X20142857Y-25978628D01*
X20142857Y-25978628D02*
X20523809Y-25978628D01*
X18952381Y-26454819D02*
X19285714Y-25978628D01*
X19523809Y-26454819D02*
X19523809Y-25454819D01*
X19523809Y-25454819D02*
X19142857Y-25454819D01*
X19142857Y-25454819D02*
X19047619Y-25502438D01*
X19047619Y-25502438D02*
X19000000Y-25550057D01*
X19000000Y-25550057D02*
X18952381Y-25645295D01*
X18952381Y-25645295D02*
X18952381Y-25788152D01*
X18952381Y-25788152D02*
X19000000Y-25883390D01*
X19000000Y-25883390D02*
X19047619Y-25931009D01*
X19047619Y-25931009D02*
X19142857Y-25978628D01*
X19142857Y-25978628D02*
X19523809Y-25978628D01*
X18333333Y-25454819D02*
X18142857Y-25454819D01*
X18142857Y-25454819D02*
X18047619Y-25502438D01*
X18047619Y-25502438D02*
X17952381Y-25597676D01*
X17952381Y-25597676D02*
X17904762Y-25788152D01*
X17904762Y-25788152D02*
X17904762Y-26121485D01*
X17904762Y-26121485D02*
X17952381Y-26311961D01*
X17952381Y-26311961D02*
X18047619Y-26407200D01*
X18047619Y-26407200D02*
X18142857Y-26454819D01*
X18142857Y-26454819D02*
X18333333Y-26454819D01*
X18333333Y-26454819D02*
X18428571Y-26407200D01*
X18428571Y-26407200D02*
X18523809Y-26311961D01*
X18523809Y-26311961D02*
X18571428Y-26121485D01*
X18571428Y-26121485D02*
X18571428Y-25788152D01*
X18571428Y-25788152D02*
X18523809Y-25597676D01*
X18523809Y-25597676D02*
X18428571Y-25502438D01*
X18428571Y-25502438D02*
X18333333Y-25454819D01*
X16904762Y-26454819D02*
X17238095Y-25978628D01*
X17476190Y-26454819D02*
X17476190Y-25454819D01*
X17476190Y-25454819D02*
X17095238Y-25454819D01*
X17095238Y-25454819D02*
X17000000Y-25502438D01*
X17000000Y-25502438D02*
X16952381Y-25550057D01*
X16952381Y-25550057D02*
X16904762Y-25645295D01*
X16904762Y-25645295D02*
X16904762Y-25788152D01*
X16904762Y-25788152D02*
X16952381Y-25883390D01*
X16952381Y-25883390D02*
X17000000Y-25931009D01*
X17000000Y-25931009D02*
X17095238Y-25978628D01*
X17095238Y-25978628D02*
X17476190Y-25978628D01*
X16714286Y-26550057D02*
X15952381Y-26550057D01*
X15380952Y-25931009D02*
X15714285Y-25931009D01*
X15714285Y-26454819D02*
X15714285Y-25454819D01*
X15714285Y-25454819D02*
X15238095Y-25454819D01*
X14285714Y-26454819D02*
X14619047Y-25978628D01*
X14857142Y-26454819D02*
X14857142Y-25454819D01*
X14857142Y-25454819D02*
X14476190Y-25454819D01*
X14476190Y-25454819D02*
X14380952Y-25502438D01*
X14380952Y-25502438D02*
X14333333Y-25550057D01*
X14333333Y-25550057D02*
X14285714Y-25645295D01*
X14285714Y-25645295D02*
X14285714Y-25788152D01*
X14285714Y-25788152D02*
X14333333Y-25883390D01*
X14333333Y-25883390D02*
X14380952Y-25931009D01*
X14380952Y-25931009D02*
X14476190Y-25978628D01*
X14476190Y-25978628D02*
X14857142Y-25978628D01*
X13666666Y-25454819D02*
X13476190Y-25454819D01*
X13476190Y-25454819D02*
X13380952Y-25502438D01*
X13380952Y-25502438D02*
X13285714Y-25597676D01*
X13285714Y-25597676D02*
X13238095Y-25788152D01*
X13238095Y-25788152D02*
X13238095Y-26121485D01*
X13238095Y-26121485D02*
X13285714Y-26311961D01*
X13285714Y-26311961D02*
X13380952Y-26407200D01*
X13380952Y-26407200D02*
X13476190Y-26454819D01*
X13476190Y-26454819D02*
X13666666Y-26454819D01*
X13666666Y-26454819D02*
X13761904Y-26407200D01*
X13761904Y-26407200D02*
X13857142Y-26311961D01*
X13857142Y-26311961D02*
X13904761Y-26121485D01*
X13904761Y-26121485D02*
X13904761Y-25788152D01*
X13904761Y-25788152D02*
X13857142Y-25597676D01*
X13857142Y-25597676D02*
X13761904Y-25502438D01*
X13761904Y-25502438D02*
X13666666Y-25454819D01*
X12809523Y-26454819D02*
X12809523Y-25454819D01*
X12809523Y-25454819D02*
X12238095Y-26454819D01*
X12238095Y-26454819D02*
X12238095Y-25454819D01*
X11904761Y-25454819D02*
X11333333Y-25454819D01*
X11619047Y-26454819D02*
X11619047Y-25454819D01*
X11238095Y-26550057D02*
X10476190Y-26550057D01*
X9904761Y-25931009D02*
X9761904Y-25978628D01*
X9761904Y-25978628D02*
X9714285Y-26026247D01*
X9714285Y-26026247D02*
X9666666Y-26121485D01*
X9666666Y-26121485D02*
X9666666Y-26264342D01*
X9666666Y-26264342D02*
X9714285Y-26359580D01*
X9714285Y-26359580D02*
X9761904Y-26407200D01*
X9761904Y-26407200D02*
X9857142Y-26454819D01*
X9857142Y-26454819D02*
X10238094Y-26454819D01*
X10238094Y-26454819D02*
X10238094Y-25454819D01*
X10238094Y-25454819D02*
X9904761Y-25454819D01*
X9904761Y-25454819D02*
X9809523Y-25502438D01*
X9809523Y-25502438D02*
X9761904Y-25550057D01*
X9761904Y-25550057D02*
X9714285Y-25645295D01*
X9714285Y-25645295D02*
X9714285Y-25740533D01*
X9714285Y-25740533D02*
X9761904Y-25835771D01*
X9761904Y-25835771D02*
X9809523Y-25883390D01*
X9809523Y-25883390D02*
X9904761Y-25931009D01*
X9904761Y-25931009D02*
X10238094Y-25931009D01*
X9285713Y-26169104D02*
X8809523Y-26169104D01*
X9380951Y-26454819D02*
X9047618Y-25454819D01*
X9047618Y-25454819D02*
X8714285Y-26454819D01*
X8380951Y-26454819D02*
X8380951Y-25454819D01*
X8380951Y-25454819D02*
X8142856Y-25454819D01*
X8142856Y-25454819D02*
X7999999Y-25502438D01*
X7999999Y-25502438D02*
X7904761Y-25597676D01*
X7904761Y-25597676D02*
X7857142Y-25692914D01*
X7857142Y-25692914D02*
X7809523Y-25883390D01*
X7809523Y-25883390D02*
X7809523Y-26026247D01*
X7809523Y-26026247D02*
X7857142Y-26216723D01*
X7857142Y-26216723D02*
X7904761Y-26311961D01*
X7904761Y-26311961D02*
X7999999Y-26407200D01*
X7999999Y-26407200D02*
X8142856Y-26454819D01*
X8142856Y-26454819D02*
X8380951Y-26454819D01*
X37238095Y-26454819D02*
X37238095Y-25454819D01*
X37238095Y-25454819D02*
X37571428Y-26169104D01*
X37571428Y-26169104D02*
X37904761Y-25454819D01*
X37904761Y-25454819D02*
X37904761Y-26454819D01*
X38380952Y-26454819D02*
X38380952Y-25454819D01*
X39428570Y-26454819D02*
X39095237Y-25978628D01*
X38857142Y-26454819D02*
X38857142Y-25454819D01*
X38857142Y-25454819D02*
X39238094Y-25454819D01*
X39238094Y-25454819D02*
X39333332Y-25502438D01*
X39333332Y-25502438D02*
X39380951Y-25550057D01*
X39380951Y-25550057D02*
X39428570Y-25645295D01*
X39428570Y-25645295D02*
X39428570Y-25788152D01*
X39428570Y-25788152D02*
X39380951Y-25883390D01*
X39380951Y-25883390D02*
X39333332Y-25931009D01*
X39333332Y-25931009D02*
X39238094Y-25978628D01*
X39238094Y-25978628D02*
X38857142Y-25978628D01*
X40428570Y-26454819D02*
X40095237Y-25978628D01*
X39857142Y-26454819D02*
X39857142Y-25454819D01*
X39857142Y-25454819D02*
X40238094Y-25454819D01*
X40238094Y-25454819D02*
X40333332Y-25502438D01*
X40333332Y-25502438D02*
X40380951Y-25550057D01*
X40380951Y-25550057D02*
X40428570Y-25645295D01*
X40428570Y-25645295D02*
X40428570Y-25788152D01*
X40428570Y-25788152D02*
X40380951Y-25883390D01*
X40380951Y-25883390D02*
X40333332Y-25931009D01*
X40333332Y-25931009D02*
X40238094Y-25978628D01*
X40238094Y-25978628D02*
X39857142Y-25978628D01*
X41047618Y-25454819D02*
X41238094Y-25454819D01*
X41238094Y-25454819D02*
X41333332Y-25502438D01*
X41333332Y-25502438D02*
X41428570Y-25597676D01*
X41428570Y-25597676D02*
X41476189Y-25788152D01*
X41476189Y-25788152D02*
X41476189Y-26121485D01*
X41476189Y-26121485D02*
X41428570Y-26311961D01*
X41428570Y-26311961D02*
X41333332Y-26407200D01*
X41333332Y-26407200D02*
X41238094Y-26454819D01*
X41238094Y-26454819D02*
X41047618Y-26454819D01*
X41047618Y-26454819D02*
X40952380Y-26407200D01*
X40952380Y-26407200D02*
X40857142Y-26311961D01*
X40857142Y-26311961D02*
X40809523Y-26121485D01*
X40809523Y-26121485D02*
X40809523Y-25788152D01*
X40809523Y-25788152D02*
X40857142Y-25597676D01*
X40857142Y-25597676D02*
X40952380Y-25502438D01*
X40952380Y-25502438D02*
X41047618Y-25454819D01*
X42476189Y-26454819D02*
X42142856Y-25978628D01*
X41904761Y-26454819D02*
X41904761Y-25454819D01*
X41904761Y-25454819D02*
X42285713Y-25454819D01*
X42285713Y-25454819D02*
X42380951Y-25502438D01*
X42380951Y-25502438D02*
X42428570Y-25550057D01*
X42428570Y-25550057D02*
X42476189Y-25645295D01*
X42476189Y-25645295D02*
X42476189Y-25788152D01*
X42476189Y-25788152D02*
X42428570Y-25883390D01*
X42428570Y-25883390D02*
X42380951Y-25931009D01*
X42380951Y-25931009D02*
X42285713Y-25978628D01*
X42285713Y-25978628D02*
X41904761Y-25978628D01*
X42666666Y-26550057D02*
X43428570Y-26550057D01*
X43999999Y-25931009D02*
X43666666Y-25931009D01*
X43666666Y-26454819D02*
X43666666Y-25454819D01*
X43666666Y-25454819D02*
X44142856Y-25454819D01*
X45095237Y-26454819D02*
X44761904Y-25978628D01*
X44523809Y-26454819D02*
X44523809Y-25454819D01*
X44523809Y-25454819D02*
X44904761Y-25454819D01*
X44904761Y-25454819D02*
X44999999Y-25502438D01*
X44999999Y-25502438D02*
X45047618Y-25550057D01*
X45047618Y-25550057D02*
X45095237Y-25645295D01*
X45095237Y-25645295D02*
X45095237Y-25788152D01*
X45095237Y-25788152D02*
X45047618Y-25883390D01*
X45047618Y-25883390D02*
X44999999Y-25931009D01*
X44999999Y-25931009D02*
X44904761Y-25978628D01*
X44904761Y-25978628D02*
X44523809Y-25978628D01*
X45714285Y-25454819D02*
X45904761Y-25454819D01*
X45904761Y-25454819D02*
X45999999Y-25502438D01*
X45999999Y-25502438D02*
X46095237Y-25597676D01*
X46095237Y-25597676D02*
X46142856Y-25788152D01*
X46142856Y-25788152D02*
X46142856Y-26121485D01*
X46142856Y-26121485D02*
X46095237Y-26311961D01*
X46095237Y-26311961D02*
X45999999Y-26407200D01*
X45999999Y-26407200D02*
X45904761Y-26454819D01*
X45904761Y-26454819D02*
X45714285Y-26454819D01*
X45714285Y-26454819D02*
X45619047Y-26407200D01*
X45619047Y-26407200D02*
X45523809Y-26311961D01*
X45523809Y-26311961D02*
X45476190Y-26121485D01*
X45476190Y-26121485D02*
X45476190Y-25788152D01*
X45476190Y-25788152D02*
X45523809Y-25597676D01*
X45523809Y-25597676D02*
X45619047Y-25502438D01*
X45619047Y-25502438D02*
X45714285Y-25454819D01*
X46571428Y-26454819D02*
X46571428Y-25454819D01*
X46571428Y-25454819D02*
X47142856Y-26454819D01*
X47142856Y-26454819D02*
X47142856Y-25454819D01*
X47476190Y-25454819D02*
X48047618Y-25454819D01*
X47761904Y-26454819D02*
X47761904Y-25454819D01*
X48142857Y-26550057D02*
X48904761Y-26550057D01*
X49666666Y-25502438D02*
X49571428Y-25454819D01*
X49571428Y-25454819D02*
X49428571Y-25454819D01*
X49428571Y-25454819D02*
X49285714Y-25502438D01*
X49285714Y-25502438D02*
X49190476Y-25597676D01*
X49190476Y-25597676D02*
X49142857Y-25692914D01*
X49142857Y-25692914D02*
X49095238Y-25883390D01*
X49095238Y-25883390D02*
X49095238Y-26026247D01*
X49095238Y-26026247D02*
X49142857Y-26216723D01*
X49142857Y-26216723D02*
X49190476Y-26311961D01*
X49190476Y-26311961D02*
X49285714Y-26407200D01*
X49285714Y-26407200D02*
X49428571Y-26454819D01*
X49428571Y-26454819D02*
X49523809Y-26454819D01*
X49523809Y-26454819D02*
X49666666Y-26407200D01*
X49666666Y-26407200D02*
X49714285Y-26359580D01*
X49714285Y-26359580D02*
X49714285Y-26026247D01*
X49714285Y-26026247D02*
X49523809Y-26026247D01*
X50333333Y-25454819D02*
X50523809Y-25454819D01*
X50523809Y-25454819D02*
X50619047Y-25502438D01*
X50619047Y-25502438D02*
X50714285Y-25597676D01*
X50714285Y-25597676D02*
X50761904Y-25788152D01*
X50761904Y-25788152D02*
X50761904Y-26121485D01*
X50761904Y-26121485D02*
X50714285Y-26311961D01*
X50714285Y-26311961D02*
X50619047Y-26407200D01*
X50619047Y-26407200D02*
X50523809Y-26454819D01*
X50523809Y-26454819D02*
X50333333Y-26454819D01*
X50333333Y-26454819D02*
X50238095Y-26407200D01*
X50238095Y-26407200D02*
X50142857Y-26311961D01*
X50142857Y-26311961D02*
X50095238Y-26121485D01*
X50095238Y-26121485D02*
X50095238Y-25788152D01*
X50095238Y-25788152D02*
X50142857Y-25597676D01*
X50142857Y-25597676D02*
X50238095Y-25502438D01*
X50238095Y-25502438D02*
X50333333Y-25454819D01*
X51380952Y-25454819D02*
X51571428Y-25454819D01*
X51571428Y-25454819D02*
X51666666Y-25502438D01*
X51666666Y-25502438D02*
X51761904Y-25597676D01*
X51761904Y-25597676D02*
X51809523Y-25788152D01*
X51809523Y-25788152D02*
X51809523Y-26121485D01*
X51809523Y-26121485D02*
X51761904Y-26311961D01*
X51761904Y-26311961D02*
X51666666Y-26407200D01*
X51666666Y-26407200D02*
X51571428Y-26454819D01*
X51571428Y-26454819D02*
X51380952Y-26454819D01*
X51380952Y-26454819D02*
X51285714Y-26407200D01*
X51285714Y-26407200D02*
X51190476Y-26311961D01*
X51190476Y-26311961D02*
X51142857Y-26121485D01*
X51142857Y-26121485D02*
X51142857Y-25788152D01*
X51142857Y-25788152D02*
X51190476Y-25597676D01*
X51190476Y-25597676D02*
X51285714Y-25502438D01*
X51285714Y-25502438D02*
X51380952Y-25454819D01*
X52238095Y-26454819D02*
X52238095Y-25454819D01*
X52238095Y-25454819D02*
X52476190Y-25454819D01*
X52476190Y-25454819D02*
X52619047Y-25502438D01*
X52619047Y-25502438D02*
X52714285Y-25597676D01*
X52714285Y-25597676D02*
X52761904Y-25692914D01*
X52761904Y-25692914D02*
X52809523Y-25883390D01*
X52809523Y-25883390D02*
X52809523Y-26026247D01*
X52809523Y-26026247D02*
X52761904Y-26216723D01*
X52761904Y-26216723D02*
X52714285Y-26311961D01*
X52714285Y-26311961D02*
X52619047Y-26407200D01*
X52619047Y-26407200D02*
X52476190Y-26454819D01*
X52476190Y-26454819D02*
X52238095Y-26454819D01*
X90904762Y-11931009D02*
X91238095Y-11931009D01*
X91380952Y-12454819D02*
X90904762Y-12454819D01*
X90904762Y-12454819D02*
X90904762Y-11454819D01*
X90904762Y-11454819D02*
X91380952Y-11454819D01*
X91809524Y-12454819D02*
X91809524Y-11454819D01*
X91809524Y-11454819D02*
X92047619Y-11454819D01*
X92047619Y-11454819D02*
X92190476Y-11502438D01*
X92190476Y-11502438D02*
X92285714Y-11597676D01*
X92285714Y-11597676D02*
X92333333Y-11692914D01*
X92333333Y-11692914D02*
X92380952Y-11883390D01*
X92380952Y-11883390D02*
X92380952Y-12026247D01*
X92380952Y-12026247D02*
X92333333Y-12216723D01*
X92333333Y-12216723D02*
X92285714Y-12311961D01*
X92285714Y-12311961D02*
X92190476Y-12407200D01*
X92190476Y-12407200D02*
X92047619Y-12454819D01*
X92047619Y-12454819D02*
X91809524Y-12454819D01*
X93333333Y-11502438D02*
X93238095Y-11454819D01*
X93238095Y-11454819D02*
X93095238Y-11454819D01*
X93095238Y-11454819D02*
X92952381Y-11502438D01*
X92952381Y-11502438D02*
X92857143Y-11597676D01*
X92857143Y-11597676D02*
X92809524Y-11692914D01*
X92809524Y-11692914D02*
X92761905Y-11883390D01*
X92761905Y-11883390D02*
X92761905Y-12026247D01*
X92761905Y-12026247D02*
X92809524Y-12216723D01*
X92809524Y-12216723D02*
X92857143Y-12311961D01*
X92857143Y-12311961D02*
X92952381Y-12407200D01*
X92952381Y-12407200D02*
X93095238Y-12454819D01*
X93095238Y-12454819D02*
X93190476Y-12454819D01*
X93190476Y-12454819D02*
X93333333Y-12407200D01*
X93333333Y-12407200D02*
X93380952Y-12359580D01*
X93380952Y-12359580D02*
X93380952Y-12026247D01*
X93380952Y-12026247D02*
X93190476Y-12026247D01*
X93809524Y-11931009D02*
X94142857Y-11931009D01*
X94285714Y-12454819D02*
X93809524Y-12454819D01*
X93809524Y-12454819D02*
X93809524Y-11454819D01*
X93809524Y-11454819D02*
X94285714Y-11454819D01*
X94476191Y-12550057D02*
X95238095Y-12550057D01*
X96000000Y-11502438D02*
X95904762Y-11454819D01*
X95904762Y-11454819D02*
X95761905Y-11454819D01*
X95761905Y-11454819D02*
X95619048Y-11502438D01*
X95619048Y-11502438D02*
X95523810Y-11597676D01*
X95523810Y-11597676D02*
X95476191Y-11692914D01*
X95476191Y-11692914D02*
X95428572Y-11883390D01*
X95428572Y-11883390D02*
X95428572Y-12026247D01*
X95428572Y-12026247D02*
X95476191Y-12216723D01*
X95476191Y-12216723D02*
X95523810Y-12311961D01*
X95523810Y-12311961D02*
X95619048Y-12407200D01*
X95619048Y-12407200D02*
X95761905Y-12454819D01*
X95761905Y-12454819D02*
X95857143Y-12454819D01*
X95857143Y-12454819D02*
X96000000Y-12407200D01*
X96000000Y-12407200D02*
X96047619Y-12359580D01*
X96047619Y-12359580D02*
X96047619Y-12026247D01*
X96047619Y-12026247D02*
X95857143Y-12026247D01*
X96666667Y-11454819D02*
X96857143Y-11454819D01*
X96857143Y-11454819D02*
X96952381Y-11502438D01*
X96952381Y-11502438D02*
X97047619Y-11597676D01*
X97047619Y-11597676D02*
X97095238Y-11788152D01*
X97095238Y-11788152D02*
X97095238Y-12121485D01*
X97095238Y-12121485D02*
X97047619Y-12311961D01*
X97047619Y-12311961D02*
X96952381Y-12407200D01*
X96952381Y-12407200D02*
X96857143Y-12454819D01*
X96857143Y-12454819D02*
X96666667Y-12454819D01*
X96666667Y-12454819D02*
X96571429Y-12407200D01*
X96571429Y-12407200D02*
X96476191Y-12311961D01*
X96476191Y-12311961D02*
X96428572Y-12121485D01*
X96428572Y-12121485D02*
X96428572Y-11788152D01*
X96428572Y-11788152D02*
X96476191Y-11597676D01*
X96476191Y-11597676D02*
X96571429Y-11502438D01*
X96571429Y-11502438D02*
X96666667Y-11454819D01*
X97714286Y-11454819D02*
X97904762Y-11454819D01*
X97904762Y-11454819D02*
X98000000Y-11502438D01*
X98000000Y-11502438D02*
X98095238Y-11597676D01*
X98095238Y-11597676D02*
X98142857Y-11788152D01*
X98142857Y-11788152D02*
X98142857Y-12121485D01*
X98142857Y-12121485D02*
X98095238Y-12311961D01*
X98095238Y-12311961D02*
X98000000Y-12407200D01*
X98000000Y-12407200D02*
X97904762Y-12454819D01*
X97904762Y-12454819D02*
X97714286Y-12454819D01*
X97714286Y-12454819D02*
X97619048Y-12407200D01*
X97619048Y-12407200D02*
X97523810Y-12311961D01*
X97523810Y-12311961D02*
X97476191Y-12121485D01*
X97476191Y-12121485D02*
X97476191Y-11788152D01*
X97476191Y-11788152D02*
X97523810Y-11597676D01*
X97523810Y-11597676D02*
X97619048Y-11502438D01*
X97619048Y-11502438D02*
X97714286Y-11454819D01*
X98571429Y-12454819D02*
X98571429Y-11454819D01*
X98571429Y-11454819D02*
X98809524Y-11454819D01*
X98809524Y-11454819D02*
X98952381Y-11502438D01*
X98952381Y-11502438D02*
X99047619Y-11597676D01*
X99047619Y-11597676D02*
X99095238Y-11692914D01*
X99095238Y-11692914D02*
X99142857Y-11883390D01*
X99142857Y-11883390D02*
X99142857Y-12026247D01*
X99142857Y-12026247D02*
X99095238Y-12216723D01*
X99095238Y-12216723D02*
X99047619Y-12311961D01*
X99047619Y-12311961D02*
X98952381Y-12407200D01*
X98952381Y-12407200D02*
X98809524Y-12454819D01*
X98809524Y-12454819D02*
X98571429Y-12454819D01*
D11*
X94147619Y-19089923D02*
X94147619Y-18889923D01*
X94147619Y-18985161D02*
X94261904Y-18985161D01*
X94261904Y-19089923D02*
X94261904Y-18889923D01*
X94357143Y-18985161D02*
X94423809Y-18985161D01*
X94452381Y-19089923D02*
X94357143Y-19089923D01*
X94357143Y-19089923D02*
X94357143Y-18889923D01*
X94357143Y-18889923D02*
X94452381Y-18889923D01*
X94538095Y-19089923D02*
X94538095Y-18889923D01*
X94738094Y-18899447D02*
X94719047Y-18889923D01*
X94719047Y-18889923D02*
X94690475Y-18889923D01*
X94690475Y-18889923D02*
X94661904Y-18899447D01*
X94661904Y-18899447D02*
X94642856Y-18918495D01*
X94642856Y-18918495D02*
X94633333Y-18937542D01*
X94633333Y-18937542D02*
X94623809Y-18975638D01*
X94623809Y-18975638D02*
X94623809Y-19004209D01*
X94623809Y-19004209D02*
X94633333Y-19042304D01*
X94633333Y-19042304D02*
X94642856Y-19061352D01*
X94642856Y-19061352D02*
X94661904Y-19080400D01*
X94661904Y-19080400D02*
X94690475Y-19089923D01*
X94690475Y-19089923D02*
X94709523Y-19089923D01*
X94709523Y-19089923D02*
X94738094Y-19080400D01*
X94738094Y-19080400D02*
X94747618Y-19070876D01*
X94747618Y-19070876D02*
X94747618Y-19004209D01*
X94747618Y-19004209D02*
X94709523Y-19004209D01*
X94833333Y-19089923D02*
X94833333Y-18889923D01*
X94833333Y-18985161D02*
X94947618Y-18985161D01*
X94947618Y-19089923D02*
X94947618Y-18889923D01*
X95014285Y-18889923D02*
X95128571Y-18889923D01*
X95071428Y-19089923D02*
X95071428Y-18889923D01*
X95147619Y-19108971D02*
X95299999Y-19108971D01*
X95442857Y-19089923D02*
X95347619Y-19089923D01*
X95347619Y-19089923D02*
X95347619Y-18889923D01*
X95547619Y-18889923D02*
X95585714Y-18889923D01*
X95585714Y-18889923D02*
X95604762Y-18899447D01*
X95604762Y-18899447D02*
X95623809Y-18918495D01*
X95623809Y-18918495D02*
X95633333Y-18956590D01*
X95633333Y-18956590D02*
X95633333Y-19023257D01*
X95633333Y-19023257D02*
X95623809Y-19061352D01*
X95623809Y-19061352D02*
X95604762Y-19080400D01*
X95604762Y-19080400D02*
X95585714Y-19089923D01*
X95585714Y-19089923D02*
X95547619Y-19089923D01*
X95547619Y-19089923D02*
X95528571Y-19080400D01*
X95528571Y-19080400D02*
X95509524Y-19061352D01*
X95509524Y-19061352D02*
X95500000Y-19023257D01*
X95500000Y-19023257D02*
X95500000Y-18956590D01*
X95500000Y-18956590D02*
X95509524Y-18918495D01*
X95509524Y-18918495D02*
X95528571Y-18899447D01*
X95528571Y-18899447D02*
X95547619Y-18889923D01*
X95700000Y-18889923D02*
X95747619Y-19089923D01*
X95747619Y-19089923D02*
X95785714Y-18947066D01*
X95785714Y-18947066D02*
X95823809Y-19089923D01*
X95823809Y-19089923D02*
X95871429Y-18889923D01*
D10*
X116723810Y-19362295D02*
X116723810Y-18562295D01*
X116723810Y-18943247D02*
X117180953Y-18943247D01*
X117180953Y-19362295D02*
X117180953Y-18562295D01*
X117561905Y-18943247D02*
X117828571Y-18943247D01*
X117942857Y-19362295D02*
X117561905Y-19362295D01*
X117561905Y-19362295D02*
X117561905Y-18562295D01*
X117561905Y-18562295D02*
X117942857Y-18562295D01*
X118285715Y-19362295D02*
X118285715Y-18562295D01*
X119085714Y-18600390D02*
X119009524Y-18562295D01*
X119009524Y-18562295D02*
X118895238Y-18562295D01*
X118895238Y-18562295D02*
X118780952Y-18600390D01*
X118780952Y-18600390D02*
X118704762Y-18676580D01*
X118704762Y-18676580D02*
X118666667Y-18752771D01*
X118666667Y-18752771D02*
X118628571Y-18905152D01*
X118628571Y-18905152D02*
X118628571Y-19019438D01*
X118628571Y-19019438D02*
X118666667Y-19171819D01*
X118666667Y-19171819D02*
X118704762Y-19248009D01*
X118704762Y-19248009D02*
X118780952Y-19324200D01*
X118780952Y-19324200D02*
X118895238Y-19362295D01*
X118895238Y-19362295D02*
X118971429Y-19362295D01*
X118971429Y-19362295D02*
X119085714Y-19324200D01*
X119085714Y-19324200D02*
X119123810Y-19286104D01*
X119123810Y-19286104D02*
X119123810Y-19019438D01*
X119123810Y-19019438D02*
X118971429Y-19019438D01*
X119466667Y-19362295D02*
X119466667Y-18562295D01*
X119466667Y-18943247D02*
X119923810Y-18943247D01*
X119923810Y-19362295D02*
X119923810Y-18562295D01*
X120190476Y-18562295D02*
X120647619Y-18562295D01*
X120419047Y-19362295D02*
X120419047Y-18562295D01*
X120723810Y-19438485D02*
X121333333Y-19438485D01*
X121523810Y-19362295D02*
X121523810Y-18562295D01*
X121523810Y-18562295D02*
X121790476Y-19133723D01*
X121790476Y-19133723D02*
X122057143Y-18562295D01*
X122057143Y-18562295D02*
X122057143Y-19362295D01*
X122438096Y-19362295D02*
X122438096Y-18562295D01*
X122819048Y-19362295D02*
X122819048Y-18562295D01*
X122819048Y-18562295D02*
X123276191Y-19362295D01*
X123276191Y-19362295D02*
X123276191Y-18562295D01*
X140452381Y-19454819D02*
X140452381Y-18454819D01*
X140452381Y-18931009D02*
X141023809Y-18931009D01*
X141023809Y-19454819D02*
X141023809Y-18454819D01*
X141500000Y-18931009D02*
X141833333Y-18931009D01*
X141976190Y-19454819D02*
X141500000Y-19454819D01*
X141500000Y-19454819D02*
X141500000Y-18454819D01*
X141500000Y-18454819D02*
X141976190Y-18454819D01*
X142404762Y-19454819D02*
X142404762Y-18454819D01*
X143404761Y-18502438D02*
X143309523Y-18454819D01*
X143309523Y-18454819D02*
X143166666Y-18454819D01*
X143166666Y-18454819D02*
X143023809Y-18502438D01*
X143023809Y-18502438D02*
X142928571Y-18597676D01*
X142928571Y-18597676D02*
X142880952Y-18692914D01*
X142880952Y-18692914D02*
X142833333Y-18883390D01*
X142833333Y-18883390D02*
X142833333Y-19026247D01*
X142833333Y-19026247D02*
X142880952Y-19216723D01*
X142880952Y-19216723D02*
X142928571Y-19311961D01*
X142928571Y-19311961D02*
X143023809Y-19407200D01*
X143023809Y-19407200D02*
X143166666Y-19454819D01*
X143166666Y-19454819D02*
X143261904Y-19454819D01*
X143261904Y-19454819D02*
X143404761Y-19407200D01*
X143404761Y-19407200D02*
X143452380Y-19359580D01*
X143452380Y-19359580D02*
X143452380Y-19026247D01*
X143452380Y-19026247D02*
X143261904Y-19026247D01*
X143880952Y-19454819D02*
X143880952Y-18454819D01*
X143880952Y-18931009D02*
X144452380Y-18931009D01*
X144452380Y-19454819D02*
X144452380Y-18454819D01*
X144785714Y-18454819D02*
X145357142Y-18454819D01*
X145071428Y-19454819D02*
X145071428Y-18454819D01*
X145452381Y-19550057D02*
X146214285Y-19550057D01*
X146452381Y-19454819D02*
X146452381Y-18454819D01*
X146452381Y-18931009D02*
X147023809Y-18931009D01*
X147023809Y-19454819D02*
X147023809Y-18454819D01*
X147500000Y-19454819D02*
X147500000Y-18454819D01*
X148499999Y-18502438D02*
X148404761Y-18454819D01*
X148404761Y-18454819D02*
X148261904Y-18454819D01*
X148261904Y-18454819D02*
X148119047Y-18502438D01*
X148119047Y-18502438D02*
X148023809Y-18597676D01*
X148023809Y-18597676D02*
X147976190Y-18692914D01*
X147976190Y-18692914D02*
X147928571Y-18883390D01*
X147928571Y-18883390D02*
X147928571Y-19026247D01*
X147928571Y-19026247D02*
X147976190Y-19216723D01*
X147976190Y-19216723D02*
X148023809Y-19311961D01*
X148023809Y-19311961D02*
X148119047Y-19407200D01*
X148119047Y-19407200D02*
X148261904Y-19454819D01*
X148261904Y-19454819D02*
X148357142Y-19454819D01*
X148357142Y-19454819D02*
X148499999Y-19407200D01*
X148499999Y-19407200D02*
X148547618Y-19359580D01*
X148547618Y-19359580D02*
X148547618Y-19026247D01*
X148547618Y-19026247D02*
X148357142Y-19026247D01*
X148976190Y-19454819D02*
X148976190Y-18454819D01*
X148976190Y-18931009D02*
X149547618Y-18931009D01*
X149547618Y-19454819D02*
X149547618Y-18454819D01*
D12*
X91071429Y-25461579D02*
X91642857Y-25461579D01*
X91357143Y-26461579D02*
X91357143Y-25461579D01*
X91976191Y-26461579D02*
X91976191Y-25461579D01*
X91976191Y-25937769D02*
X92547619Y-25937769D01*
X92547619Y-26461579D02*
X92547619Y-25461579D01*
X93023810Y-26461579D02*
X93023810Y-25461579D01*
X94071428Y-26366340D02*
X94023809Y-26413960D01*
X94023809Y-26413960D02*
X93880952Y-26461579D01*
X93880952Y-26461579D02*
X93785714Y-26461579D01*
X93785714Y-26461579D02*
X93642857Y-26413960D01*
X93642857Y-26413960D02*
X93547619Y-26318721D01*
X93547619Y-26318721D02*
X93500000Y-26223483D01*
X93500000Y-26223483D02*
X93452381Y-26033007D01*
X93452381Y-26033007D02*
X93452381Y-25890150D01*
X93452381Y-25890150D02*
X93500000Y-25699674D01*
X93500000Y-25699674D02*
X93547619Y-25604436D01*
X93547619Y-25604436D02*
X93642857Y-25509198D01*
X93642857Y-25509198D02*
X93785714Y-25461579D01*
X93785714Y-25461579D02*
X93880952Y-25461579D01*
X93880952Y-25461579D02*
X94023809Y-25509198D01*
X94023809Y-25509198D02*
X94071428Y-25556817D01*
X94500000Y-26461579D02*
X94500000Y-25461579D01*
X95071428Y-26461579D02*
X94642857Y-25890150D01*
X95071428Y-25461579D02*
X94500000Y-26033007D01*
X95261905Y-26556817D02*
X96023809Y-26556817D01*
X96738095Y-26461579D02*
X96261905Y-26461579D01*
X96261905Y-26461579D02*
X96261905Y-25461579D01*
X97261905Y-25461579D02*
X97452381Y-25461579D01*
X97452381Y-25461579D02*
X97547619Y-25509198D01*
X97547619Y-25509198D02*
X97642857Y-25604436D01*
X97642857Y-25604436D02*
X97690476Y-25794912D01*
X97690476Y-25794912D02*
X97690476Y-26128245D01*
X97690476Y-26128245D02*
X97642857Y-26318721D01*
X97642857Y-26318721D02*
X97547619Y-26413960D01*
X97547619Y-26413960D02*
X97452381Y-26461579D01*
X97452381Y-26461579D02*
X97261905Y-26461579D01*
X97261905Y-26461579D02*
X97166667Y-26413960D01*
X97166667Y-26413960D02*
X97071429Y-26318721D01*
X97071429Y-26318721D02*
X97023810Y-26128245D01*
X97023810Y-26128245D02*
X97023810Y-25794912D01*
X97023810Y-25794912D02*
X97071429Y-25604436D01*
X97071429Y-25604436D02*
X97166667Y-25509198D01*
X97166667Y-25509198D02*
X97261905Y-25461579D01*
X98023810Y-25461579D02*
X98261905Y-26461579D01*
X98261905Y-26461579D02*
X98452381Y-25747293D01*
X98452381Y-25747293D02*
X98642857Y-26461579D01*
X98642857Y-26461579D02*
X98880953Y-25461579D01*
D13*
X116238096Y-25458459D02*
X116809524Y-25458459D01*
X116523810Y-26458459D02*
X116523810Y-25458459D01*
X117142858Y-26458459D02*
X117142858Y-25458459D01*
X117142858Y-25934649D02*
X117714286Y-25934649D01*
X117714286Y-26458459D02*
X117714286Y-25458459D01*
X118190477Y-26458459D02*
X118190477Y-25458459D01*
X119238095Y-26363220D02*
X119190476Y-26410840D01*
X119190476Y-26410840D02*
X119047619Y-26458459D01*
X119047619Y-26458459D02*
X118952381Y-26458459D01*
X118952381Y-26458459D02*
X118809524Y-26410840D01*
X118809524Y-26410840D02*
X118714286Y-26315601D01*
X118714286Y-26315601D02*
X118666667Y-26220363D01*
X118666667Y-26220363D02*
X118619048Y-26029887D01*
X118619048Y-26029887D02*
X118619048Y-25887030D01*
X118619048Y-25887030D02*
X118666667Y-25696554D01*
X118666667Y-25696554D02*
X118714286Y-25601316D01*
X118714286Y-25601316D02*
X118809524Y-25506078D01*
X118809524Y-25506078D02*
X118952381Y-25458459D01*
X118952381Y-25458459D02*
X119047619Y-25458459D01*
X119047619Y-25458459D02*
X119190476Y-25506078D01*
X119190476Y-25506078D02*
X119238095Y-25553697D01*
X119666667Y-26458459D02*
X119666667Y-25458459D01*
X120238095Y-26458459D02*
X119809524Y-25887030D01*
X120238095Y-25458459D02*
X119666667Y-26029887D01*
X120428572Y-26553697D02*
X121190476Y-26553697D01*
X121428572Y-26458459D02*
X121428572Y-25458459D01*
X121428572Y-25458459D02*
X121761905Y-26172744D01*
X121761905Y-26172744D02*
X122095238Y-25458459D01*
X122095238Y-25458459D02*
X122095238Y-26458459D01*
X122571429Y-26458459D02*
X122571429Y-25458459D01*
X123047619Y-26458459D02*
X123047619Y-25458459D01*
X123047619Y-25458459D02*
X123619047Y-26458459D01*
X123619047Y-26458459D02*
X123619047Y-25458459D01*
D10*
X140785715Y-25454819D02*
X141357143Y-25454819D01*
X141071429Y-26454819D02*
X141071429Y-25454819D01*
X141690477Y-26454819D02*
X141690477Y-25454819D01*
X141690477Y-25931009D02*
X142261905Y-25931009D01*
X142261905Y-26454819D02*
X142261905Y-25454819D01*
X142738096Y-26454819D02*
X142738096Y-25454819D01*
X143785714Y-26359580D02*
X143738095Y-26407200D01*
X143738095Y-26407200D02*
X143595238Y-26454819D01*
X143595238Y-26454819D02*
X143500000Y-26454819D01*
X143500000Y-26454819D02*
X143357143Y-26407200D01*
X143357143Y-26407200D02*
X143261905Y-26311961D01*
X143261905Y-26311961D02*
X143214286Y-26216723D01*
X143214286Y-26216723D02*
X143166667Y-26026247D01*
X143166667Y-26026247D02*
X143166667Y-25883390D01*
X143166667Y-25883390D02*
X143214286Y-25692914D01*
X143214286Y-25692914D02*
X143261905Y-25597676D01*
X143261905Y-25597676D02*
X143357143Y-25502438D01*
X143357143Y-25502438D02*
X143500000Y-25454819D01*
X143500000Y-25454819D02*
X143595238Y-25454819D01*
X143595238Y-25454819D02*
X143738095Y-25502438D01*
X143738095Y-25502438D02*
X143785714Y-25550057D01*
X144214286Y-26454819D02*
X144214286Y-25454819D01*
X144785714Y-26454819D02*
X144357143Y-25883390D01*
X144785714Y-25454819D02*
X144214286Y-26026247D01*
X144976191Y-26550057D02*
X145738095Y-26550057D01*
X145976191Y-26454819D02*
X145976191Y-25454819D01*
X145976191Y-25931009D02*
X146547619Y-25931009D01*
X146547619Y-26454819D02*
X146547619Y-25454819D01*
X147023810Y-26454819D02*
X147023810Y-25454819D01*
X148023809Y-25502438D02*
X147928571Y-25454819D01*
X147928571Y-25454819D02*
X147785714Y-25454819D01*
X147785714Y-25454819D02*
X147642857Y-25502438D01*
X147642857Y-25502438D02*
X147547619Y-25597676D01*
X147547619Y-25597676D02*
X147500000Y-25692914D01*
X147500000Y-25692914D02*
X147452381Y-25883390D01*
X147452381Y-25883390D02*
X147452381Y-26026247D01*
X147452381Y-26026247D02*
X147500000Y-26216723D01*
X147500000Y-26216723D02*
X147547619Y-26311961D01*
X147547619Y-26311961D02*
X147642857Y-26407200D01*
X147642857Y-26407200D02*
X147785714Y-26454819D01*
X147785714Y-26454819D02*
X147880952Y-26454819D01*
X147880952Y-26454819D02*
X148023809Y-26407200D01*
X148023809Y-26407200D02*
X148071428Y-26359580D01*
X148071428Y-26359580D02*
X148071428Y-26026247D01*
X148071428Y-26026247D02*
X147880952Y-26026247D01*
X148500000Y-26454819D02*
X148500000Y-25454819D01*
X148500000Y-25931009D02*
X149071428Y-25931009D01*
X149071428Y-26454819D02*
X149071428Y-25454819D01*
M02*
