%TF.GenerationSoftware,KiCad,Pcbnew,10.0.5*%
%TF.CreationDate,NORMALIZED*%
%TF.ProjectId,board,626f6172-642e-46b6-9963-61645f706362,rev?*%
%TF.SameCoordinates,Original*%
%TF.FileFunction,Legend,Bot*%
%TF.FilePolarity,Positive*%
%FSLAX46Y46*%
G04 Gerber Fmt 4.6, Leading zero omitted, Abs format (unit mm)*
G04 Created by KiCad NORMALIZED*
%MOMM*%
%LPD*%
G01*
G04 APERTURE LIST*
%ADD10C,0.150000*%
G04 APERTURE END LIST*
D10*
X8285714Y-34454819D02*
X8285714Y-33454819D01*
X8285714Y-33454819D02*
X8619047Y-34169104D01*
X8619047Y-34169104D02*
X8952380Y-33454819D01*
X8952380Y-33454819D02*
X8952380Y-34454819D01*
X9428571Y-34454819D02*
X9428571Y-33454819D01*
X10476189Y-34454819D02*
X10142856Y-33978628D01*
X9904761Y-34454819D02*
X9904761Y-33454819D01*
X9904761Y-33454819D02*
X10285713Y-33454819D01*
X10285713Y-33454819D02*
X10380951Y-33502438D01*
X10380951Y-33502438D02*
X10428570Y-33550057D01*
X10428570Y-33550057D02*
X10476189Y-33645295D01*
X10476189Y-33645295D02*
X10476189Y-33788152D01*
X10476189Y-33788152D02*
X10428570Y-33883390D01*
X10428570Y-33883390D02*
X10380951Y-33931009D01*
X10380951Y-33931009D02*
X10285713Y-33978628D01*
X10285713Y-33978628D02*
X9904761Y-33978628D01*
X11476189Y-34454819D02*
X11142856Y-33978628D01*
X10904761Y-34454819D02*
X10904761Y-33454819D01*
X10904761Y-33454819D02*
X11285713Y-33454819D01*
X11285713Y-33454819D02*
X11380951Y-33502438D01*
X11380951Y-33502438D02*
X11428570Y-33550057D01*
X11428570Y-33550057D02*
X11476189Y-33645295D01*
X11476189Y-33645295D02*
X11476189Y-33788152D01*
X11476189Y-33788152D02*
X11428570Y-33883390D01*
X11428570Y-33883390D02*
X11380951Y-33931009D01*
X11380951Y-33931009D02*
X11285713Y-33978628D01*
X11285713Y-33978628D02*
X10904761Y-33978628D01*
X12095237Y-33454819D02*
X12285713Y-33454819D01*
X12285713Y-33454819D02*
X12380951Y-33502438D01*
X12380951Y-33502438D02*
X12476189Y-33597676D01*
X12476189Y-33597676D02*
X12523808Y-33788152D01*
X12523808Y-33788152D02*
X12523808Y-34121485D01*
X12523808Y-34121485D02*
X12476189Y-34311961D01*
X12476189Y-34311961D02*
X12380951Y-34407200D01*
X12380951Y-34407200D02*
X12285713Y-34454819D01*
X12285713Y-34454819D02*
X12095237Y-34454819D01*
X12095237Y-34454819D02*
X11999999Y-34407200D01*
X11999999Y-34407200D02*
X11904761Y-34311961D01*
X11904761Y-34311961D02*
X11857142Y-34121485D01*
X11857142Y-34121485D02*
X11857142Y-33788152D01*
X11857142Y-33788152D02*
X11904761Y-33597676D01*
X11904761Y-33597676D02*
X11999999Y-33502438D01*
X11999999Y-33502438D02*
X12095237Y-33454819D01*
X13523808Y-34454819D02*
X13190475Y-33978628D01*
X12952380Y-34454819D02*
X12952380Y-33454819D01*
X12952380Y-33454819D02*
X13333332Y-33454819D01*
X13333332Y-33454819D02*
X13428570Y-33502438D01*
X13428570Y-33502438D02*
X13476189Y-33550057D01*
X13476189Y-33550057D02*
X13523808Y-33645295D01*
X13523808Y-33645295D02*
X13523808Y-33788152D01*
X13523808Y-33788152D02*
X13476189Y-33883390D01*
X13476189Y-33883390D02*
X13428570Y-33931009D01*
X13428570Y-33931009D02*
X13333332Y-33978628D01*
X13333332Y-33978628D02*
X12952380Y-33978628D01*
X13714285Y-34550057D02*
X14476189Y-34550057D01*
X15047618Y-33931009D02*
X15190475Y-33978628D01*
X15190475Y-33978628D02*
X15238094Y-34026247D01*
X15238094Y-34026247D02*
X15285713Y-34121485D01*
X15285713Y-34121485D02*
X15285713Y-34264342D01*
X15285713Y-34264342D02*
X15238094Y-34359580D01*
X15238094Y-34359580D02*
X15190475Y-34407200D01*
X15190475Y-34407200D02*
X15095237Y-34454819D01*
X15095237Y-34454819D02*
X14714285Y-34454819D01*
X14714285Y-34454819D02*
X14714285Y-33454819D01*
X14714285Y-33454819D02*
X15047618Y-33454819D01*
X15047618Y-33454819D02*
X15142856Y-33502438D01*
X15142856Y-33502438D02*
X15190475Y-33550057D01*
X15190475Y-33550057D02*
X15238094Y-33645295D01*
X15238094Y-33645295D02*
X15238094Y-33740533D01*
X15238094Y-33740533D02*
X15190475Y-33835771D01*
X15190475Y-33835771D02*
X15142856Y-33883390D01*
X15142856Y-33883390D02*
X15047618Y-33931009D01*
X15047618Y-33931009D02*
X14714285Y-33931009D01*
X15666666Y-34169104D02*
X16142856Y-34169104D01*
X15571428Y-34454819D02*
X15904761Y-33454819D01*
X15904761Y-33454819D02*
X16238094Y-34454819D01*
X17142856Y-34359580D02*
X17095237Y-34407200D01*
X17095237Y-34407200D02*
X16952380Y-34454819D01*
X16952380Y-34454819D02*
X16857142Y-34454819D01*
X16857142Y-34454819D02*
X16714285Y-34407200D01*
X16714285Y-34407200D02*
X16619047Y-34311961D01*
X16619047Y-34311961D02*
X16571428Y-34216723D01*
X16571428Y-34216723D02*
X16523809Y-34026247D01*
X16523809Y-34026247D02*
X16523809Y-33883390D01*
X16523809Y-33883390D02*
X16571428Y-33692914D01*
X16571428Y-33692914D02*
X16619047Y-33597676D01*
X16619047Y-33597676D02*
X16714285Y-33502438D01*
X16714285Y-33502438D02*
X16857142Y-33454819D01*
X16857142Y-33454819D02*
X16952380Y-33454819D01*
X16952380Y-33454819D02*
X17095237Y-33502438D01*
X17095237Y-33502438D02*
X17142856Y-33550057D01*
X17571428Y-34454819D02*
X17571428Y-33454819D01*
X18142856Y-34454819D02*
X17714285Y-33883390D01*
X18142856Y-33454819D02*
X17571428Y-34026247D01*
X18333333Y-34550057D02*
X19095237Y-34550057D01*
X19666666Y-33931009D02*
X19809523Y-33978628D01*
X19809523Y-33978628D02*
X19857142Y-34026247D01*
X19857142Y-34026247D02*
X19904761Y-34121485D01*
X19904761Y-34121485D02*
X19904761Y-34264342D01*
X19904761Y-34264342D02*
X19857142Y-34359580D01*
X19857142Y-34359580D02*
X19809523Y-34407200D01*
X19809523Y-34407200D02*
X19714285Y-34454819D01*
X19714285Y-34454819D02*
X19333333Y-34454819D01*
X19333333Y-34454819D02*
X19333333Y-33454819D01*
X19333333Y-33454819D02*
X19666666Y-33454819D01*
X19666666Y-33454819D02*
X19761904Y-33502438D01*
X19761904Y-33502438D02*
X19809523Y-33550057D01*
X19809523Y-33550057D02*
X19857142Y-33645295D01*
X19857142Y-33645295D02*
X19857142Y-33740533D01*
X19857142Y-33740533D02*
X19809523Y-33835771D01*
X19809523Y-33835771D02*
X19761904Y-33883390D01*
X19761904Y-33883390D02*
X19666666Y-33931009D01*
X19666666Y-33931009D02*
X19333333Y-33931009D01*
X20285714Y-34169104D02*
X20761904Y-34169104D01*
X20190476Y-34454819D02*
X20523809Y-33454819D01*
X20523809Y-33454819D02*
X20857142Y-34454819D01*
X21190476Y-34454819D02*
X21190476Y-33454819D01*
X21190476Y-33454819D02*
X21428571Y-33454819D01*
X21428571Y-33454819D02*
X21571428Y-33502438D01*
X21571428Y-33502438D02*
X21666666Y-33597676D01*
X21666666Y-33597676D02*
X21714285Y-33692914D01*
X21714285Y-33692914D02*
X21761904Y-33883390D01*
X21761904Y-33883390D02*
X21761904Y-34026247D01*
X21761904Y-34026247D02*
X21714285Y-34216723D01*
X21714285Y-34216723D02*
X21666666Y-34311961D01*
X21666666Y-34311961D02*
X21571428Y-34407200D01*
X21571428Y-34407200D02*
X21428571Y-34454819D01*
X21428571Y-34454819D02*
X21190476Y-34454819D01*
X52333332Y-34454819D02*
X52333332Y-33454819D01*
X52333332Y-33454819D02*
X51999999Y-34169104D01*
X51999999Y-34169104D02*
X51666666Y-33454819D01*
X51666666Y-33454819D02*
X51666666Y-34454819D01*
X51190475Y-34454819D02*
X51190475Y-33454819D01*
X50142857Y-34454819D02*
X50476190Y-33978628D01*
X50714285Y-34454819D02*
X50714285Y-33454819D01*
X50714285Y-33454819D02*
X50333333Y-33454819D01*
X50333333Y-33454819D02*
X50238095Y-33502438D01*
X50238095Y-33502438D02*
X50190476Y-33550057D01*
X50190476Y-33550057D02*
X50142857Y-33645295D01*
X50142857Y-33645295D02*
X50142857Y-33788152D01*
X50142857Y-33788152D02*
X50190476Y-33883390D01*
X50190476Y-33883390D02*
X50238095Y-33931009D01*
X50238095Y-33931009D02*
X50333333Y-33978628D01*
X50333333Y-33978628D02*
X50714285Y-33978628D01*
X49142857Y-34454819D02*
X49476190Y-33978628D01*
X49714285Y-34454819D02*
X49714285Y-33454819D01*
X49714285Y-33454819D02*
X49333333Y-33454819D01*
X49333333Y-33454819D02*
X49238095Y-33502438D01*
X49238095Y-33502438D02*
X49190476Y-33550057D01*
X49190476Y-33550057D02*
X49142857Y-33645295D01*
X49142857Y-33645295D02*
X49142857Y-33788152D01*
X49142857Y-33788152D02*
X49190476Y-33883390D01*
X49190476Y-33883390D02*
X49238095Y-33931009D01*
X49238095Y-33931009D02*
X49333333Y-33978628D01*
X49333333Y-33978628D02*
X49714285Y-33978628D01*
X48523809Y-33454819D02*
X48333333Y-33454819D01*
X48333333Y-33454819D02*
X48238095Y-33502438D01*
X48238095Y-33502438D02*
X48142857Y-33597676D01*
X48142857Y-33597676D02*
X48095238Y-33788152D01*
X48095238Y-33788152D02*
X48095238Y-34121485D01*
X48095238Y-34121485D02*
X48142857Y-34311961D01*
X48142857Y-34311961D02*
X48238095Y-34407200D01*
X48238095Y-34407200D02*
X48333333Y-34454819D01*
X48333333Y-34454819D02*
X48523809Y-34454819D01*
X48523809Y-34454819D02*
X48619047Y-34407200D01*
X48619047Y-34407200D02*
X48714285Y-34311961D01*
X48714285Y-34311961D02*
X48761904Y-34121485D01*
X48761904Y-34121485D02*
X48761904Y-33788152D01*
X48761904Y-33788152D02*
X48714285Y-33597676D01*
X48714285Y-33597676D02*
X48619047Y-33502438D01*
X48619047Y-33502438D02*
X48523809Y-33454819D01*
X47095238Y-34454819D02*
X47428571Y-33978628D01*
X47666666Y-34454819D02*
X47666666Y-33454819D01*
X47666666Y-33454819D02*
X47285714Y-33454819D01*
X47285714Y-33454819D02*
X47190476Y-33502438D01*
X47190476Y-33502438D02*
X47142857Y-33550057D01*
X47142857Y-33550057D02*
X47095238Y-33645295D01*
X47095238Y-33645295D02*
X47095238Y-33788152D01*
X47095238Y-33788152D02*
X47142857Y-33883390D01*
X47142857Y-33883390D02*
X47190476Y-33931009D01*
X47190476Y-33931009D02*
X47285714Y-33978628D01*
X47285714Y-33978628D02*
X47666666Y-33978628D01*
X46904762Y-34550057D02*
X46142857Y-34550057D01*
X45571428Y-33931009D02*
X45428571Y-33978628D01*
X45428571Y-33978628D02*
X45380952Y-34026247D01*
X45380952Y-34026247D02*
X45333333Y-34121485D01*
X45333333Y-34121485D02*
X45333333Y-34264342D01*
X45333333Y-34264342D02*
X45380952Y-34359580D01*
X45380952Y-34359580D02*
X45428571Y-34407200D01*
X45428571Y-34407200D02*
X45523809Y-34454819D01*
X45523809Y-34454819D02*
X45904761Y-34454819D01*
X45904761Y-34454819D02*
X45904761Y-33454819D01*
X45904761Y-33454819D02*
X45571428Y-33454819D01*
X45571428Y-33454819D02*
X45476190Y-33502438D01*
X45476190Y-33502438D02*
X45428571Y-33550057D01*
X45428571Y-33550057D02*
X45380952Y-33645295D01*
X45380952Y-33645295D02*
X45380952Y-33740533D01*
X45380952Y-33740533D02*
X45428571Y-33835771D01*
X45428571Y-33835771D02*
X45476190Y-33883390D01*
X45476190Y-33883390D02*
X45571428Y-33931009D01*
X45571428Y-33931009D02*
X45904761Y-33931009D01*
X44952380Y-34169104D02*
X44476190Y-34169104D01*
X45047618Y-34454819D02*
X44714285Y-33454819D01*
X44714285Y-33454819D02*
X44380952Y-34454819D01*
X43476190Y-34359580D02*
X43523809Y-34407200D01*
X43523809Y-34407200D02*
X43666666Y-34454819D01*
X43666666Y-34454819D02*
X43761904Y-34454819D01*
X43761904Y-34454819D02*
X43904761Y-34407200D01*
X43904761Y-34407200D02*
X43999999Y-34311961D01*
X43999999Y-34311961D02*
X44047618Y-34216723D01*
X44047618Y-34216723D02*
X44095237Y-34026247D01*
X44095237Y-34026247D02*
X44095237Y-33883390D01*
X44095237Y-33883390D02*
X44047618Y-33692914D01*
X44047618Y-33692914D02*
X43999999Y-33597676D01*
X43999999Y-33597676D02*
X43904761Y-33502438D01*
X43904761Y-33502438D02*
X43761904Y-33454819D01*
X43761904Y-33454819D02*
X43666666Y-33454819D01*
X43666666Y-33454819D02*
X43523809Y-33502438D01*
X43523809Y-33502438D02*
X43476190Y-33550057D01*
X43047618Y-34454819D02*
X43047618Y-33454819D01*
X42476190Y-34454819D02*
X42904761Y-33883390D01*
X42476190Y-33454819D02*
X43047618Y-34026247D01*
X42285714Y-34550057D02*
X41523809Y-34550057D01*
X40761904Y-33502438D02*
X40857142Y-33454819D01*
X40857142Y-33454819D02*
X40999999Y-33454819D01*
X40999999Y-33454819D02*
X41142856Y-33502438D01*
X41142856Y-33502438D02*
X41238094Y-33597676D01*
X41238094Y-33597676D02*
X41285713Y-33692914D01*
X41285713Y-33692914D02*
X41333332Y-33883390D01*
X41333332Y-33883390D02*
X41333332Y-34026247D01*
X41333332Y-34026247D02*
X41285713Y-34216723D01*
X41285713Y-34216723D02*
X41238094Y-34311961D01*
X41238094Y-34311961D02*
X41142856Y-34407200D01*
X41142856Y-34407200D02*
X40999999Y-34454819D01*
X40999999Y-34454819D02*
X40904761Y-34454819D01*
X40904761Y-34454819D02*
X40761904Y-34407200D01*
X40761904Y-34407200D02*
X40714285Y-34359580D01*
X40714285Y-34359580D02*
X40714285Y-34026247D01*
X40714285Y-34026247D02*
X40904761Y-34026247D01*
X40095237Y-33454819D02*
X39904761Y-33454819D01*
X39904761Y-33454819D02*
X39809523Y-33502438D01*
X39809523Y-33502438D02*
X39714285Y-33597676D01*
X39714285Y-33597676D02*
X39666666Y-33788152D01*
X39666666Y-33788152D02*
X39666666Y-34121485D01*
X39666666Y-34121485D02*
X39714285Y-34311961D01*
X39714285Y-34311961D02*
X39809523Y-34407200D01*
X39809523Y-34407200D02*
X39904761Y-34454819D01*
X39904761Y-34454819D02*
X40095237Y-34454819D01*
X40095237Y-34454819D02*
X40190475Y-34407200D01*
X40190475Y-34407200D02*
X40285713Y-34311961D01*
X40285713Y-34311961D02*
X40333332Y-34121485D01*
X40333332Y-34121485D02*
X40333332Y-33788152D01*
X40333332Y-33788152D02*
X40285713Y-33597676D01*
X40285713Y-33597676D02*
X40190475Y-33502438D01*
X40190475Y-33502438D02*
X40095237Y-33454819D01*
X39047618Y-33454819D02*
X38857142Y-33454819D01*
X38857142Y-33454819D02*
X38761904Y-33502438D01*
X38761904Y-33502438D02*
X38666666Y-33597676D01*
X38666666Y-33597676D02*
X38619047Y-33788152D01*
X38619047Y-33788152D02*
X38619047Y-34121485D01*
X38619047Y-34121485D02*
X38666666Y-34311961D01*
X38666666Y-34311961D02*
X38761904Y-34407200D01*
X38761904Y-34407200D02*
X38857142Y-34454819D01*
X38857142Y-34454819D02*
X39047618Y-34454819D01*
X39047618Y-34454819D02*
X39142856Y-34407200D01*
X39142856Y-34407200D02*
X39238094Y-34311961D01*
X39238094Y-34311961D02*
X39285713Y-34121485D01*
X39285713Y-34121485D02*
X39285713Y-33788152D01*
X39285713Y-33788152D02*
X39238094Y-33597676D01*
X39238094Y-33597676D02*
X39142856Y-33502438D01*
X39142856Y-33502438D02*
X39047618Y-33454819D01*
X38190475Y-34454819D02*
X38190475Y-33454819D01*
X38190475Y-33454819D02*
X37952380Y-33454819D01*
X37952380Y-33454819D02*
X37809523Y-33502438D01*
X37809523Y-33502438D02*
X37714285Y-33597676D01*
X37714285Y-33597676D02*
X37666666Y-33692914D01*
X37666666Y-33692914D02*
X37619047Y-33883390D01*
X37619047Y-33883390D02*
X37619047Y-34026247D01*
X37619047Y-34026247D02*
X37666666Y-34216723D01*
X37666666Y-34216723D02*
X37714285Y-34311961D01*
X37714285Y-34311961D02*
X37809523Y-34407200D01*
X37809523Y-34407200D02*
X37952380Y-34454819D01*
X37952380Y-34454819D02*
X38190475Y-34454819D01*
M02*
