%TF.GenerationSoftware,KiCad,Pcbnew,10.0.5*%
%TF.CreationDate,NORMALIZED*%
%TF.ProjectId,board,626f6172-642e-46b6-9963-61645f706362,rev?*%
%TF.SameCoordinates,Original*%
%TF.FileFunction,Profile,NP*%
%FSLAX46Y46*%
G04 Gerber Fmt 4.6, Leading zero omitted, Abs format (unit mm)*
G04 Created by KiCad NORMALIZED*
%MOMM*%
%LPD*%
G01*
G04 APERTURE LIST*
%TA.AperFunction,Profile*%
%ADD10C,0.100000*%
%TD*%
%ADD11C,0.150000*%
G04 APERTURE END LIST*
D10*
X0Y0D02*
X160000000Y0D01*
X160000000Y-50000000D01*
X0Y-50000000D01*
X0Y0D01*
D11*
X91523809Y-4931009D02*
X91857142Y-4931009D01*
X91999999Y-5454819D02*
X91523809Y-5454819D01*
X91523809Y-5454819D02*
X91523809Y-4454819D01*
X91523809Y-4454819D02*
X91999999Y-4454819D01*
X92428571Y-5454819D02*
X92428571Y-4454819D01*
X92428571Y-4454819D02*
X92666666Y-4454819D01*
X92666666Y-4454819D02*
X92809523Y-4502438D01*
X92809523Y-4502438D02*
X92904761Y-4597676D01*
X92904761Y-4597676D02*
X92952380Y-4692914D01*
X92952380Y-4692914D02*
X92999999Y-4883390D01*
X92999999Y-4883390D02*
X92999999Y-5026247D01*
X92999999Y-5026247D02*
X92952380Y-5216723D01*
X92952380Y-5216723D02*
X92904761Y-5311961D01*
X92904761Y-5311961D02*
X92809523Y-5407200D01*
X92809523Y-5407200D02*
X92666666Y-5454819D01*
X92666666Y-5454819D02*
X92428571Y-5454819D01*
X93952380Y-4502438D02*
X93857142Y-4454819D01*
X93857142Y-4454819D02*
X93714285Y-4454819D01*
X93714285Y-4454819D02*
X93571428Y-4502438D01*
X93571428Y-4502438D02*
X93476190Y-4597676D01*
X93476190Y-4597676D02*
X93428571Y-4692914D01*
X93428571Y-4692914D02*
X93380952Y-4883390D01*
X93380952Y-4883390D02*
X93380952Y-5026247D01*
X93380952Y-5026247D02*
X93428571Y-5216723D01*
X93428571Y-5216723D02*
X93476190Y-5311961D01*
X93476190Y-5311961D02*
X93571428Y-5407200D01*
X93571428Y-5407200D02*
X93714285Y-5454819D01*
X93714285Y-5454819D02*
X93809523Y-5454819D01*
X93809523Y-5454819D02*
X93952380Y-5407200D01*
X93952380Y-5407200D02*
X93999999Y-5359580D01*
X93999999Y-5359580D02*
X93999999Y-5026247D01*
X93999999Y-5026247D02*
X93809523Y-5026247D01*
X94428571Y-4931009D02*
X94761904Y-4931009D01*
X94904761Y-5454819D02*
X94428571Y-5454819D01*
X94428571Y-5454819D02*
X94428571Y-4454819D01*
X94428571Y-4454819D02*
X94904761Y-4454819D01*
X95095238Y-5550057D02*
X95857142Y-5550057D01*
X96428571Y-4931009D02*
X96571428Y-4978628D01*
X96571428Y-4978628D02*
X96619047Y-5026247D01*
X96619047Y-5026247D02*
X96666666Y-5121485D01*
X96666666Y-5121485D02*
X96666666Y-5264342D01*
X96666666Y-5264342D02*
X96619047Y-5359580D01*
X96619047Y-5359580D02*
X96571428Y-5407200D01*
X96571428Y-5407200D02*
X96476190Y-5454819D01*
X96476190Y-5454819D02*
X96095238Y-5454819D01*
X96095238Y-5454819D02*
X96095238Y-4454819D01*
X96095238Y-4454819D02*
X96428571Y-4454819D01*
X96428571Y-4454819D02*
X96523809Y-4502438D01*
X96523809Y-4502438D02*
X96571428Y-4550057D01*
X96571428Y-4550057D02*
X96619047Y-4645295D01*
X96619047Y-4645295D02*
X96619047Y-4740533D01*
X96619047Y-4740533D02*
X96571428Y-4835771D01*
X96571428Y-4835771D02*
X96523809Y-4883390D01*
X96523809Y-4883390D02*
X96428571Y-4931009D01*
X96428571Y-4931009D02*
X96095238Y-4931009D01*
X97047619Y-5169104D02*
X97523809Y-5169104D01*
X96952381Y-5454819D02*
X97285714Y-4454819D01*
X97285714Y-4454819D02*
X97619047Y-5454819D01*
X97952381Y-5454819D02*
X97952381Y-4454819D01*
X97952381Y-4454819D02*
X98190476Y-4454819D01*
X98190476Y-4454819D02*
X98333333Y-4502438D01*
X98333333Y-4502438D02*
X98428571Y-4597676D01*
X98428571Y-4597676D02*
X98476190Y-4692914D01*
X98476190Y-4692914D02*
X98523809Y-4883390D01*
X98523809Y-4883390D02*
X98523809Y-5026247D01*
X98523809Y-5026247D02*
X98476190Y-5216723D01*
X98476190Y-5216723D02*
X98428571Y-5311961D01*
X98428571Y-5311961D02*
X98333333Y-5407200D01*
X98333333Y-5407200D02*
X98190476Y-5454819D01*
X98190476Y-5454819D02*
X97952381Y-5454819D01*
M02*
