%TF.GenerationSoftware,KiCad,Pcbnew,10.0.5*%
%TF.CreationDate,NORMALIZED*%
%TF.ProjectId,board,626f6172-642e-46b6-9963-61645f706362,rev?*%
%TF.SameCoordinates,Original*%
%TF.FileFunction,Legend,Top*%
%TF.FilePolarity,Positive*%
%FSLAX46Y46*%
G04 Gerber Fmt 4.6, Leading zero omitted, Abs format (unit mm)*
G04 Created by KiCad NORMALIZED*
%MOMM*%
%LPD*%
G01*
G04 APERTURE LIST*
%ADD10C,0.080000*%
%ADD11C,0.079999*%
G04 APERTURE END LIST*
D10*
X8895238Y-10327840D02*
X8819047Y-10365935D01*
X8819047Y-10365935D02*
X8666666Y-10365935D01*
X8666666Y-10365935D02*
X8590476Y-10327840D01*
X8590476Y-10327840D02*
X8552380Y-10251649D01*
X8552380Y-10251649D02*
X8552380Y-9946887D01*
X8552380Y-9946887D02*
X8590476Y-9870697D01*
X8590476Y-9870697D02*
X8666666Y-9832601D01*
X8666666Y-9832601D02*
X8819047Y-9832601D01*
X8819047Y-9832601D02*
X8895238Y-9870697D01*
X8895238Y-9870697D02*
X8933333Y-9946887D01*
X8933333Y-9946887D02*
X8933333Y-10023078D01*
X8933333Y-10023078D02*
X8552380Y-10099268D01*
X9199999Y-10365935D02*
X9619047Y-9832601D01*
X9199999Y-9832601D02*
X9619047Y-10365935D01*
X10266666Y-10365935D02*
X10266666Y-9946887D01*
X10266666Y-9946887D02*
X10228571Y-9870697D01*
X10228571Y-9870697D02*
X10152380Y-9832601D01*
X10152380Y-9832601D02*
X9999999Y-9832601D01*
X9999999Y-9832601D02*
X9923809Y-9870697D01*
X10266666Y-10327840D02*
X10190475Y-10365935D01*
X10190475Y-10365935D02*
X9999999Y-10365935D01*
X9999999Y-10365935D02*
X9923809Y-10327840D01*
X9923809Y-10327840D02*
X9885713Y-10251649D01*
X9885713Y-10251649D02*
X9885713Y-10175459D01*
X9885713Y-10175459D02*
X9923809Y-10099268D01*
X9923809Y-10099268D02*
X9999999Y-10061173D01*
X9999999Y-10061173D02*
X10190475Y-10061173D01*
X10190475Y-10061173D02*
X10266666Y-10023078D01*
X10990476Y-10327840D02*
X10914285Y-10365935D01*
X10914285Y-10365935D02*
X10761904Y-10365935D01*
X10761904Y-10365935D02*
X10685714Y-10327840D01*
X10685714Y-10327840D02*
X10647619Y-10289744D01*
X10647619Y-10289744D02*
X10609523Y-10213554D01*
X10609523Y-10213554D02*
X10609523Y-9984982D01*
X10609523Y-9984982D02*
X10647619Y-9908792D01*
X10647619Y-9908792D02*
X10685714Y-9870697D01*
X10685714Y-9870697D02*
X10761904Y-9832601D01*
X10761904Y-9832601D02*
X10914285Y-9832601D01*
X10914285Y-9832601D02*
X10990476Y-9870697D01*
X11219047Y-9832601D02*
X11523809Y-9832601D01*
X11333333Y-9565935D02*
X11333333Y-10251649D01*
X11333333Y-10251649D02*
X11371428Y-10327840D01*
X11371428Y-10327840D02*
X11447618Y-10365935D01*
X11447618Y-10365935D02*
X11523809Y-10365935D01*
X6171428Y-12365935D02*
X6171428Y-11565936D01*
X6514285Y-12365935D02*
X6514285Y-11946888D01*
X6514285Y-11946888D02*
X6476190Y-11870697D01*
X6476190Y-11870697D02*
X6399999Y-11832602D01*
X6399999Y-11832602D02*
X6285713Y-11832602D01*
X6285713Y-11832602D02*
X6209523Y-11870697D01*
X6209523Y-11870697D02*
X6171428Y-11908792D01*
X7200000Y-12327840D02*
X7123809Y-12365935D01*
X7123809Y-12365935D02*
X6971428Y-12365935D01*
X6971428Y-12365935D02*
X6895238Y-12327840D01*
X6895238Y-12327840D02*
X6857142Y-12251649D01*
X6857142Y-12251649D02*
X6857142Y-11946888D01*
X6857142Y-11946888D02*
X6895238Y-11870697D01*
X6895238Y-11870697D02*
X6971428Y-11832602D01*
X6971428Y-11832602D02*
X7123809Y-11832602D01*
X7123809Y-11832602D02*
X7200000Y-11870697D01*
X7200000Y-11870697D02*
X7238095Y-11946888D01*
X7238095Y-11946888D02*
X7238095Y-12023078D01*
X7238095Y-12023078D02*
X6857142Y-12099268D01*
X7580952Y-12365935D02*
X7580952Y-11832602D01*
X7580952Y-11565936D02*
X7542856Y-11604031D01*
X7542856Y-11604031D02*
X7580952Y-11642126D01*
X7580952Y-11642126D02*
X7619047Y-11604031D01*
X7619047Y-11604031D02*
X7580952Y-11565936D01*
X7580952Y-11565936D02*
X7580952Y-11642126D01*
X8304761Y-11832602D02*
X8304761Y-12480220D01*
X8304761Y-12480220D02*
X8266666Y-12556411D01*
X8266666Y-12556411D02*
X8228570Y-12594506D01*
X8228570Y-12594506D02*
X8152380Y-12632601D01*
X8152380Y-12632601D02*
X8038094Y-12632601D01*
X8038094Y-12632601D02*
X7961904Y-12594506D01*
X8304761Y-12327840D02*
X8228570Y-12365935D01*
X8228570Y-12365935D02*
X8076189Y-12365935D01*
X8076189Y-12365935D02*
X7999999Y-12327840D01*
X7999999Y-12327840D02*
X7961904Y-12289744D01*
X7961904Y-12289744D02*
X7923808Y-12213554D01*
X7923808Y-12213554D02*
X7923808Y-11984983D01*
X7923808Y-11984983D02*
X7961904Y-11908792D01*
X7961904Y-11908792D02*
X7999999Y-11870697D01*
X7999999Y-11870697D02*
X8076189Y-11832602D01*
X8076189Y-11832602D02*
X8228570Y-11832602D01*
X8228570Y-11832602D02*
X8304761Y-11870697D01*
X8685714Y-12365935D02*
X8685714Y-11565936D01*
X9028571Y-12365935D02*
X9028571Y-11946888D01*
X9028571Y-11946888D02*
X8990476Y-11870697D01*
X8990476Y-11870697D02*
X8914285Y-11832602D01*
X8914285Y-11832602D02*
X8799999Y-11832602D01*
X8799999Y-11832602D02*
X8723809Y-11870697D01*
X8723809Y-11870697D02*
X8685714Y-11908792D01*
X9295238Y-11832602D02*
X9600000Y-11832602D01*
X9409524Y-11565936D02*
X9409524Y-12251649D01*
X9409524Y-12251649D02*
X9447619Y-12327840D01*
X9447619Y-12327840D02*
X9523809Y-12365935D01*
X9523809Y-12365935D02*
X9600000Y-12365935D01*
X9866667Y-12061173D02*
X10476191Y-12061173D01*
X11200000Y-11832602D02*
X11200000Y-12365935D01*
X10857143Y-11832602D02*
X10857143Y-12251649D01*
X10857143Y-12251649D02*
X10895238Y-12327840D01*
X10895238Y-12327840D02*
X10971428Y-12365935D01*
X10971428Y-12365935D02*
X11085714Y-12365935D01*
X11085714Y-12365935D02*
X11161905Y-12327840D01*
X11161905Y-12327840D02*
X11200000Y-12289744D01*
X11580953Y-11832602D02*
X11580953Y-12365935D01*
X11580953Y-11908792D02*
X11619048Y-11870697D01*
X11619048Y-11870697D02*
X11695238Y-11832602D01*
X11695238Y-11832602D02*
X11809524Y-11832602D01*
X11809524Y-11832602D02*
X11885715Y-11870697D01*
X11885715Y-11870697D02*
X11923810Y-11946888D01*
X11923810Y-11946888D02*
X11923810Y-12365935D01*
X12647620Y-12365935D02*
X12647620Y-11565936D01*
X12647620Y-12327840D02*
X12571429Y-12365935D01*
X12571429Y-12365935D02*
X12419048Y-12365935D01*
X12419048Y-12365935D02*
X12342858Y-12327840D01*
X12342858Y-12327840D02*
X12304763Y-12289744D01*
X12304763Y-12289744D02*
X12266667Y-12213554D01*
X12266667Y-12213554D02*
X12266667Y-11984983D01*
X12266667Y-11984983D02*
X12304763Y-11908792D01*
X12304763Y-11908792D02*
X12342858Y-11870697D01*
X12342858Y-11870697D02*
X12419048Y-11832602D01*
X12419048Y-11832602D02*
X12571429Y-11832602D01*
X12571429Y-11832602D02*
X12647620Y-11870697D01*
X13333335Y-12327840D02*
X13257144Y-12365935D01*
X13257144Y-12365935D02*
X13104763Y-12365935D01*
X13104763Y-12365935D02*
X13028573Y-12327840D01*
X13028573Y-12327840D02*
X12990477Y-12251649D01*
X12990477Y-12251649D02*
X12990477Y-11946888D01*
X12990477Y-11946888D02*
X13028573Y-11870697D01*
X13028573Y-11870697D02*
X13104763Y-11832602D01*
X13104763Y-11832602D02*
X13257144Y-11832602D01*
X13257144Y-11832602D02*
X13333335Y-11870697D01*
X13333335Y-11870697D02*
X13371430Y-11946888D01*
X13371430Y-11946888D02*
X13371430Y-12023078D01*
X13371430Y-12023078D02*
X12990477Y-12099268D01*
X13714287Y-12365935D02*
X13714287Y-11832602D01*
X13714287Y-11984983D02*
X13752382Y-11908792D01*
X13752382Y-11908792D02*
X13790477Y-11870697D01*
X13790477Y-11870697D02*
X13866668Y-11832602D01*
X13866668Y-11832602D02*
X13942858Y-11832602D01*
D11*
X5104761Y-13832601D02*
X5409523Y-13832601D01*
X5219047Y-13565935D02*
X5219047Y-14251649D01*
X5219047Y-14251649D02*
X5257142Y-14327840D01*
X5257142Y-14327840D02*
X5333332Y-14365935D01*
X5333332Y-14365935D02*
X5409523Y-14365935D01*
X5676190Y-14365935D02*
X5676190Y-13565935D01*
X6019047Y-14365935D02*
X6019047Y-13946887D01*
X6019047Y-13946887D02*
X5980952Y-13870697D01*
X5980952Y-13870697D02*
X5904761Y-13832601D01*
X5904761Y-13832601D02*
X5790475Y-13832601D01*
X5790475Y-13832601D02*
X5714285Y-13870697D01*
X5714285Y-13870697D02*
X5676190Y-13908792D01*
X6400000Y-14365935D02*
X6400000Y-13832601D01*
X6400000Y-13565935D02*
X6361904Y-13604030D01*
X6361904Y-13604030D02*
X6400000Y-13642125D01*
X6400000Y-13642125D02*
X6438095Y-13604030D01*
X6438095Y-13604030D02*
X6400000Y-13565935D01*
X6400000Y-13565935D02*
X6400000Y-13642125D01*
X7123809Y-14327840D02*
X7047618Y-14365935D01*
X7047618Y-14365935D02*
X6895237Y-14365935D01*
X6895237Y-14365935D02*
X6819047Y-14327840D01*
X6819047Y-14327840D02*
X6780952Y-14289744D01*
X6780952Y-14289744D02*
X6742856Y-14213554D01*
X6742856Y-14213554D02*
X6742856Y-13984982D01*
X6742856Y-13984982D02*
X6780952Y-13908792D01*
X6780952Y-13908792D02*
X6819047Y-13870697D01*
X6819047Y-13870697D02*
X6895237Y-13832601D01*
X6895237Y-13832601D02*
X7047618Y-13832601D01*
X7047618Y-13832601D02*
X7123809Y-13870697D01*
X7466666Y-14365935D02*
X7466666Y-13565935D01*
X7542856Y-14061173D02*
X7771428Y-14365935D01*
X7771428Y-13832601D02*
X7466666Y-14137363D01*
X8114285Y-13832601D02*
X8114285Y-14365935D01*
X8114285Y-13908792D02*
X8152380Y-13870697D01*
X8152380Y-13870697D02*
X8228570Y-13832601D01*
X8228570Y-13832601D02*
X8342856Y-13832601D01*
X8342856Y-13832601D02*
X8419047Y-13870697D01*
X8419047Y-13870697D02*
X8457142Y-13946887D01*
X8457142Y-13946887D02*
X8457142Y-14365935D01*
X9142857Y-14327840D02*
X9066666Y-14365935D01*
X9066666Y-14365935D02*
X8914285Y-14365935D01*
X8914285Y-14365935D02*
X8838095Y-14327840D01*
X8838095Y-14327840D02*
X8799999Y-14251649D01*
X8799999Y-14251649D02*
X8799999Y-13946887D01*
X8799999Y-13946887D02*
X8838095Y-13870697D01*
X8838095Y-13870697D02*
X8914285Y-13832601D01*
X8914285Y-13832601D02*
X9066666Y-13832601D01*
X9066666Y-13832601D02*
X9142857Y-13870697D01*
X9142857Y-13870697D02*
X9180952Y-13946887D01*
X9180952Y-13946887D02*
X9180952Y-14023078D01*
X9180952Y-14023078D02*
X8799999Y-14099268D01*
X9485713Y-14327840D02*
X9561904Y-14365935D01*
X9561904Y-14365935D02*
X9714285Y-14365935D01*
X9714285Y-14365935D02*
X9790475Y-14327840D01*
X9790475Y-14327840D02*
X9828571Y-14251649D01*
X9828571Y-14251649D02*
X9828571Y-14213554D01*
X9828571Y-14213554D02*
X9790475Y-14137363D01*
X9790475Y-14137363D02*
X9714285Y-14099268D01*
X9714285Y-14099268D02*
X9599999Y-14099268D01*
X9599999Y-14099268D02*
X9523809Y-14061173D01*
X9523809Y-14061173D02*
X9485713Y-13984982D01*
X9485713Y-13984982D02*
X9485713Y-13946887D01*
X9485713Y-13946887D02*
X9523809Y-13870697D01*
X9523809Y-13870697D02*
X9599999Y-13832601D01*
X9599999Y-13832601D02*
X9714285Y-13832601D01*
X9714285Y-13832601D02*
X9790475Y-13870697D01*
X10133332Y-14327840D02*
X10209523Y-14365935D01*
X10209523Y-14365935D02*
X10361904Y-14365935D01*
X10361904Y-14365935D02*
X10438094Y-14327840D01*
X10438094Y-14327840D02*
X10476190Y-14251649D01*
X10476190Y-14251649D02*
X10476190Y-14213554D01*
X10476190Y-14213554D02*
X10438094Y-14137363D01*
X10438094Y-14137363D02*
X10361904Y-14099268D01*
X10361904Y-14099268D02*
X10247618Y-14099268D01*
X10247618Y-14099268D02*
X10171428Y-14061173D01*
X10171428Y-14061173D02*
X10133332Y-13984982D01*
X10133332Y-13984982D02*
X10133332Y-13946887D01*
X10133332Y-13946887D02*
X10171428Y-13870697D01*
X10171428Y-13870697D02*
X10247618Y-13832601D01*
X10247618Y-13832601D02*
X10361904Y-13832601D01*
X10361904Y-13832601D02*
X10438094Y-13870697D01*
X10819047Y-14061173D02*
X11428571Y-14061173D01*
X12152380Y-13832601D02*
X12152380Y-14365935D01*
X11809523Y-13832601D02*
X11809523Y-14251649D01*
X11809523Y-14251649D02*
X11847618Y-14327840D01*
X11847618Y-14327840D02*
X11923808Y-14365935D01*
X11923808Y-14365935D02*
X12038094Y-14365935D01*
X12038094Y-14365935D02*
X12114285Y-14327840D01*
X12114285Y-14327840D02*
X12152380Y-14289744D01*
X12533333Y-13832601D02*
X12533333Y-14365935D01*
X12533333Y-13908792D02*
X12571428Y-13870697D01*
X12571428Y-13870697D02*
X12647618Y-13832601D01*
X12647618Y-13832601D02*
X12761904Y-13832601D01*
X12761904Y-13832601D02*
X12838095Y-13870697D01*
X12838095Y-13870697D02*
X12876190Y-13946887D01*
X12876190Y-13946887D02*
X12876190Y-14365935D01*
X13600000Y-14365935D02*
X13600000Y-13565935D01*
X13600000Y-14327840D02*
X13523809Y-14365935D01*
X13523809Y-14365935D02*
X13371428Y-14365935D01*
X13371428Y-14365935D02*
X13295238Y-14327840D01*
X13295238Y-14327840D02*
X13257143Y-14289744D01*
X13257143Y-14289744D02*
X13219047Y-14213554D01*
X13219047Y-14213554D02*
X13219047Y-13984982D01*
X13219047Y-13984982D02*
X13257143Y-13908792D01*
X13257143Y-13908792D02*
X13295238Y-13870697D01*
X13295238Y-13870697D02*
X13371428Y-13832601D01*
X13371428Y-13832601D02*
X13523809Y-13832601D01*
X13523809Y-13832601D02*
X13600000Y-13870697D01*
X14285715Y-14327840D02*
X14209524Y-14365935D01*
X14209524Y-14365935D02*
X14057143Y-14365935D01*
X14057143Y-14365935D02*
X13980953Y-14327840D01*
X13980953Y-14327840D02*
X13942857Y-14251649D01*
X13942857Y-14251649D02*
X13942857Y-13946887D01*
X13942857Y-13946887D02*
X13980953Y-13870697D01*
X13980953Y-13870697D02*
X14057143Y-13832601D01*
X14057143Y-13832601D02*
X14209524Y-13832601D01*
X14209524Y-13832601D02*
X14285715Y-13870697D01*
X14285715Y-13870697D02*
X14323810Y-13946887D01*
X14323810Y-13946887D02*
X14323810Y-14023078D01*
X14323810Y-14023078D02*
X13942857Y-14099268D01*
X14666667Y-14365935D02*
X14666667Y-13832601D01*
X14666667Y-13984982D02*
X14704762Y-13908792D01*
X14704762Y-13908792D02*
X14742857Y-13870697D01*
X14742857Y-13870697D02*
X14819048Y-13832601D01*
X14819048Y-13832601D02*
X14895238Y-13832601D01*
M02*
