%TF.GenerationSoftware,KiCad,Pcbnew,10.0.5*%
%TF.CreationDate,NORMALIZED*%
%TF.ProjectId,board,626f6172-642e-46b6-9963-61645f706362,rev?*%
%TF.SameCoordinates,Original*%
%TF.FileFunction,Copper,L1,Top*%
%TF.FilePolarity,Positive*%
%FSLAX46Y46*%
G04 Gerber Fmt 4.6, Leading zero omitted, Abs format (unit mm)*
G04 Created by KiCad NORMALIZED*
%MOMM*%
%LPD*%
G01*
G04 APERTURE LIST*
%ADD10C,0.300000*%
%TA.AperFunction,NonConductor*%
%ADD11C,0.300000*%
%TD*%
%TA.AperFunction,SMDPad,CuDef*%
%ADD12R,1.600000X1.600000*%
%TD*%
G04 APERTURE END LIST*
D10*
D11*
X3619048Y-10909638D02*
X3619048Y-8909638D01*
X3619048Y-8909638D02*
X4285715Y-10338209D01*
X4285715Y-10338209D02*
X4952381Y-8909638D01*
X4952381Y-8909638D02*
X4952381Y-10909638D01*
X5904762Y-10909638D02*
X5904762Y-8909638D01*
X5904762Y-8909638D02*
X6571429Y-10338209D01*
X6571429Y-10338209D02*
X7238095Y-8909638D01*
X7238095Y-8909638D02*
X7238095Y-10909638D01*
X8190476Y-10909638D02*
X8190476Y-8909638D01*
X8190476Y-8909638D02*
X8857143Y-10338209D01*
X8857143Y-10338209D02*
X9523809Y-8909638D01*
X9523809Y-8909638D02*
X9523809Y-10909638D01*
X10476190Y-10909638D02*
X10476190Y-8909638D01*
X10476190Y-8909638D02*
X11142857Y-10338209D01*
X11142857Y-10338209D02*
X11809523Y-8909638D01*
X11809523Y-8909638D02*
X11809523Y-10909638D01*
X12761904Y-10909638D02*
X12761904Y-8909638D01*
X12761904Y-8909638D02*
X13428571Y-10338209D01*
X13428571Y-10338209D02*
X14095237Y-8909638D01*
X14095237Y-8909638D02*
X14095237Y-10909638D01*
X15047618Y-10909638D02*
X15047618Y-8909638D01*
X15047618Y-8909638D02*
X15714285Y-10338209D01*
X15714285Y-10338209D02*
X16380951Y-8909638D01*
X16380951Y-8909638D02*
X16380951Y-10909638D01*
D12*
%TO.P,,1*%
%TO.N,GND*%
X20000000Y-10000000D03*
%TD*%
M02*
