%TF.GenerationSoftware,KiCad,Pcbnew,10.0.5*%
%TF.CreationDate,NORMALIZED*%
%TF.ProjectId,board,626f6172-642e-46b6-9963-61645f706362,rev?*%
%TF.SameCoordinates,Original*%
%TF.FileFunction,Legend,Top*%
%TF.FilePolarity,Positive*%
%FSLAX46Y46*%
G04 Gerber Fmt 4.6, Leading zero omitted, Abs format (unit mm)*
G04 Created by KiCad NORMALIZED*
%MOMM*%
%LPD*%
G01*
G04 APERTURE LIST*
%ADD10C,0.150000*%
G04 APERTURE END LIST*
D10*
X9833333Y-10454819D02*
X9500000Y-9978628D01*
X9261905Y-10454819D02*
X9261905Y-9454819D01*
X9261905Y-9454819D02*
X9642857Y-9454819D01*
X9642857Y-9454819D02*
X9738095Y-9502438D01*
X9738095Y-9502438D02*
X9785714Y-9550057D01*
X9785714Y-9550057D02*
X9833333Y-9645295D01*
X9833333Y-9645295D02*
X9833333Y-9788152D01*
X9833333Y-9788152D02*
X9785714Y-9883390D01*
X9785714Y-9883390D02*
X9738095Y-9931009D01*
X9738095Y-9931009D02*
X9642857Y-9978628D01*
X9642857Y-9978628D02*
X9261905Y-9978628D01*
X10785714Y-10454819D02*
X10214286Y-10454819D01*
X10500000Y-10454819D02*
X10500000Y-9454819D01*
X10500000Y-9454819D02*
X10404762Y-9597676D01*
X10404762Y-9597676D02*
X10309524Y-9692914D01*
X10309524Y-9692914D02*
X10214286Y-9740533D01*
X12833333Y-10454819D02*
X12500000Y-9978628D01*
X12261905Y-10454819D02*
X12261905Y-9454819D01*
X12261905Y-9454819D02*
X12642857Y-9454819D01*
X12642857Y-9454819D02*
X12738095Y-9502438D01*
X12738095Y-9502438D02*
X12785714Y-9550057D01*
X12785714Y-9550057D02*
X12833333Y-9645295D01*
X12833333Y-9645295D02*
X12833333Y-9788152D01*
X12833333Y-9788152D02*
X12785714Y-9883390D01*
X12785714Y-9883390D02*
X12738095Y-9931009D01*
X12738095Y-9931009D02*
X12642857Y-9978628D01*
X12642857Y-9978628D02*
X12261905Y-9978628D01*
X13214286Y-9550057D02*
X13261905Y-9502438D01*
X13261905Y-9502438D02*
X13357143Y-9454819D01*
X13357143Y-9454819D02*
X13595238Y-9454819D01*
X13595238Y-9454819D02*
X13690476Y-9502438D01*
X13690476Y-9502438D02*
X13738095Y-9550057D01*
X13738095Y-9550057D02*
X13785714Y-9645295D01*
X13785714Y-9645295D02*
X13785714Y-9740533D01*
X13785714Y-9740533D02*
X13738095Y-9883390D01*
X13738095Y-9883390D02*
X13166667Y-10454819D01*
X13166667Y-10454819D02*
X13785714Y-10454819D01*
M02*
