%TF.GenerationSoftware,KiCad,Pcbnew,10.0.5*%
%TF.CreationDate,NORMALIZED*%
%TF.ProjectId,board,626f6172-642e-46b6-9963-61645f706362,rev?*%
%TF.SameCoordinates,Original*%
%TF.FileFunction,AssemblyDrawing,Top*%
%FSLAX46Y46*%
G04 Gerber Fmt 4.6, Leading zero omitted, Abs format (unit mm)*
G04 Created by KiCad NORMALIZED*
%MOMM*%
%LPD*%
G01*
G04 APERTURE LIST*
%ADD10C,0.150000*%
G04 APERTURE END LIST*
D10*
X2904762Y-8454819D02*
X2904762Y-7454819D01*
X2904762Y-7454819D02*
X3476190Y-8454819D01*
X3476190Y-8454819D02*
X3476190Y-7454819D01*
X4095238Y-8454819D02*
X4000000Y-8407200D01*
X4000000Y-8407200D02*
X3952381Y-8359580D01*
X3952381Y-8359580D02*
X3904762Y-8264342D01*
X3904762Y-8264342D02*
X3904762Y-7978628D01*
X3904762Y-7978628D02*
X3952381Y-7883390D01*
X3952381Y-7883390D02*
X4000000Y-7835771D01*
X4000000Y-7835771D02*
X4095238Y-7788152D01*
X4095238Y-7788152D02*
X4238095Y-7788152D01*
X4238095Y-7788152D02*
X4333333Y-7835771D01*
X4333333Y-7835771D02*
X4380952Y-7883390D01*
X4380952Y-7883390D02*
X4428571Y-7978628D01*
X4428571Y-7978628D02*
X4428571Y-8264342D01*
X4428571Y-8264342D02*
X4380952Y-8359580D01*
X4380952Y-8359580D02*
X4333333Y-8407200D01*
X4333333Y-8407200D02*
X4238095Y-8454819D01*
X4238095Y-8454819D02*
X4095238Y-8454819D01*
X4857143Y-8454819D02*
X4857143Y-7454819D01*
X4857143Y-7454819D02*
X5238095Y-7454819D01*
X5238095Y-7454819D02*
X5333333Y-7502438D01*
X5333333Y-7502438D02*
X5380952Y-7550057D01*
X5380952Y-7550057D02*
X5428571Y-7645295D01*
X5428571Y-7645295D02*
X5428571Y-7788152D01*
X5428571Y-7788152D02*
X5380952Y-7883390D01*
X5380952Y-7883390D02*
X5333333Y-7931009D01*
X5333333Y-7931009D02*
X5238095Y-7978628D01*
X5238095Y-7978628D02*
X4857143Y-7978628D01*
X6000000Y-8454819D02*
X5904762Y-8407200D01*
X5904762Y-8407200D02*
X5857143Y-8359580D01*
X5857143Y-8359580D02*
X5809524Y-8264342D01*
X5809524Y-8264342D02*
X5809524Y-7978628D01*
X5809524Y-7978628D02*
X5857143Y-7883390D01*
X5857143Y-7883390D02*
X5904762Y-7835771D01*
X5904762Y-7835771D02*
X6000000Y-7788152D01*
X6000000Y-7788152D02*
X6142857Y-7788152D01*
X6142857Y-7788152D02*
X6238095Y-7835771D01*
X6238095Y-7835771D02*
X6285714Y-7883390D01*
X6285714Y-7883390D02*
X6333333Y-7978628D01*
X6333333Y-7978628D02*
X6333333Y-8264342D01*
X6333333Y-8264342D02*
X6285714Y-8359580D01*
X6285714Y-8359580D02*
X6238095Y-8407200D01*
X6238095Y-8407200D02*
X6142857Y-8454819D01*
X6142857Y-8454819D02*
X6000000Y-8454819D01*
X6714286Y-8407200D02*
X6809524Y-8454819D01*
X6809524Y-8454819D02*
X7000000Y-8454819D01*
X7000000Y-8454819D02*
X7095238Y-8407200D01*
X7095238Y-8407200D02*
X7142857Y-8311961D01*
X7142857Y-8311961D02*
X7142857Y-8264342D01*
X7142857Y-8264342D02*
X7095238Y-8169104D01*
X7095238Y-8169104D02*
X7000000Y-8121485D01*
X7000000Y-8121485D02*
X6857143Y-8121485D01*
X6857143Y-8121485D02*
X6761905Y-8073866D01*
X6761905Y-8073866D02*
X6714286Y-7978628D01*
X6714286Y-7978628D02*
X6714286Y-7931009D01*
X6714286Y-7931009D02*
X6761905Y-7835771D01*
X6761905Y-7835771D02*
X6857143Y-7788152D01*
X6857143Y-7788152D02*
X7000000Y-7788152D01*
X7000000Y-7788152D02*
X7095238Y-7835771D01*
M02*
