%TF.GenerationSoftware,KiCad,Pcbnew,10.0.5*%
%TF.CreationDate,NORMALIZED*%
%TF.ProjectId,board,626f6172-642e-46b6-9963-61645f706362,rev?*%
%TF.SameCoordinates,Original*%
%TF.FileFunction,Copper,L1,Top*%
%TF.FilePolarity,Positive*%
%FSLAX46Y46*%
G04 Gerber Fmt 4.6, Leading zero omitted, Abs format (unit mm)*
G04 Created by KiCad NORMALIZED*
%MOMM*%
%LPD*%
G01*
G04 APERTURE LIST*
%TA.AperFunction,ComponentPad*%
%ADD10C,1.600000*%
%TD*%
G04 APERTURE END LIST*
D10*
%TO.P,THERM_ONE_SPOKE,1*%
%TO.N,N1*%
X7000000Y-10000000D03*
%TD*%
%TO.P,THERM_TWO_SPOKES,1*%
%TO.N,N2*%
X19000000Y-10000000D03*
%TD*%
%TA.AperFunction,Conductor*%
%TO.N,N1*%
G36*
X2000000Y-2000000D02*
G01*
X12000000Y-2000000D01*
X12000000Y-8700000D01*
X2000000Y-8700000D01*
X2000000Y-2000000D01*
G37*
%TD.AperFunction*%
%TA.AperFunction,Conductor*%
G36*
X2000000Y-11300000D02*
G01*
X12000000Y-11300000D01*
X12000000Y-18000000D01*
X2000000Y-18000000D01*
X2000000Y-11300000D01*
G37*
%TD.AperFunction*%
%TA.AperFunction,Conductor*%
G36*
X2000000Y-8700000D02*
G01*
X5700000Y-8700000D01*
X5700000Y-11300000D01*
X2000000Y-11300000D01*
X2000000Y-8700000D01*
G37*
%TD.AperFunction*%
%TA.AperFunction,Conductor*%
G36*
X5700000Y-9850000D02*
G01*
X6100000Y-9850000D01*
X6100000Y-10150000D01*
X5700000Y-10150000D01*
X5700000Y-9850000D01*
G37*
%TD.AperFunction*%
%TD*%
%TA.AperFunction,Conductor*%
%TO.N,N2*%
G36*
X14000000Y-2000000D02*
G01*
X24000000Y-2000000D01*
X24000000Y-8700000D01*
X14000000Y-8700000D01*
X14000000Y-2000000D01*
G37*
%TD.AperFunction*%
%TA.AperFunction,Conductor*%
G36*
X14000000Y-11300000D02*
G01*
X24000000Y-11300000D01*
X24000000Y-18000000D01*
X14000000Y-18000000D01*
X14000000Y-11300000D01*
G37*
%TD.AperFunction*%
%TA.AperFunction,Conductor*%
G36*
X14000000Y-8700000D02*
G01*
X17700000Y-8700000D01*
X17700000Y-11300000D01*
X14000000Y-11300000D01*
X14000000Y-8700000D01*
G37*
%TD.AperFunction*%
%TA.AperFunction,Conductor*%
G36*
X20300000Y-8700000D02*
G01*
X24000000Y-8700000D01*
X24000000Y-11300000D01*
X20300000Y-11300000D01*
X20300000Y-8700000D01*
G37*
%TD.AperFunction*%
%TA.AperFunction,Conductor*%
G36*
X17700000Y-9850000D02*
G01*
X18100000Y-9850000D01*
X18100000Y-10150000D01*
X17700000Y-10150000D01*
X17700000Y-9850000D01*
G37*
%TD.AperFunction*%
%TA.AperFunction,Conductor*%
G36*
X19900000Y-9850000D02*
G01*
X20300000Y-9850000D01*
X20300000Y-10150000D01*
X19900000Y-10150000D01*
X19900000Y-9850000D01*
G37*
%TD.AperFunction*%
%TD*%
M02*
