%TF.GenerationSoftware,KiCad,Pcbnew,10.0.5*%
%TF.CreationDate,NORMALIZED*%
%TF.ProjectId,board,626f6172-642e-46b6-9963-61645f706362,rev?*%
%TF.SameCoordinates,Original*%
%TF.FileFunction,Copper,L1,Top*%
%TF.FilePolarity,Positive*%
%FSLAX46Y46*%
G04 Gerber Fmt 4.6, Leading zero omitted, Abs format (unit mm)*
G04 Created by KiCad NORMALIZED*
%MOMM*%
%LPD*%
G01*
G04 APERTURE LIST*
%ADD10C,0.150000*%
%TA.AperFunction,NonConductor*%
%ADD11C,0.150000*%
%TD*%
%TA.AperFunction,NonConductor*%
%ADD12C,0.000000*%
%TD*%
G04 APERTURE END LIST*
D10*
D11*
X15999999Y-12859580D02*
X15952380Y-12907200D01*
X15952380Y-12907200D02*
X15809523Y-12954819D01*
X15809523Y-12954819D02*
X15714285Y-12954819D01*
X15714285Y-12954819D02*
X15571428Y-12907200D01*
X15571428Y-12907200D02*
X15476190Y-12811961D01*
X15476190Y-12811961D02*
X15428571Y-12716723D01*
X15428571Y-12716723D02*
X15380952Y-12526247D01*
X15380952Y-12526247D02*
X15380952Y-12383390D01*
X15380952Y-12383390D02*
X15428571Y-12192914D01*
X15428571Y-12192914D02*
X15476190Y-12097676D01*
X15476190Y-12097676D02*
X15571428Y-12002438D01*
X15571428Y-12002438D02*
X15714285Y-11954819D01*
X15714285Y-11954819D02*
X15809523Y-11954819D01*
X15809523Y-11954819D02*
X15952380Y-12002438D01*
X15952380Y-12002438D02*
X15999999Y-12050057D01*
X16857142Y-12954819D02*
X16857142Y-12431009D01*
X16857142Y-12431009D02*
X16809523Y-12335771D01*
X16809523Y-12335771D02*
X16714285Y-12288152D01*
X16714285Y-12288152D02*
X16523809Y-12288152D01*
X16523809Y-12288152D02*
X16428571Y-12335771D01*
X16857142Y-12907200D02*
X16761904Y-12954819D01*
X16761904Y-12954819D02*
X16523809Y-12954819D01*
X16523809Y-12954819D02*
X16428571Y-12907200D01*
X16428571Y-12907200D02*
X16380952Y-12811961D01*
X16380952Y-12811961D02*
X16380952Y-12716723D01*
X16380952Y-12716723D02*
X16428571Y-12621485D01*
X16428571Y-12621485D02*
X16523809Y-12573866D01*
X16523809Y-12573866D02*
X16761904Y-12573866D01*
X16761904Y-12573866D02*
X16857142Y-12526247D01*
X17333333Y-12954819D02*
X17333333Y-12288152D01*
X17333333Y-12478628D02*
X17380952Y-12383390D01*
X17380952Y-12383390D02*
X17428571Y-12335771D01*
X17428571Y-12335771D02*
X17523809Y-12288152D01*
X17523809Y-12288152D02*
X17619047Y-12288152D01*
X18380952Y-12954819D02*
X18380952Y-11954819D01*
X18380952Y-12907200D02*
X18285714Y-12954819D01*
X18285714Y-12954819D02*
X18095238Y-12954819D01*
X18095238Y-12954819D02*
X18000000Y-12907200D01*
X18000000Y-12907200D02*
X17952381Y-12859580D01*
X17952381Y-12859580D02*
X17904762Y-12764342D01*
X17904762Y-12764342D02*
X17904762Y-12478628D01*
X17904762Y-12478628D02*
X17952381Y-12383390D01*
X17952381Y-12383390D02*
X18000000Y-12335771D01*
X18000000Y-12335771D02*
X18095238Y-12288152D01*
X18095238Y-12288152D02*
X18285714Y-12288152D01*
X18285714Y-12288152D02*
X18380952Y-12335771D01*
X18857143Y-12954819D02*
X18857143Y-12288152D01*
X18857143Y-11954819D02*
X18809524Y-12002438D01*
X18809524Y-12002438D02*
X18857143Y-12050057D01*
X18857143Y-12050057D02*
X18904762Y-12002438D01*
X18904762Y-12002438D02*
X18857143Y-11954819D01*
X18857143Y-11954819D02*
X18857143Y-12050057D01*
X19333333Y-12288152D02*
X19333333Y-12954819D01*
X19333333Y-12383390D02*
X19380952Y-12335771D01*
X19380952Y-12335771D02*
X19476190Y-12288152D01*
X19476190Y-12288152D02*
X19619047Y-12288152D01*
X19619047Y-12288152D02*
X19714285Y-12335771D01*
X19714285Y-12335771D02*
X19761904Y-12431009D01*
X19761904Y-12431009D02*
X19761904Y-12954819D01*
X20666666Y-12954819D02*
X20666666Y-12431009D01*
X20666666Y-12431009D02*
X20619047Y-12335771D01*
X20619047Y-12335771D02*
X20523809Y-12288152D01*
X20523809Y-12288152D02*
X20333333Y-12288152D01*
X20333333Y-12288152D02*
X20238095Y-12335771D01*
X20666666Y-12907200D02*
X20571428Y-12954819D01*
X20571428Y-12954819D02*
X20333333Y-12954819D01*
X20333333Y-12954819D02*
X20238095Y-12907200D01*
X20238095Y-12907200D02*
X20190476Y-12811961D01*
X20190476Y-12811961D02*
X20190476Y-12716723D01*
X20190476Y-12716723D02*
X20238095Y-12621485D01*
X20238095Y-12621485D02*
X20333333Y-12573866D01*
X20333333Y-12573866D02*
X20571428Y-12573866D01*
X20571428Y-12573866D02*
X20666666Y-12526247D01*
X21285714Y-12954819D02*
X21190476Y-12907200D01*
X21190476Y-12907200D02*
X21142857Y-12811961D01*
X21142857Y-12811961D02*
X21142857Y-11954819D01*
X22428572Y-12954819D02*
X22428572Y-11954819D01*
X22428572Y-12335771D02*
X22523810Y-12288152D01*
X22523810Y-12288152D02*
X22714286Y-12288152D01*
X22714286Y-12288152D02*
X22809524Y-12335771D01*
X22809524Y-12335771D02*
X22857143Y-12383390D01*
X22857143Y-12383390D02*
X22904762Y-12478628D01*
X22904762Y-12478628D02*
X22904762Y-12764342D01*
X22904762Y-12764342D02*
X22857143Y-12859580D01*
X22857143Y-12859580D02*
X22809524Y-12907200D01*
X22809524Y-12907200D02*
X22714286Y-12954819D01*
X22714286Y-12954819D02*
X22523810Y-12954819D01*
X22523810Y-12954819D02*
X22428572Y-12907200D01*
X23476191Y-12954819D02*
X23380953Y-12907200D01*
X23380953Y-12907200D02*
X23333334Y-12859580D01*
X23333334Y-12859580D02*
X23285715Y-12764342D01*
X23285715Y-12764342D02*
X23285715Y-12478628D01*
X23285715Y-12478628D02*
X23333334Y-12383390D01*
X23333334Y-12383390D02*
X23380953Y-12335771D01*
X23380953Y-12335771D02*
X23476191Y-12288152D01*
X23476191Y-12288152D02*
X23619048Y-12288152D01*
X23619048Y-12288152D02*
X23714286Y-12335771D01*
X23714286Y-12335771D02*
X23761905Y-12383390D01*
X23761905Y-12383390D02*
X23809524Y-12478628D01*
X23809524Y-12478628D02*
X23809524Y-12764342D01*
X23809524Y-12764342D02*
X23761905Y-12859580D01*
X23761905Y-12859580D02*
X23714286Y-12907200D01*
X23714286Y-12907200D02*
X23619048Y-12954819D01*
X23619048Y-12954819D02*
X23476191Y-12954819D01*
X24142858Y-12954819D02*
X24666667Y-12288152D01*
X24142858Y-12288152D02*
X24666667Y-12954819D01*
D10*
D11*
X44788340Y-20112877D02*
X44235550Y-19933179D01*
X44331977Y-20456771D02*
X43730162Y-19658135D01*
X43730162Y-19658135D02*
X44034404Y-19428873D01*
X44034404Y-19428873D02*
X44139122Y-19409587D01*
X44139122Y-19409587D02*
X44205811Y-19418959D01*
X44205811Y-19418959D02*
X44301156Y-19466362D01*
X44301156Y-19466362D02*
X44387130Y-19580453D01*
X44387130Y-19580453D02*
X44406416Y-19685171D01*
X44406416Y-19685171D02*
X44397043Y-19751859D01*
X44397043Y-19751859D02*
X44349640Y-19847205D01*
X44349640Y-19847205D02*
X44045398Y-20076468D01*
X45244703Y-19768982D02*
X45139985Y-19788268D01*
X45139985Y-19788268D02*
X45073297Y-19778895D01*
X45073297Y-19778895D02*
X44977951Y-19731493D01*
X44977951Y-19731493D02*
X44806004Y-19503311D01*
X44806004Y-19503311D02*
X44786718Y-19398593D01*
X44786718Y-19398593D02*
X44796091Y-19331905D01*
X44796091Y-19331905D02*
X44843493Y-19236559D01*
X44843493Y-19236559D02*
X44957584Y-19150585D01*
X44957584Y-19150585D02*
X45062302Y-19131300D01*
X45062302Y-19131300D02*
X45128991Y-19140672D01*
X45128991Y-19140672D02*
X45224336Y-19188075D01*
X45224336Y-19188075D02*
X45396284Y-19416256D01*
X45396284Y-19416256D02*
X45415569Y-19520975D01*
X45415569Y-19520975D02*
X45406197Y-19587663D01*
X45406197Y-19587663D02*
X45358794Y-19683009D01*
X45358794Y-19683009D02*
X45244703Y-19768982D01*
X45337887Y-18864006D02*
X45642129Y-18634744D01*
X45251372Y-18511821D02*
X45767214Y-19196366D01*
X45767214Y-19196366D02*
X45862560Y-19243768D01*
X45862560Y-19243768D02*
X45967278Y-19224483D01*
X45967278Y-19224483D02*
X46043339Y-19167167D01*
X46651823Y-18708641D02*
X46336587Y-18290308D01*
X46336587Y-18290308D02*
X46241241Y-18242906D01*
X46241241Y-18242906D02*
X46136523Y-18262191D01*
X46136523Y-18262191D02*
X45984402Y-18376823D01*
X45984402Y-18376823D02*
X45936999Y-18472169D01*
X46623165Y-18670611D02*
X46575763Y-18765957D01*
X46575763Y-18765957D02*
X46385612Y-18909246D01*
X46385612Y-18909246D02*
X46280893Y-18928532D01*
X46280893Y-18928532D02*
X46185547Y-18881129D01*
X46185547Y-18881129D02*
X46128231Y-18805068D01*
X46128231Y-18805068D02*
X46108946Y-18700350D01*
X46108946Y-18700350D02*
X46156349Y-18605004D01*
X46156349Y-18605004D02*
X46346500Y-18461715D01*
X46346500Y-18461715D02*
X46393903Y-18366369D01*
X46516825Y-17975612D02*
X46821067Y-17746350D01*
X46430311Y-17623427D02*
X46946152Y-18307972D01*
X46946152Y-18307972D02*
X47041498Y-18355374D01*
X47041498Y-18355374D02*
X47146217Y-18336089D01*
X47146217Y-18336089D02*
X47222277Y-18278773D01*
X47764074Y-17810875D02*
X47716671Y-17906221D01*
X47716671Y-17906221D02*
X47564550Y-18020852D01*
X47564550Y-18020852D02*
X47459832Y-18040138D01*
X47459832Y-18040138D02*
X47364486Y-17992735D01*
X47364486Y-17992735D02*
X47135223Y-17688493D01*
X47135223Y-17688493D02*
X47115937Y-17583775D01*
X47115937Y-17583775D02*
X47163340Y-17488429D01*
X47163340Y-17488429D02*
X47315461Y-17373797D01*
X47315461Y-17373797D02*
X47420179Y-17354512D01*
X47420179Y-17354512D02*
X47515525Y-17401914D01*
X47515525Y-17401914D02*
X47572841Y-17477975D01*
X47572841Y-17477975D02*
X47249854Y-17840614D01*
X48515307Y-17304406D02*
X47913492Y-16505770D01*
X48486649Y-17266376D02*
X48439246Y-17361721D01*
X48439246Y-17361721D02*
X48287125Y-17476353D01*
X48287125Y-17476353D02*
X48182407Y-17495638D01*
X48182407Y-17495638D02*
X48115719Y-17486266D01*
X48115719Y-17486266D02*
X48020373Y-17438863D01*
X48020373Y-17438863D02*
X47848426Y-17210682D01*
X47848426Y-17210682D02*
X47829140Y-17105963D01*
X47829140Y-17105963D02*
X47838512Y-17039275D01*
X47838512Y-17039275D02*
X47885915Y-16943929D01*
X47885915Y-16943929D02*
X48038036Y-16829298D01*
X48038036Y-16829298D02*
X48142755Y-16810012D01*
X49504094Y-16559301D02*
X48902279Y-15760666D01*
X49131542Y-16064908D02*
X49178944Y-15969562D01*
X49178944Y-15969562D02*
X49331065Y-15854930D01*
X49331065Y-15854930D02*
X49435784Y-15835645D01*
X49435784Y-15835645D02*
X49502472Y-15845017D01*
X49502472Y-15845017D02*
X49597818Y-15892420D01*
X49597818Y-15892420D02*
X49769765Y-16120602D01*
X49769765Y-16120602D02*
X49789050Y-16225320D01*
X49789050Y-16225320D02*
X49779678Y-16292008D01*
X49779678Y-16292008D02*
X49732275Y-16387354D01*
X49732275Y-16387354D02*
X49580154Y-16501986D01*
X49580154Y-16501986D02*
X49475436Y-16521271D01*
X50340760Y-15928828D02*
X50236041Y-15948114D01*
X50236041Y-15948114D02*
X50169353Y-15938741D01*
X50169353Y-15938741D02*
X50074007Y-15891339D01*
X50074007Y-15891339D02*
X49902060Y-15663157D01*
X49902060Y-15663157D02*
X49882775Y-15558439D01*
X49882775Y-15558439D02*
X49892147Y-15491751D01*
X49892147Y-15491751D02*
X49939550Y-15396405D01*
X49939550Y-15396405D02*
X50053640Y-15310431D01*
X50053640Y-15310431D02*
X50158359Y-15291146D01*
X50158359Y-15291146D02*
X50225047Y-15300518D01*
X50225047Y-15300518D02*
X50320393Y-15347921D01*
X50320393Y-15347921D02*
X50492340Y-15576102D01*
X50492340Y-15576102D02*
X50511626Y-15680821D01*
X50511626Y-15680821D02*
X50502253Y-15747509D01*
X50502253Y-15747509D02*
X50454850Y-15842855D01*
X50454850Y-15842855D02*
X50340760Y-15928828D01*
X50873183Y-15527618D02*
X50890306Y-14679958D01*
X50471973Y-14995195D02*
X51291516Y-15212382D01*
D12*
M02*
