%TF.GenerationSoftware,KiCad,Pcbnew,10.0.5*%
%TF.CreationDate,NORMALIZED*%
%TF.ProjectId,board,626f6172-642e-46b6-9963-61645f706362,rev?*%
%TF.SameCoordinates,Original*%
%TF.FileFunction,Legend,Top*%
%TF.FilePolarity,Positive*%
%FSLAX46Y46*%
G04 Gerber Fmt 4.6, Leading zero omitted, Abs format (unit mm)*
G04 Created by KiCad NORMALIZED*
%MOMM*%
%LPD*%
G01*
G04 APERTURE LIST*
%ADD10C,0.150000*%
%ADD11C,0.300000*%
%ADD12C,0.200000*%
G04 APERTURE END LIST*
D10*
X3071428Y-10407200D02*
X3214285Y-10454819D01*
X3214285Y-10454819D02*
X3452380Y-10454819D01*
X3452380Y-10454819D02*
X3547618Y-10407200D01*
X3547618Y-10407200D02*
X3595237Y-10359580D01*
X3595237Y-10359580D02*
X3642856Y-10264342D01*
X3642856Y-10264342D02*
X3642856Y-10169104D01*
X3642856Y-10169104D02*
X3595237Y-10073866D01*
X3595237Y-10073866D02*
X3547618Y-10026247D01*
X3547618Y-10026247D02*
X3452380Y-9978628D01*
X3452380Y-9978628D02*
X3261904Y-9931009D01*
X3261904Y-9931009D02*
X3166666Y-9883390D01*
X3166666Y-9883390D02*
X3119047Y-9835771D01*
X3119047Y-9835771D02*
X3071428Y-9740533D01*
X3071428Y-9740533D02*
X3071428Y-9645295D01*
X3071428Y-9645295D02*
X3119047Y-9550057D01*
X3119047Y-9550057D02*
X3166666Y-9502438D01*
X3166666Y-9502438D02*
X3261904Y-9454819D01*
X3261904Y-9454819D02*
X3499999Y-9454819D01*
X3499999Y-9454819D02*
X3642856Y-9502438D01*
X4071428Y-10454819D02*
X4071428Y-9788152D01*
X4071428Y-9883390D02*
X4119047Y-9835771D01*
X4119047Y-9835771D02*
X4214285Y-9788152D01*
X4214285Y-9788152D02*
X4357142Y-9788152D01*
X4357142Y-9788152D02*
X4452380Y-9835771D01*
X4452380Y-9835771D02*
X4499999Y-9931009D01*
X4499999Y-9931009D02*
X4499999Y-10454819D01*
X4499999Y-9931009D02*
X4547618Y-9835771D01*
X4547618Y-9835771D02*
X4642856Y-9788152D01*
X4642856Y-9788152D02*
X4785713Y-9788152D01*
X4785713Y-9788152D02*
X4880952Y-9835771D01*
X4880952Y-9835771D02*
X4928571Y-9931009D01*
X4928571Y-9931009D02*
X4928571Y-10454819D01*
X5833332Y-10454819D02*
X5833332Y-9931009D01*
X5833332Y-9931009D02*
X5785713Y-9835771D01*
X5785713Y-9835771D02*
X5690475Y-9788152D01*
X5690475Y-9788152D02*
X5499999Y-9788152D01*
X5499999Y-9788152D02*
X5404761Y-9835771D01*
X5833332Y-10407200D02*
X5738094Y-10454819D01*
X5738094Y-10454819D02*
X5499999Y-10454819D01*
X5499999Y-10454819D02*
X5404761Y-10407200D01*
X5404761Y-10407200D02*
X5357142Y-10311961D01*
X5357142Y-10311961D02*
X5357142Y-10216723D01*
X5357142Y-10216723D02*
X5404761Y-10121485D01*
X5404761Y-10121485D02*
X5499999Y-10073866D01*
X5499999Y-10073866D02*
X5738094Y-10073866D01*
X5738094Y-10073866D02*
X5833332Y-10026247D01*
X6452380Y-10454819D02*
X6357142Y-10407200D01*
X6357142Y-10407200D02*
X6309523Y-10311961D01*
X6309523Y-10311961D02*
X6309523Y-9454819D01*
X6976190Y-10454819D02*
X6880952Y-10407200D01*
X6880952Y-10407200D02*
X6833333Y-10311961D01*
X6833333Y-10311961D02*
X6833333Y-9454819D01*
D11*
X3452381Y-14831423D02*
X3809524Y-14950471D01*
X3809524Y-14950471D02*
X3928571Y-15069519D01*
X3928571Y-15069519D02*
X4047619Y-15307614D01*
X4047619Y-15307614D02*
X4047619Y-15664757D01*
X4047619Y-15664757D02*
X3928571Y-15902852D01*
X3928571Y-15902852D02*
X3809524Y-16021900D01*
X3809524Y-16021900D02*
X3571429Y-16140947D01*
X3571429Y-16140947D02*
X2619048Y-16140947D01*
X2619048Y-16140947D02*
X2619048Y-13640947D01*
X2619048Y-13640947D02*
X3452381Y-13640947D01*
X3452381Y-13640947D02*
X3690476Y-13759995D01*
X3690476Y-13759995D02*
X3809524Y-13879042D01*
X3809524Y-13879042D02*
X3928571Y-14117138D01*
X3928571Y-14117138D02*
X3928571Y-14355233D01*
X3928571Y-14355233D02*
X3809524Y-14593328D01*
X3809524Y-14593328D02*
X3690476Y-14712376D01*
X3690476Y-14712376D02*
X3452381Y-14831423D01*
X3452381Y-14831423D02*
X2619048Y-14831423D01*
X5119048Y-16140947D02*
X5119048Y-14474280D01*
X5119048Y-13640947D02*
X5000000Y-13759995D01*
X5000000Y-13759995D02*
X5119048Y-13879042D01*
X5119048Y-13879042D02*
X5238095Y-13759995D01*
X5238095Y-13759995D02*
X5119048Y-13640947D01*
X5119048Y-13640947D02*
X5119048Y-13879042D01*
X7380952Y-14474280D02*
X7380952Y-16498090D01*
X7380952Y-16498090D02*
X7261905Y-16736185D01*
X7261905Y-16736185D02*
X7142857Y-16855233D01*
X7142857Y-16855233D02*
X6904762Y-16974280D01*
X6904762Y-16974280D02*
X6547619Y-16974280D01*
X6547619Y-16974280D02*
X6309524Y-16855233D01*
X7380952Y-16021900D02*
X7142857Y-16140947D01*
X7142857Y-16140947D02*
X6666666Y-16140947D01*
X6666666Y-16140947D02*
X6428571Y-16021900D01*
X6428571Y-16021900D02*
X6309524Y-15902852D01*
X6309524Y-15902852D02*
X6190476Y-15664757D01*
X6190476Y-15664757D02*
X6190476Y-14950471D01*
X6190476Y-14950471D02*
X6309524Y-14712376D01*
X6309524Y-14712376D02*
X6428571Y-14593328D01*
X6428571Y-14593328D02*
X6666666Y-14474280D01*
X6666666Y-14474280D02*
X7142857Y-14474280D01*
X7142857Y-14474280D02*
X7380952Y-14593328D01*
D12*
X3357142Y-21897814D02*
X3571428Y-21969242D01*
X3571428Y-21969242D02*
X3642857Y-22040671D01*
X3642857Y-22040671D02*
X3714285Y-22183528D01*
X3714285Y-22183528D02*
X3714285Y-22397814D01*
X3714285Y-22397814D02*
X3642857Y-22540671D01*
X3642857Y-22540671D02*
X3571428Y-22612100D01*
X3571428Y-22612100D02*
X3428571Y-22683528D01*
X3428571Y-22683528D02*
X2857142Y-22683528D01*
X2857142Y-22683528D02*
X2857142Y-21183528D01*
X2857142Y-21183528D02*
X3357142Y-21183528D01*
X3357142Y-21183528D02*
X3500000Y-21254957D01*
X3500000Y-21254957D02*
X3571428Y-21326385D01*
X3571428Y-21326385D02*
X3642857Y-21469242D01*
X3642857Y-21469242D02*
X3642857Y-21612100D01*
X3642857Y-21612100D02*
X3571428Y-21754957D01*
X3571428Y-21754957D02*
X3500000Y-21826385D01*
X3500000Y-21826385D02*
X3357142Y-21897814D01*
X3357142Y-21897814D02*
X2857142Y-21897814D01*
X4571428Y-22683528D02*
X4428571Y-22612100D01*
X4428571Y-22612100D02*
X4357142Y-22540671D01*
X4357142Y-22540671D02*
X4285714Y-22397814D01*
X4285714Y-22397814D02*
X4285714Y-21969242D01*
X4285714Y-21969242D02*
X4357142Y-21826385D01*
X4357142Y-21826385D02*
X4428571Y-21754957D01*
X4428571Y-21754957D02*
X4571428Y-21683528D01*
X4571428Y-21683528D02*
X4785714Y-21683528D01*
X4785714Y-21683528D02*
X4928571Y-21754957D01*
X4928571Y-21754957D02*
X5000000Y-21826385D01*
X5000000Y-21826385D02*
X5071428Y-21969242D01*
X5071428Y-21969242D02*
X5071428Y-22397814D01*
X5071428Y-22397814D02*
X5000000Y-22540671D01*
X5000000Y-22540671D02*
X4928571Y-22612100D01*
X4928571Y-22612100D02*
X4785714Y-22683528D01*
X4785714Y-22683528D02*
X4571428Y-22683528D01*
X5928571Y-22683528D02*
X5785714Y-22612100D01*
X5785714Y-22612100D02*
X5714285Y-22469242D01*
X5714285Y-22469242D02*
X5714285Y-21183528D01*
X7142857Y-22683528D02*
X7142857Y-21183528D01*
X7142857Y-22612100D02*
X6999999Y-22683528D01*
X6999999Y-22683528D02*
X6714285Y-22683528D01*
X6714285Y-22683528D02*
X6571428Y-22612100D01*
X6571428Y-22612100D02*
X6499999Y-22540671D01*
X6499999Y-22540671D02*
X6428571Y-22397814D01*
X6428571Y-22397814D02*
X6428571Y-21969242D01*
X6428571Y-21969242D02*
X6499999Y-21826385D01*
X6499999Y-21826385D02*
X6571428Y-21754957D01*
X6571428Y-21754957D02*
X6714285Y-21683528D01*
X6714285Y-21683528D02*
X6999999Y-21683528D01*
X6999999Y-21683528D02*
X7142857Y-21754957D01*
X2491071Y-28683528D02*
X2678571Y-27183528D01*
X3116071Y-27683528D02*
X3687500Y-27683528D01*
X3392857Y-27183528D02*
X3232143Y-28469242D01*
X3232143Y-28469242D02*
X3285714Y-28612100D01*
X3285714Y-28612100D02*
X3419643Y-28683528D01*
X3419643Y-28683528D02*
X3562500Y-28683528D01*
X4705357Y-28683528D02*
X4803571Y-27897814D01*
X4803571Y-27897814D02*
X4750000Y-27754957D01*
X4750000Y-27754957D02*
X4616071Y-27683528D01*
X4616071Y-27683528D02*
X4330357Y-27683528D01*
X4330357Y-27683528D02*
X4178571Y-27754957D01*
X4714286Y-28612100D02*
X4562500Y-28683528D01*
X4562500Y-28683528D02*
X4205357Y-28683528D01*
X4205357Y-28683528D02*
X4071428Y-28612100D01*
X4071428Y-28612100D02*
X4017857Y-28469242D01*
X4017857Y-28469242D02*
X4035714Y-28326385D01*
X4035714Y-28326385D02*
X4125000Y-28183528D01*
X4125000Y-28183528D02*
X4276786Y-28112100D01*
X4276786Y-28112100D02*
X4633928Y-28112100D01*
X4633928Y-28112100D02*
X4785714Y-28040671D01*
X5633929Y-28683528D02*
X5500000Y-28612100D01*
X5500000Y-28612100D02*
X5446429Y-28469242D01*
X5446429Y-28469242D02*
X5607143Y-27183528D01*
X6205357Y-28683528D02*
X6330357Y-27683528D01*
X6392857Y-27183528D02*
X6312500Y-27254957D01*
X6312500Y-27254957D02*
X6375000Y-27326385D01*
X6375000Y-27326385D02*
X6455357Y-27254957D01*
X6455357Y-27254957D02*
X6392857Y-27183528D01*
X6392857Y-27183528D02*
X6375000Y-27326385D01*
X7571429Y-28612100D02*
X7419643Y-28683528D01*
X7419643Y-28683528D02*
X7133929Y-28683528D01*
X7133929Y-28683528D02*
X7000000Y-28612100D01*
X7000000Y-28612100D02*
X6937500Y-28540671D01*
X6937500Y-28540671D02*
X6883929Y-28397814D01*
X6883929Y-28397814D02*
X6937500Y-27969242D01*
X6937500Y-27969242D02*
X7026786Y-27826385D01*
X7026786Y-27826385D02*
X7107143Y-27754957D01*
X7107143Y-27754957D02*
X7258929Y-27683528D01*
X7258929Y-27683528D02*
X7544643Y-27683528D01*
X7544643Y-27683528D02*
X7678571Y-27754957D01*
M02*
