%TF.GenerationSoftware,KiCad,Pcbnew,10.0.5*%
%TF.CreationDate,NORMALIZED*%
%TF.ProjectId,board,626f6172-642e-46b6-9963-61645f706362,rev?*%
%TF.SameCoordinates,Original*%
%TF.FileFunction,Legend,Top*%
%TF.FilePolarity,Positive*%
%FSLAX46Y46*%
G04 Gerber Fmt 4.6, Leading zero omitted, Abs format (unit mm)*
G04 Created by KiCad NORMALIZED*
%MOMM*%
%LPD*%
G01*
G04 APERTURE LIST*
%ADD10C,0.150000*%
G04 APERTURE END LIST*
D10*
X21023810Y-15407200D02*
X21166667Y-15454819D01*
X21166667Y-15454819D02*
X21404762Y-15454819D01*
X21404762Y-15454819D02*
X21500000Y-15407200D01*
X21500000Y-15407200D02*
X21547619Y-15359580D01*
X21547619Y-15359580D02*
X21595238Y-15264342D01*
X21595238Y-15264342D02*
X21595238Y-15169104D01*
X21595238Y-15169104D02*
X21547619Y-15073866D01*
X21547619Y-15073866D02*
X21500000Y-15026247D01*
X21500000Y-15026247D02*
X21404762Y-14978628D01*
X21404762Y-14978628D02*
X21214286Y-14931009D01*
X21214286Y-14931009D02*
X21119048Y-14883390D01*
X21119048Y-14883390D02*
X21071429Y-14835771D01*
X21071429Y-14835771D02*
X21023810Y-14740533D01*
X21023810Y-14740533D02*
X21023810Y-14645295D01*
X21023810Y-14645295D02*
X21071429Y-14550057D01*
X21071429Y-14550057D02*
X21119048Y-14502438D01*
X21119048Y-14502438D02*
X21214286Y-14454819D01*
X21214286Y-14454819D02*
X21452381Y-14454819D01*
X21452381Y-14454819D02*
X21595238Y-14502438D01*
X21309524Y-14311961D02*
X21309524Y-15597676D01*
X22309524Y-15835771D02*
X22261905Y-15835771D01*
X22261905Y-15835771D02*
X22166667Y-15788152D01*
X22166667Y-15788152D02*
X22119048Y-15692914D01*
X22119048Y-15692914D02*
X22119048Y-15216723D01*
X22119048Y-15216723D02*
X22071429Y-15121485D01*
X22071429Y-15121485D02*
X21976191Y-15073866D01*
X21976191Y-15073866D02*
X22071429Y-15026247D01*
X22071429Y-15026247D02*
X22119048Y-14931009D01*
X22119048Y-14931009D02*
X22119048Y-14454819D01*
X22119048Y-14454819D02*
X22166667Y-14359580D01*
X22166667Y-14359580D02*
X22261905Y-14311961D01*
X22261905Y-14311961D02*
X22309524Y-14311961D01*
X22690477Y-15454819D02*
X22690477Y-14454819D01*
X22690477Y-14454819D02*
X23023810Y-15169104D01*
X23023810Y-15169104D02*
X23357143Y-14454819D01*
X23357143Y-14454819D02*
X23357143Y-15454819D01*
X23833334Y-15454819D02*
X23833334Y-14454819D01*
X24261905Y-15407200D02*
X24404762Y-15454819D01*
X24404762Y-15454819D02*
X24642857Y-15454819D01*
X24642857Y-15454819D02*
X24738095Y-15407200D01*
X24738095Y-15407200D02*
X24785714Y-15359580D01*
X24785714Y-15359580D02*
X24833333Y-15264342D01*
X24833333Y-15264342D02*
X24833333Y-15169104D01*
X24833333Y-15169104D02*
X24785714Y-15073866D01*
X24785714Y-15073866D02*
X24738095Y-15026247D01*
X24738095Y-15026247D02*
X24642857Y-14978628D01*
X24642857Y-14978628D02*
X24452381Y-14931009D01*
X24452381Y-14931009D02*
X24357143Y-14883390D01*
X24357143Y-14883390D02*
X24309524Y-14835771D01*
X24309524Y-14835771D02*
X24261905Y-14740533D01*
X24261905Y-14740533D02*
X24261905Y-14645295D01*
X24261905Y-14645295D02*
X24309524Y-14550057D01*
X24309524Y-14550057D02*
X24357143Y-14502438D01*
X24357143Y-14502438D02*
X24452381Y-14454819D01*
X24452381Y-14454819D02*
X24690476Y-14454819D01*
X24690476Y-14454819D02*
X24833333Y-14502438D01*
X25214286Y-15407200D02*
X25357143Y-15454819D01*
X25357143Y-15454819D02*
X25595238Y-15454819D01*
X25595238Y-15454819D02*
X25690476Y-15407200D01*
X25690476Y-15407200D02*
X25738095Y-15359580D01*
X25738095Y-15359580D02*
X25785714Y-15264342D01*
X25785714Y-15264342D02*
X25785714Y-15169104D01*
X25785714Y-15169104D02*
X25738095Y-15073866D01*
X25738095Y-15073866D02*
X25690476Y-15026247D01*
X25690476Y-15026247D02*
X25595238Y-14978628D01*
X25595238Y-14978628D02*
X25404762Y-14931009D01*
X25404762Y-14931009D02*
X25309524Y-14883390D01*
X25309524Y-14883390D02*
X25261905Y-14835771D01*
X25261905Y-14835771D02*
X25214286Y-14740533D01*
X25214286Y-14740533D02*
X25214286Y-14645295D01*
X25214286Y-14645295D02*
X25261905Y-14550057D01*
X25261905Y-14550057D02*
X25309524Y-14502438D01*
X25309524Y-14502438D02*
X25404762Y-14454819D01*
X25404762Y-14454819D02*
X25642857Y-14454819D01*
X25642857Y-14454819D02*
X25785714Y-14502438D01*
X26214286Y-15454819D02*
X26214286Y-14454819D01*
X26690476Y-15454819D02*
X26690476Y-14454819D01*
X26690476Y-14454819D02*
X27261904Y-15454819D01*
X27261904Y-15454819D02*
X27261904Y-14454819D01*
X28261904Y-14502438D02*
X28166666Y-14454819D01*
X28166666Y-14454819D02*
X28023809Y-14454819D01*
X28023809Y-14454819D02*
X27880952Y-14502438D01*
X27880952Y-14502438D02*
X27785714Y-14597676D01*
X27785714Y-14597676D02*
X27738095Y-14692914D01*
X27738095Y-14692914D02*
X27690476Y-14883390D01*
X27690476Y-14883390D02*
X27690476Y-15026247D01*
X27690476Y-15026247D02*
X27738095Y-15216723D01*
X27738095Y-15216723D02*
X27785714Y-15311961D01*
X27785714Y-15311961D02*
X27880952Y-15407200D01*
X27880952Y-15407200D02*
X28023809Y-15454819D01*
X28023809Y-15454819D02*
X28119047Y-15454819D01*
X28119047Y-15454819D02*
X28261904Y-15407200D01*
X28261904Y-15407200D02*
X28309523Y-15359580D01*
X28309523Y-15359580D02*
X28309523Y-15026247D01*
X28309523Y-15026247D02*
X28119047Y-15026247D01*
X28642857Y-15835771D02*
X28690476Y-15835771D01*
X28690476Y-15835771D02*
X28785714Y-15788152D01*
X28785714Y-15788152D02*
X28833333Y-15692914D01*
X28833333Y-15692914D02*
X28833333Y-15216723D01*
X28833333Y-15216723D02*
X28880952Y-15121485D01*
X28880952Y-15121485D02*
X28976190Y-15073866D01*
X28976190Y-15073866D02*
X28880952Y-15026247D01*
X28880952Y-15026247D02*
X28833333Y-14931009D01*
X28833333Y-14931009D02*
X28833333Y-14454819D01*
X28833333Y-14454819D02*
X28785714Y-14359580D01*
X28785714Y-14359580D02*
X28690476Y-14311961D01*
X28690476Y-14311961D02*
X28642857Y-14311961D01*
X22119047Y-20454819D02*
X22119047Y-19788152D01*
X22119047Y-19978628D02*
X22166666Y-19883390D01*
X22166666Y-19883390D02*
X22214285Y-19835771D01*
X22214285Y-19835771D02*
X22309523Y-19788152D01*
X22309523Y-19788152D02*
X22404761Y-19788152D01*
X23119047Y-20407200D02*
X23023809Y-20454819D01*
X23023809Y-20454819D02*
X22833333Y-20454819D01*
X22833333Y-20454819D02*
X22738095Y-20407200D01*
X22738095Y-20407200D02*
X22690476Y-20311961D01*
X22690476Y-20311961D02*
X22690476Y-19931009D01*
X22690476Y-19931009D02*
X22738095Y-19835771D01*
X22738095Y-19835771D02*
X22833333Y-19788152D01*
X22833333Y-19788152D02*
X23023809Y-19788152D01*
X23023809Y-19788152D02*
X23119047Y-19835771D01*
X23119047Y-19835771D02*
X23166666Y-19931009D01*
X23166666Y-19931009D02*
X23166666Y-20026247D01*
X23166666Y-20026247D02*
X22690476Y-20121485D01*
X23547619Y-20407200D02*
X23642857Y-20454819D01*
X23642857Y-20454819D02*
X23833333Y-20454819D01*
X23833333Y-20454819D02*
X23928571Y-20407200D01*
X23928571Y-20407200D02*
X23976190Y-20311961D01*
X23976190Y-20311961D02*
X23976190Y-20264342D01*
X23976190Y-20264342D02*
X23928571Y-20169104D01*
X23928571Y-20169104D02*
X23833333Y-20121485D01*
X23833333Y-20121485D02*
X23690476Y-20121485D01*
X23690476Y-20121485D02*
X23595238Y-20073866D01*
X23595238Y-20073866D02*
X23547619Y-19978628D01*
X23547619Y-19978628D02*
X23547619Y-19931009D01*
X23547619Y-19931009D02*
X23595238Y-19835771D01*
X23595238Y-19835771D02*
X23690476Y-19788152D01*
X23690476Y-19788152D02*
X23833333Y-19788152D01*
X23833333Y-19788152D02*
X23928571Y-19835771D01*
X24547619Y-20454819D02*
X24452381Y-20407200D01*
X24452381Y-20407200D02*
X24404762Y-20359580D01*
X24404762Y-20359580D02*
X24357143Y-20264342D01*
X24357143Y-20264342D02*
X24357143Y-19978628D01*
X24357143Y-19978628D02*
X24404762Y-19883390D01*
X24404762Y-19883390D02*
X24452381Y-19835771D01*
X24452381Y-19835771D02*
X24547619Y-19788152D01*
X24547619Y-19788152D02*
X24690476Y-19788152D01*
X24690476Y-19788152D02*
X24785714Y-19835771D01*
X24785714Y-19835771D02*
X24833333Y-19883390D01*
X24833333Y-19883390D02*
X24880952Y-19978628D01*
X24880952Y-19978628D02*
X24880952Y-20264342D01*
X24880952Y-20264342D02*
X24833333Y-20359580D01*
X24833333Y-20359580D02*
X24785714Y-20407200D01*
X24785714Y-20407200D02*
X24690476Y-20454819D01*
X24690476Y-20454819D02*
X24547619Y-20454819D01*
X25452381Y-20454819D02*
X25357143Y-20407200D01*
X25357143Y-20407200D02*
X25309524Y-20311961D01*
X25309524Y-20311961D02*
X25309524Y-19454819D01*
X25738096Y-19788152D02*
X25976191Y-20454819D01*
X25976191Y-20454819D02*
X26214286Y-19788152D01*
X26976191Y-20407200D02*
X26880953Y-20454819D01*
X26880953Y-20454819D02*
X26690477Y-20454819D01*
X26690477Y-20454819D02*
X26595239Y-20407200D01*
X26595239Y-20407200D02*
X26547620Y-20311961D01*
X26547620Y-20311961D02*
X26547620Y-19931009D01*
X26547620Y-19931009D02*
X26595239Y-19835771D01*
X26595239Y-19835771D02*
X26690477Y-19788152D01*
X26690477Y-19788152D02*
X26880953Y-19788152D01*
X26880953Y-19788152D02*
X26976191Y-19835771D01*
X26976191Y-19835771D02*
X27023810Y-19931009D01*
X27023810Y-19931009D02*
X27023810Y-20026247D01*
X27023810Y-20026247D02*
X26547620Y-20121485D01*
X27880953Y-20454819D02*
X27880953Y-19454819D01*
X27880953Y-20407200D02*
X27785715Y-20454819D01*
X27785715Y-20454819D02*
X27595239Y-20454819D01*
X27595239Y-20454819D02*
X27500001Y-20407200D01*
X27500001Y-20407200D02*
X27452382Y-20359580D01*
X27452382Y-20359580D02*
X27404763Y-20264342D01*
X27404763Y-20264342D02*
X27404763Y-19978628D01*
X27404763Y-19978628D02*
X27452382Y-19883390D01*
X27452382Y-19883390D02*
X27500001Y-19835771D01*
X27500001Y-19835771D02*
X27595239Y-19788152D01*
X27595239Y-19788152D02*
X27785715Y-19788152D01*
X27785715Y-19788152D02*
X27880953Y-19835771D01*
M02*
