%TF.GenerationSoftware,KiCad,Pcbnew,10.0.5*%
%TF.CreationDate,NORMALIZED*%
%TF.ProjectId,board,626f6172-642e-46b6-9963-61645f706362,rev?*%
%TF.SameCoordinates,Original*%
%TF.FileFunction,Legend,Top*%
%TF.FilePolarity,Positive*%
%FSLAX46Y46*%
G04 Gerber Fmt 4.6, Leading zero omitted, Abs format (unit mm)*
G04 Created by KiCad NORMALIZED*
%MOMM*%
%LPD*%
G01*
G04 APERTURE LIST*
%ADD10C,0.150000*%
G04 APERTURE END LIST*
D10*
X9833333Y-10454819D02*
X9500000Y-9978628D01*
X9261905Y-10454819D02*
X9261905Y-9454819D01*
X9261905Y-9454819D02*
X9642857Y-9454819D01*
X9642857Y-9454819D02*
X9738095Y-9502438D01*
X9738095Y-9502438D02*
X9785714Y-9550057D01*
X9785714Y-9550057D02*
X9833333Y-9645295D01*
X9833333Y-9645295D02*
X9833333Y-9788152D01*
X9833333Y-9788152D02*
X9785714Y-9883390D01*
X9785714Y-9883390D02*
X9738095Y-9931009D01*
X9738095Y-9931009D02*
X9642857Y-9978628D01*
X9642857Y-9978628D02*
X9261905Y-9978628D01*
X10785714Y-10454819D02*
X10214286Y-10454819D01*
X10500000Y-10454819D02*
X10500000Y-9454819D01*
X10500000Y-9454819D02*
X10404762Y-9597676D01*
X10404762Y-9597676D02*
X10309524Y-9692914D01*
X10309524Y-9692914D02*
X10214286Y-9740533D01*
X11507142Y-10454819D02*
X11173809Y-9978628D01*
X10935714Y-10454819D02*
X10935714Y-9454819D01*
X10935714Y-9454819D02*
X11316666Y-9454819D01*
X11316666Y-9454819D02*
X11411904Y-9502438D01*
X11411904Y-9502438D02*
X11459523Y-9550057D01*
X11459523Y-9550057D02*
X11507142Y-9645295D01*
X11507142Y-9645295D02*
X11507142Y-9788152D01*
X11507142Y-9788152D02*
X11459523Y-9883390D01*
X11459523Y-9883390D02*
X11411904Y-9931009D01*
X11411904Y-9931009D02*
X11316666Y-9978628D01*
X11316666Y-9978628D02*
X10935714Y-9978628D01*
X11888095Y-9550057D02*
X11935714Y-9502438D01*
X11935714Y-9502438D02*
X12030952Y-9454819D01*
X12030952Y-9454819D02*
X12269047Y-9454819D01*
X12269047Y-9454819D02*
X12364285Y-9502438D01*
X12364285Y-9502438D02*
X12411904Y-9550057D01*
X12411904Y-9550057D02*
X12459523Y-9645295D01*
X12459523Y-9645295D02*
X12459523Y-9740533D01*
X12459523Y-9740533D02*
X12411904Y-9883390D01*
X12411904Y-9883390D02*
X11840476Y-10454819D01*
X11840476Y-10454819D02*
X12459523Y-10454819D01*
M02*
