%TF.GenerationSoftware,KiCad,Pcbnew,10.0.5*%
%TF.CreationDate,NORMALIZED*%
%TF.ProjectId,board,626f6172-642e-46b6-9963-61645f706362,rev?*%
%TF.SameCoordinates,Original*%
%TF.FileFunction,AssemblyDrawing,Top*%
%FSLAX46Y46*%
G04 Gerber Fmt 4.6, Leading zero omitted, Abs format (unit mm)*
G04 Created by KiCad NORMALIZED*
%MOMM*%
%LPD*%
G01*
G04 APERTURE LIST*
%ADD10C,0.150000*%
G04 APERTURE END LIST*
D10*
X1666666Y-7454819D02*
X2238094Y-7454819D01*
X1952380Y-8454819D02*
X1952380Y-7454819D01*
X2952380Y-8407200D02*
X2857142Y-8454819D01*
X2857142Y-8454819D02*
X2666666Y-8454819D01*
X2666666Y-8454819D02*
X2571428Y-8407200D01*
X2571428Y-8407200D02*
X2523809Y-8311961D01*
X2523809Y-8311961D02*
X2523809Y-7931009D01*
X2523809Y-7931009D02*
X2571428Y-7835771D01*
X2571428Y-7835771D02*
X2666666Y-7788152D01*
X2666666Y-7788152D02*
X2857142Y-7788152D01*
X2857142Y-7788152D02*
X2952380Y-7835771D01*
X2952380Y-7835771D02*
X2999999Y-7931009D01*
X2999999Y-7931009D02*
X2999999Y-8026247D01*
X2999999Y-8026247D02*
X2523809Y-8121485D01*
X3380952Y-8407200D02*
X3476190Y-8454819D01*
X3476190Y-8454819D02*
X3666666Y-8454819D01*
X3666666Y-8454819D02*
X3761904Y-8407200D01*
X3761904Y-8407200D02*
X3809523Y-8311961D01*
X3809523Y-8311961D02*
X3809523Y-8264342D01*
X3809523Y-8264342D02*
X3761904Y-8169104D01*
X3761904Y-8169104D02*
X3666666Y-8121485D01*
X3666666Y-8121485D02*
X3523809Y-8121485D01*
X3523809Y-8121485D02*
X3428571Y-8073866D01*
X3428571Y-8073866D02*
X3380952Y-7978628D01*
X3380952Y-7978628D02*
X3380952Y-7931009D01*
X3380952Y-7931009D02*
X3428571Y-7835771D01*
X3428571Y-7835771D02*
X3523809Y-7788152D01*
X3523809Y-7788152D02*
X3666666Y-7788152D01*
X3666666Y-7788152D02*
X3761904Y-7835771D01*
X4095238Y-7788152D02*
X4476190Y-7788152D01*
X4238095Y-7454819D02*
X4238095Y-8311961D01*
X4238095Y-8311961D02*
X4285714Y-8407200D01*
X4285714Y-8407200D02*
X4380952Y-8454819D01*
X4380952Y-8454819D02*
X4476190Y-8454819D01*
X4809524Y-8454819D02*
X4809524Y-7454819D01*
X4809524Y-7454819D02*
X5190476Y-7454819D01*
X5190476Y-7454819D02*
X5285714Y-7502438D01*
X5285714Y-7502438D02*
X5333333Y-7550057D01*
X5333333Y-7550057D02*
X5380952Y-7645295D01*
X5380952Y-7645295D02*
X5380952Y-7788152D01*
X5380952Y-7788152D02*
X5333333Y-7883390D01*
X5333333Y-7883390D02*
X5285714Y-7931009D01*
X5285714Y-7931009D02*
X5190476Y-7978628D01*
X5190476Y-7978628D02*
X4809524Y-7978628D01*
X5952381Y-8454819D02*
X5857143Y-8407200D01*
X5857143Y-8407200D02*
X5809524Y-8359580D01*
X5809524Y-8359580D02*
X5761905Y-8264342D01*
X5761905Y-8264342D02*
X5761905Y-7978628D01*
X5761905Y-7978628D02*
X5809524Y-7883390D01*
X5809524Y-7883390D02*
X5857143Y-7835771D01*
X5857143Y-7835771D02*
X5952381Y-7788152D01*
X5952381Y-7788152D02*
X6095238Y-7788152D01*
X6095238Y-7788152D02*
X6190476Y-7835771D01*
X6190476Y-7835771D02*
X6238095Y-7883390D01*
X6238095Y-7883390D02*
X6285714Y-7978628D01*
X6285714Y-7978628D02*
X6285714Y-8264342D01*
X6285714Y-8264342D02*
X6238095Y-8359580D01*
X6238095Y-8359580D02*
X6190476Y-8407200D01*
X6190476Y-8407200D02*
X6095238Y-8454819D01*
X6095238Y-8454819D02*
X5952381Y-8454819D01*
X6714286Y-8454819D02*
X6714286Y-7788152D01*
X6714286Y-7454819D02*
X6666667Y-7502438D01*
X6666667Y-7502438D02*
X6714286Y-7550057D01*
X6714286Y-7550057D02*
X6761905Y-7502438D01*
X6761905Y-7502438D02*
X6714286Y-7454819D01*
X6714286Y-7454819D02*
X6714286Y-7550057D01*
X7190476Y-7788152D02*
X7190476Y-8454819D01*
X7190476Y-7883390D02*
X7238095Y-7835771D01*
X7238095Y-7835771D02*
X7333333Y-7788152D01*
X7333333Y-7788152D02*
X7476190Y-7788152D01*
X7476190Y-7788152D02*
X7571428Y-7835771D01*
X7571428Y-7835771D02*
X7619047Y-7931009D01*
X7619047Y-7931009D02*
X7619047Y-8454819D01*
X7952381Y-7788152D02*
X8333333Y-7788152D01*
X8095238Y-7454819D02*
X8095238Y-8311961D01*
X8095238Y-8311961D02*
X8142857Y-8407200D01*
X8142857Y-8407200D02*
X8238095Y-8454819D01*
X8238095Y-8454819D02*
X8333333Y-8454819D01*
X8595236Y-8359580D02*
X8547617Y-8407200D01*
X8547617Y-8407200D02*
X8404760Y-8454819D01*
X8404760Y-8454819D02*
X8309522Y-8454819D01*
X8309522Y-8454819D02*
X8166665Y-8407200D01*
X8166665Y-8407200D02*
X8071427Y-8311961D01*
X8071427Y-8311961D02*
X8023808Y-8216723D01*
X8023808Y-8216723D02*
X7976189Y-8026247D01*
X7976189Y-8026247D02*
X7976189Y-7883390D01*
X7976189Y-7883390D02*
X8023808Y-7692914D01*
X8023808Y-7692914D02*
X8071427Y-7597676D01*
X8071427Y-7597676D02*
X8166665Y-7502438D01*
X8166665Y-7502438D02*
X8309522Y-7454819D01*
X8309522Y-7454819D02*
X8404760Y-7454819D01*
X8404760Y-7454819D02*
X8547617Y-7502438D01*
X8547617Y-7502438D02*
X8595236Y-7550057D01*
X9452379Y-8454819D02*
X9452379Y-7931009D01*
X9452379Y-7931009D02*
X9404760Y-7835771D01*
X9404760Y-7835771D02*
X9309522Y-7788152D01*
X9309522Y-7788152D02*
X9119046Y-7788152D01*
X9119046Y-7788152D02*
X9023808Y-7835771D01*
X9452379Y-8407200D02*
X9357141Y-8454819D01*
X9357141Y-8454819D02*
X9119046Y-8454819D01*
X9119046Y-8454819D02*
X9023808Y-8407200D01*
X9023808Y-8407200D02*
X8976189Y-8311961D01*
X8976189Y-8311961D02*
X8976189Y-8216723D01*
X8976189Y-8216723D02*
X9023808Y-8121485D01*
X9023808Y-8121485D02*
X9119046Y-8073866D01*
X9119046Y-8073866D02*
X9357141Y-8073866D01*
X9357141Y-8073866D02*
X9452379Y-8026247D01*
X9880951Y-8407200D02*
X9976189Y-8454819D01*
X9976189Y-8454819D02*
X10166665Y-8454819D01*
X10166665Y-8454819D02*
X10261903Y-8407200D01*
X10261903Y-8407200D02*
X10309522Y-8311961D01*
X10309522Y-8311961D02*
X10309522Y-8264342D01*
X10309522Y-8264342D02*
X10261903Y-8169104D01*
X10261903Y-8169104D02*
X10166665Y-8121485D01*
X10166665Y-8121485D02*
X10023808Y-8121485D01*
X10023808Y-8121485D02*
X9928570Y-8073866D01*
X9928570Y-8073866D02*
X9880951Y-7978628D01*
X9880951Y-7978628D02*
X9880951Y-7931009D01*
X9880951Y-7931009D02*
X9928570Y-7835771D01*
X9928570Y-7835771D02*
X10023808Y-7788152D01*
X10023808Y-7788152D02*
X10166665Y-7788152D01*
X10166665Y-7788152D02*
X10261903Y-7835771D01*
X10595237Y-7788152D02*
X10976189Y-7788152D01*
X10738094Y-7454819D02*
X10738094Y-8311961D01*
X10738094Y-8311961D02*
X10785713Y-8407200D01*
X10785713Y-8407200D02*
X10880951Y-8454819D01*
X10880951Y-8454819D02*
X10976189Y-8454819D01*
X11690475Y-8407200D02*
X11595237Y-8454819D01*
X11595237Y-8454819D02*
X11404761Y-8454819D01*
X11404761Y-8454819D02*
X11309523Y-8407200D01*
X11309523Y-8407200D02*
X11261904Y-8311961D01*
X11261904Y-8311961D02*
X11261904Y-7931009D01*
X11261904Y-7931009D02*
X11309523Y-7835771D01*
X11309523Y-7835771D02*
X11404761Y-7788152D01*
X11404761Y-7788152D02*
X11595237Y-7788152D01*
X11595237Y-7788152D02*
X11690475Y-7835771D01*
X11690475Y-7835771D02*
X11738094Y-7931009D01*
X11738094Y-7931009D02*
X11738094Y-8026247D01*
X11738094Y-8026247D02*
X11261904Y-8121485D01*
X12309523Y-8454819D02*
X12214285Y-8407200D01*
X12214285Y-8407200D02*
X12166666Y-8311961D01*
X12166666Y-8311961D02*
X12166666Y-7454819D01*
X12833333Y-8454819D02*
X12738095Y-8407200D01*
X12738095Y-8407200D02*
X12690476Y-8311961D01*
X12690476Y-8311961D02*
X12690476Y-7454819D01*
X13642857Y-8454819D02*
X13642857Y-7931009D01*
X13642857Y-7931009D02*
X13595238Y-7835771D01*
X13595238Y-7835771D02*
X13500000Y-7788152D01*
X13500000Y-7788152D02*
X13309524Y-7788152D01*
X13309524Y-7788152D02*
X13214286Y-7835771D01*
X13642857Y-8407200D02*
X13547619Y-8454819D01*
X13547619Y-8454819D02*
X13309524Y-8454819D01*
X13309524Y-8454819D02*
X13214286Y-8407200D01*
X13214286Y-8407200D02*
X13166667Y-8311961D01*
X13166667Y-8311961D02*
X13166667Y-8216723D01*
X13166667Y-8216723D02*
X13214286Y-8121485D01*
X13214286Y-8121485D02*
X13309524Y-8073866D01*
X13309524Y-8073866D02*
X13547619Y-8073866D01*
X13547619Y-8073866D02*
X13642857Y-8026247D01*
X13976191Y-7788152D02*
X14357143Y-7788152D01*
X14119048Y-7454819D02*
X14119048Y-8311961D01*
X14119048Y-8311961D02*
X14166667Y-8407200D01*
X14166667Y-8407200D02*
X14261905Y-8454819D01*
X14261905Y-8454819D02*
X14357143Y-8454819D01*
X15071429Y-8407200D02*
X14976191Y-8454819D01*
X14976191Y-8454819D02*
X14785715Y-8454819D01*
X14785715Y-8454819D02*
X14690477Y-8407200D01*
X14690477Y-8407200D02*
X14642858Y-8311961D01*
X14642858Y-8311961D02*
X14642858Y-7931009D01*
X14642858Y-7931009D02*
X14690477Y-7835771D01*
X14690477Y-7835771D02*
X14785715Y-7788152D01*
X14785715Y-7788152D02*
X14976191Y-7788152D01*
X14976191Y-7788152D02*
X15071429Y-7835771D01*
X15071429Y-7835771D02*
X15119048Y-7931009D01*
X15119048Y-7931009D02*
X15119048Y-8026247D01*
X15119048Y-8026247D02*
X14642858Y-8121485D01*
X15976191Y-8454819D02*
X15976191Y-7454819D01*
X15976191Y-8407200D02*
X15880953Y-8454819D01*
X15880953Y-8454819D02*
X15690477Y-8454819D01*
X15690477Y-8454819D02*
X15595239Y-8407200D01*
X15595239Y-8407200D02*
X15547620Y-8359580D01*
X15547620Y-8359580D02*
X15500001Y-8264342D01*
X15500001Y-8264342D02*
X15500001Y-7978628D01*
X15500001Y-7978628D02*
X15547620Y-7883390D01*
X15547620Y-7883390D02*
X15595239Y-7835771D01*
X15595239Y-7835771D02*
X15690477Y-7788152D01*
X15690477Y-7788152D02*
X15880953Y-7788152D01*
X15880953Y-7788152D02*
X15976191Y-7835771D01*
M02*
