%TF.GenerationSoftware,KiCad,Pcbnew,10.0.5*%
%TF.CreationDate,NORMALIZED*%
%TF.ProjectId,board,626f6172-642e-46b6-9963-61645f706362,rev?*%
%TF.SameCoordinates,Original*%
%TF.FileFunction,Profile,NP*%
%FSLAX46Y46*%
G04 Gerber Fmt 4.6, Leading zero omitted, Abs format (unit mm)*
G04 Created by KiCad NORMALIZED*
%MOMM*%
%LPD*%
G01*
G04 APERTURE LIST*
%TA.AperFunction,Profile*%
%ADD10C,0.100000*%
%TD*%
%ADD11C,0.150000*%
G04 APERTURE END LIST*
D10*
X0Y0D02*
X20000000Y0D01*
X20000000Y-20000000D01*
X0Y-20000000D01*
X0Y0D01*
D11*
X7928571Y-10454819D02*
X7928571Y-9454819D01*
X7928571Y-9931009D02*
X8499999Y-9931009D01*
X8499999Y-10454819D02*
X8499999Y-9454819D01*
X8976190Y-9931009D02*
X9309523Y-9931009D01*
X9452380Y-10454819D02*
X8976190Y-10454819D01*
X8976190Y-10454819D02*
X8976190Y-9454819D01*
X8976190Y-9454819D02*
X9452380Y-9454819D01*
X10357142Y-10454819D02*
X9880952Y-10454819D01*
X9880952Y-10454819D02*
X9880952Y-9454819D01*
X11166666Y-10454819D02*
X10690476Y-10454819D01*
X10690476Y-10454819D02*
X10690476Y-9454819D01*
X11690476Y-9454819D02*
X11880952Y-9454819D01*
X11880952Y-9454819D02*
X11976190Y-9502438D01*
X11976190Y-9502438D02*
X12071428Y-9597676D01*
X12071428Y-9597676D02*
X12119047Y-9788152D01*
X12119047Y-9788152D02*
X12119047Y-10121485D01*
X12119047Y-10121485D02*
X12071428Y-10311961D01*
X12071428Y-10311961D02*
X11976190Y-10407200D01*
X11976190Y-10407200D02*
X11880952Y-10454819D01*
X11880952Y-10454819D02*
X11690476Y-10454819D01*
X11690476Y-10454819D02*
X11595238Y-10407200D01*
X11595238Y-10407200D02*
X11500000Y-10311961D01*
X11500000Y-10311961D02*
X11452381Y-10121485D01*
X11452381Y-10121485D02*
X11452381Y-9788152D01*
X11452381Y-9788152D02*
X11500000Y-9597676D01*
X11500000Y-9597676D02*
X11595238Y-9502438D01*
X11595238Y-9502438D02*
X11690476Y-9454819D01*
M02*
