<?xml version="1.0" standalone="no"?>
 <!DOCTYPE svg PUBLIC "-//W3C//DTD SVG 1.1//EN" 
 "http://www.w3.org/Graphics/SVG/1.1/DTD/svg11.dtd"> 
<svg
  xmlns:svg="http://www.w3.org/2000/svg"
  xmlns="http://www.w3.org/2000/svg"
  xmlns:xlink="http://www.w3.org/1999/xlink"
  xmlns:inkscape="http://www.inkscape.org/namespaces/inkscape"
  version="1.1"
  width="16.5354mm" height="12.2936mm" viewBox="0.0000 0.0000 16.5354 12.2936">
<title>NORMALIZED</title>
  <desc>NORMALIZED</desc>
<g style="fill:#000000; fill-opacity:1.0000;stroke:#000000; stroke-opacity:1.0000;
stroke-linecap:round; stroke-linejoin:round;"
 transform="translate(0 0) scale(1 1)">
</g>
<g style="fill:none; 
stroke:#000000; stroke-width:0.1500; stroke-opacity:1; 
stroke-linecap:round; stroke-linejoin:round;">
<text x="7.3452" y="1.4500"
textLength="9.2024" font-size="1.3333" lengthAdjust="spacingAndGlyphs"
text-anchor="start" opacity="0" stroke-opacity="0">left-bottom</text>
<g class="stroked-text"><desc>NORMALIZED</desc>
<path d="M7.8249 1.3198
L7.7296 1.2722
" />
<path d="M7.7296 1.2722
L7.6820 1.1770
" />
<path d="M7.6820 1.1770
L7.6820 0.3198
" />
<path d="M8.5868 1.2722
L8.4915 1.3198
" />
<path d="M8.4915 1.3198
L8.3011 1.3198
" />
<path d="M8.3011 1.3198
L8.2058 1.2722
" />
<path d="M8.2058 1.2722
L8.1582 1.1770
" />
<path d="M8.1582 1.1770
L8.1582 0.7960
" />
<path d="M8.1582 0.7960
L8.2058 0.7008
" />
<path d="M8.2058 0.7008
L8.3011 0.6532
" />
<path d="M8.3011 0.6532
L8.4915 0.6532
" />
<path d="M8.4915 0.6532
L8.5868 0.7008
" />
<path d="M8.5868 0.7008
L8.6344 0.7960
" />
<path d="M8.6344 0.7960
L8.6344 0.8912
" />
<path d="M8.6344 0.8912
L8.1582 0.9865
" />
<path d="M8.9201 0.6532
L9.3011 0.6532
" />
<path d="M9.0630 1.3198
L9.0630 0.4627
" />
<path d="M9.0630 0.4627
L9.1106 0.3674
" />
<path d="M9.1106 0.3674
L9.2058 0.3198
" />
<path d="M9.2058 0.3198
L9.3011 0.3198
" />
<path d="M9.4915 0.6532
L9.8725 0.6532
" />
<path d="M9.6344 0.3198
L9.6344 1.1770
" />
<path d="M9.6344 1.1770
L9.6820 1.2722
" />
<path d="M9.6820 1.2722
L9.7773 1.3198
" />
<path d="M9.7773 1.3198
L9.8725 1.3198
" />
<path d="M10.2058 0.9389
L10.9677 0.9389
" />
<path d="M11.4439 1.3198
L11.4439 0.3198
" />
<path d="M11.4439 0.7008
L11.5392 0.6532
" />
<path d="M11.5392 0.6532
L11.7296 0.6532
" />
<path d="M11.7296 0.6532
L11.8249 0.7008
" />
<path d="M11.8249 0.7008
L11.8725 0.7484
" />
<path d="M11.8725 0.7484
L11.9201 0.8436
" />
<path d="M11.9201 0.8436
L11.9201 1.1293
" />
<path d="M11.9201 1.1293
L11.8725 1.2246
" />
<path d="M11.8725 1.2246
L11.8249 1.2722
" />
<path d="M11.8249 1.2722
L11.7296 1.3198
" />
<path d="M11.7296 1.3198
L11.5392 1.3198
" />
<path d="M11.5392 1.3198
L11.4439 1.2722
" />
<path d="M12.4915 1.3198
L12.3963 1.2722
" />
<path d="M12.3963 1.2722
L12.3487 1.2246
" />
<path d="M12.3487 1.2246
L12.3011 1.1293
" />
<path d="M12.3011 1.1293
L12.3011 0.8436
" />
<path d="M12.3011 0.8436
L12.3487 0.7484
" />
<path d="M12.3487 0.7484
L12.3963 0.7008
" />
<path d="M12.3963 0.7008
L12.4915 0.6532
" />
<path d="M12.4915 0.6532
L12.6344 0.6532
" />
<path d="M12.6344 0.6532
L12.7296 0.7008
" />
<path d="M12.7296 0.7008
L12.7773 0.7484
" />
<path d="M12.7773 0.7484
L12.8249 0.8436
" />
<path d="M12.8249 0.8436
L12.8249 1.1293
" />
<path d="M12.8249 1.1293
L12.7773 1.2246
" />
<path d="M12.7773 1.2246
L12.7296 1.2722
" />
<path d="M12.7296 1.2722
L12.6344 1.3198
" />
<path d="M12.6344 1.3198
L12.4915 1.3198
" />
<path d="M13.1106 0.6532
L13.4915 0.6532
" />
<path d="M13.2534 0.3198
L13.2534 1.1770
" />
<path d="M13.2534 1.1770
L13.3011 1.2722
" />
<path d="M13.3011 1.2722
L13.3963 1.3198
" />
<path d="M13.3963 1.3198
L13.4915 1.3198
" />
<path d="M13.6820 0.6532
L14.0630 0.6532
" />
<path d="M13.8249 0.3198
L13.8249 1.1770
" />
<path d="M13.8249 1.1770
L13.8725 1.2722
" />
<path d="M13.8725 1.2722
L13.9677 1.3198
" />
<path d="M13.9677 1.3198
L14.0630 1.3198
" />
<path d="M14.5392 1.3198
L14.4439 1.2722
" />
<path d="M14.4439 1.2722
L14.3963 1.2246
" />
<path d="M14.3963 1.2246
L14.3487 1.1293
" />
<path d="M14.3487 1.1293
L14.3487 0.8436
" />
<path d="M14.3487 0.8436
L14.3963 0.7484
" />
<path d="M14.3963 0.7484
L14.4439 0.7008
" />
<path d="M14.4439 0.7008
L14.5392 0.6532
" />
<path d="M14.5392 0.6532
L14.6820 0.6532
" />
<path d="M14.6820 0.6532
L14.7773 0.7008
" />
<path d="M14.7773 0.7008
L14.8249 0.7484
" />
<path d="M14.8249 0.7484
L14.8725 0.8436
" />
<path d="M14.8725 0.8436
L14.8725 1.1293
" />
<path d="M14.8725 1.1293
L14.8249 1.2246
" />
<path d="M14.8249 1.2246
L14.7773 1.2722
" />
<path d="M14.7773 1.2722
L14.6820 1.3198
" />
<path d="M14.6820 1.3198
L14.5392 1.3198
" />
<path d="M15.3011 1.3198
L15.3011 0.6532
" />
<path d="M15.3011 0.7484
L15.3487 0.7008
" />
<path d="M15.3487 0.7008
L15.4439 0.6532
" />
<path d="M15.4439 0.6532
L15.5868 0.6532
" />
<path d="M15.5868 0.6532
L15.6820 0.7008
" />
<path d="M15.6820 0.7008
L15.7296 0.7960
" />
<path d="M15.7296 0.7960
L15.7296 1.3198
" />
<path d="M15.7296 0.7960
L15.7773 0.7008
" />
<path d="M15.7773 0.7008
L15.8725 0.6532
" />
<path d="M15.8725 0.6532
L16.0154 0.6532
" />
<path d="M16.0154 0.6532
L16.1106 0.7008
" />
<path d="M16.1106 0.7008
L16.1582 0.7960
" />
<path d="M16.1582 0.7960
L16.1582 1.3198
" />
</g><text x="7.3452" y="7.4500"
textLength="7.3452" font-size="1.3333" lengthAdjust="spacingAndGlyphs"
text-anchor="end" opacity="0" stroke-opacity="0">right-top</text>
<g class="stroked-text"><desc>NORMALIZED</desc>
<path d="M0.3894 7.4898
L0.3894 6.8232
" />
<path d="M0.3894 7.0136
L0.4370 6.9184
" />
<path d="M0.4370 6.9184
L0.4846 6.8708
" />
<path d="M0.4846 6.8708
L0.5799 6.8232
" />
<path d="M0.5799 6.8232
L0.6751 6.8232
" />
<path d="M1.0085 7.4898
L1.0085 6.8232
" />
<path d="M1.0085 6.4898
L0.9608 6.5374
" />
<path d="M0.9608 6.5374
L1.0085 6.5851
" />
<path d="M1.0085 6.5851
L1.0561 6.5374
" />
<path d="M1.0561 6.5374
L1.0085 6.4898
" />
<path d="M1.0085 6.4898
L1.0085 6.5851
" />
<path d="M1.9132 6.8232
L1.9132 7.6327
" />
<path d="M1.9132 7.6327
L1.8656 7.7279
" />
<path d="M1.8656 7.7279
L1.8180 7.7755
" />
<path d="M1.8180 7.7755
L1.7227 7.8232
" />
<path d="M1.7227 7.8232
L1.5799 7.8232
" />
<path d="M1.5799 7.8232
L1.4846 7.7755
" />
<path d="M1.9132 7.4422
L1.8180 7.4898
" />
<path d="M1.8180 7.4898
L1.6275 7.4898
" />
<path d="M1.6275 7.4898
L1.5323 7.4422
" />
<path d="M1.5323 7.4422
L1.4846 7.3946
" />
<path d="M1.4846 7.3946
L1.4370 7.2993
" />
<path d="M1.4370 7.2993
L1.4370 7.0136
" />
<path d="M1.4370 7.0136
L1.4846 6.9184
" />
<path d="M1.4846 6.9184
L1.5323 6.8708
" />
<path d="M1.5323 6.8708
L1.6275 6.8232
" />
<path d="M1.6275 6.8232
L1.8180 6.8232
" />
<path d="M1.8180 6.8232
L1.9132 6.8708
" />
<path d="M2.3894 7.4898
L2.3894 6.4898
" />
<path d="M2.8180 7.4898
L2.8180 6.9660
" />
<path d="M2.8180 6.9660
L2.7704 6.8708
" />
<path d="M2.7704 6.8708
L2.6751 6.8232
" />
<path d="M2.6751 6.8232
L2.5323 6.8232
" />
<path d="M2.5323 6.8232
L2.4370 6.8708
" />
<path d="M2.4370 6.8708
L2.3894 6.9184
" />
<path d="M3.1513 6.8232
L3.5323 6.8232
" />
<path d="M3.2942 6.4898
L3.2942 7.3470
" />
<path d="M3.2942 7.3470
L3.3418 7.4422
" />
<path d="M3.3418 7.4422
L3.4370 7.4898
" />
<path d="M3.4370 7.4898
L3.5323 7.4898
" />
<path d="M3.8656 7.1089
L4.6275 7.1089
" />
<path d="M4.9608 6.8232
L5.3418 6.8232
" />
<path d="M5.1037 6.4898
L5.1037 7.3470
" />
<path d="M5.1037 7.3470
L5.1513 7.4422
" />
<path d="M5.1513 7.4422
L5.2466 7.4898
" />
<path d="M5.2466 7.4898
L5.3418 7.4898
" />
<path d="M5.8180 7.4898
L5.7227 7.4422
" />
<path d="M5.7227 7.4422
L5.6751 7.3946
" />
<path d="M5.6751 7.3946
L5.6275 7.2993
" />
<path d="M5.6275 7.2993
L5.6275 7.0136
" />
<path d="M5.6275 7.0136
L5.6751 6.9184
" />
<path d="M5.6751 6.9184
L5.7227 6.8708
" />
<path d="M5.7227 6.8708
L5.8180 6.8232
" />
<path d="M5.8180 6.8232
L5.9608 6.8232
" />
<path d="M5.9608 6.8232
L6.0561 6.8708
" />
<path d="M6.0561 6.8708
L6.1037 6.9184
" />
<path d="M6.1037 6.9184
L6.1513 7.0136
" />
<path d="M6.1513 7.0136
L6.1513 7.2993
" />
<path d="M6.1513 7.2993
L6.1037 7.3946
" />
<path d="M6.1037 7.3946
L6.0561 7.4422
" />
<path d="M6.0561 7.4422
L5.9608 7.4898
" />
<path d="M5.9608 7.4898
L5.8180 7.4898
" />
<path d="M6.5799 6.8232
L6.5799 7.8232
" />
<path d="M6.5799 6.8708
L6.6751 6.8232
" />
<path d="M6.6751 6.8232
L6.8656 6.8232
" />
<path d="M6.8656 6.8232
L6.9608 6.8708
" />
<path d="M6.9608 6.8708
L7.0085 6.9184
" />
<path d="M7.0085 6.9184
L7.0561 7.0136
" />
<path d="M7.0561 7.0136
L7.0561 7.2993
" />
<path d="M7.0561 7.2993
L7.0085 7.3946
" />
<path d="M7.0085 7.3946
L6.9608 7.4422
" />
<path d="M6.9608 7.4422
L6.8656 7.4898
" />
<path d="M6.8656 7.4898
L6.6751 7.4898
" />
<path d="M6.6751 7.4898
L6.5799 7.4422
" />
</g><text x="7.3452" y="11.9500"
textLength="6.6786" font-size="1.3333" lengthAdjust="spacingAndGlyphs"
text-anchor="middle" opacity="0" stroke-opacity="0">centered</text>
<g class="stroked-text"><desc>NORMALIZED</desc>
<path d="M4.7976 11.8572
L4.7024 11.9048
" />
<path d="M4.7024 11.9048
L4.5119 11.9048
" />
<path d="M4.5119 11.9048
L4.4167 11.8572
" />
<path d="M4.4167 11.8572
L4.3690 11.8096
" />
<path d="M4.3690 11.8096
L4.3214 11.7143
" />
<path d="M4.3214 11.7143
L4.3214 11.4286
" />
<path d="M4.3214 11.4286
L4.3690 11.3334
" />
<path d="M4.3690 11.3334
L4.4167 11.2858
" />
<path d="M4.4167 11.2858
L4.5119 11.2382
" />
<path d="M4.5119 11.2382
L4.7024 11.2382
" />
<path d="M4.7024 11.2382
L4.7976 11.2858
" />
<path d="M5.6071 11.8572
L5.5119 11.9048
" />
<path d="M5.5119 11.9048
L5.3214 11.9048
" />
<path d="M5.3214 11.9048
L5.2262 11.8572
" />
<path d="M5.2262 11.8572
L5.1786 11.7620
" />
<path d="M5.1786 11.7620
L5.1786 11.3810
" />
<path d="M5.1786 11.3810
L5.2262 11.2858
" />
<path d="M5.2262 11.2858
L5.3214 11.2382
" />
<path d="M5.3214 11.2382
L5.5119 11.2382
" />
<path d="M5.5119 11.2382
L5.6071 11.2858
" />
<path d="M5.6071 11.2858
L5.6548 11.3810
" />
<path d="M5.6548 11.3810
L5.6548 11.4762
" />
<path d="M5.6548 11.4762
L5.1786 11.5715
" />
<path d="M6.0833 11.2382
L6.0833 11.9048
" />
<path d="M6.0833 11.3334
L6.1310 11.2858
" />
<path d="M6.1310 11.2858
L6.2262 11.2382
" />
<path d="M6.2262 11.2382
L6.3690 11.2382
" />
<path d="M6.3690 11.2382
L6.4643 11.2858
" />
<path d="M6.4643 11.2858
L6.5119 11.3810
" />
<path d="M6.5119 11.3810
L6.5119 11.9048
" />
<path d="M6.8452 11.2382
L7.2262 11.2382
" />
<path d="M6.9881 10.9048
L6.9881 11.7620
" />
<path d="M6.9881 11.7620
L7.0357 11.8572
" />
<path d="M7.0357 11.8572
L7.1310 11.9048
" />
<path d="M7.1310 11.9048
L7.2262 11.9048
" />
<path d="M7.9405 11.8572
L7.8452 11.9048
" />
<path d="M7.8452 11.9048
L7.6548 11.9048
" />
<path d="M7.6548 11.9048
L7.5595 11.8572
" />
<path d="M7.5595 11.8572
L7.5119 11.7620
" />
<path d="M7.5119 11.7620
L7.5119 11.3810
" />
<path d="M7.5119 11.3810
L7.5595 11.2858
" />
<path d="M7.5595 11.2858
L7.6548 11.2382
" />
<path d="M7.6548 11.2382
L7.8452 11.2382
" />
<path d="M7.8452 11.2382
L7.9405 11.2858
" />
<path d="M7.9405 11.2858
L7.9881 11.3810
" />
<path d="M7.9881 11.3810
L7.9881 11.4762
" />
<path d="M7.9881 11.4762
L7.5119 11.5715
" />
<path d="M8.4167 11.9048
L8.4167 11.2382
" />
<path d="M8.4167 11.4286
L8.4643 11.3334
" />
<path d="M8.4643 11.3334
L8.5119 11.2858
" />
<path d="M8.5119 11.2858
L8.6071 11.2382
" />
<path d="M8.6071 11.2382
L8.7024 11.2382
" />
<path d="M9.4167 11.8572
L9.3214 11.9048
" />
<path d="M9.3214 11.9048
L9.1310 11.9048
" />
<path d="M9.1310 11.9048
L9.0357 11.8572
" />
<path d="M9.0357 11.8572
L8.9881 11.7620
" />
<path d="M8.9881 11.7620
L8.9881 11.3810
" />
<path d="M8.9881 11.3810
L9.0357 11.2858
" />
<path d="M9.0357 11.2858
L9.1310 11.2382
" />
<path d="M9.1310 11.2382
L9.3214 11.2382
" />
<path d="M9.3214 11.2382
L9.4167 11.2858
" />
<path d="M9.4167 11.2858
L9.4643 11.3810
" />
<path d="M9.4643 11.3810
L9.4643 11.4762
" />
<path d="M9.4643 11.4762
L8.9881 11.5715
" />
<path d="M10.3214 11.9048
L10.3214 10.9048
" />
<path d="M10.3214 11.8572
L10.2262 11.9048
" />
<path d="M10.2262 11.9048
L10.0357 11.9048
" />
<path d="M10.0357 11.9048
L9.9405 11.8572
" />
<path d="M9.9405 11.8572
L9.8929 11.8096
" />
<path d="M9.8929 11.8096
L9.8452 11.7143
" />
<path d="M9.8452 11.7143
L9.8452 11.4286
" />
<path d="M9.8452 11.4286
L9.8929 11.3334
" />
<path d="M9.8929 11.3334
L9.9405 11.2858
" />
<path d="M9.9405 11.2858
L10.0357 11.2382
" />
<path d="M10.0357 11.2382
L10.2262 11.2382
" />
<path d="M10.2262 11.2382
L10.3214 11.2858
" />
</g></g> 
</svg>
