%TF.GenerationSoftware,KiCad,Pcbnew,10.0.5*%
%TF.CreationDate,NORMALIZED*%
%TF.ProjectId,board,626f6172-642e-46b6-9963-61645f706362,rev?*%
%TF.SameCoordinates,Original*%
%TF.FileFunction,AssemblyDrawing,Top*%
%FSLAX46Y46*%
G04 Gerber Fmt 4.6, Leading zero omitted, Abs format (unit mm)*
G04 Created by KiCad NORMALIZED*
%MOMM*%
%LPD*%
G01*
G04 APERTURE LIST*
%ADD10C,0.150000*%
G04 APERTURE END LIST*
D10*
X928571Y-8454819D02*
X928571Y-7454819D01*
X928571Y-7454819D02*
X1261904Y-8169104D01*
X1261904Y-8169104D02*
X1595237Y-7454819D01*
X1595237Y-7454819D02*
X1595237Y-8454819D01*
X2499999Y-8454819D02*
X2499999Y-7931009D01*
X2499999Y-7931009D02*
X2452380Y-7835771D01*
X2452380Y-7835771D02*
X2357142Y-7788152D01*
X2357142Y-7788152D02*
X2166666Y-7788152D01*
X2166666Y-7788152D02*
X2071428Y-7835771D01*
X2499999Y-8407200D02*
X2404761Y-8454819D01*
X2404761Y-8454819D02*
X2166666Y-8454819D01*
X2166666Y-8454819D02*
X2071428Y-8407200D01*
X2071428Y-8407200D02*
X2023809Y-8311961D01*
X2023809Y-8311961D02*
X2023809Y-8216723D01*
X2023809Y-8216723D02*
X2071428Y-8121485D01*
X2071428Y-8121485D02*
X2166666Y-8073866D01*
X2166666Y-8073866D02*
X2404761Y-8073866D01*
X2404761Y-8073866D02*
X2499999Y-8026247D01*
X2928571Y-8407200D02*
X3023809Y-8454819D01*
X3023809Y-8454819D02*
X3214285Y-8454819D01*
X3214285Y-8454819D02*
X3309523Y-8407200D01*
X3309523Y-8407200D02*
X3357142Y-8311961D01*
X3357142Y-8311961D02*
X3357142Y-8264342D01*
X3357142Y-8264342D02*
X3309523Y-8169104D01*
X3309523Y-8169104D02*
X3214285Y-8121485D01*
X3214285Y-8121485D02*
X3071428Y-8121485D01*
X3071428Y-8121485D02*
X2976190Y-8073866D01*
X2976190Y-8073866D02*
X2928571Y-7978628D01*
X2928571Y-7978628D02*
X2928571Y-7931009D01*
X2928571Y-7931009D02*
X2976190Y-7835771D01*
X2976190Y-7835771D02*
X3071428Y-7788152D01*
X3071428Y-7788152D02*
X3214285Y-7788152D01*
X3214285Y-7788152D02*
X3309523Y-7835771D01*
X3785714Y-8454819D02*
X3785714Y-7454819D01*
X3880952Y-8073866D02*
X4166666Y-8454819D01*
X4166666Y-7788152D02*
X3785714Y-8169104D01*
X4595238Y-8454819D02*
X4595238Y-7454819D01*
X4595238Y-7454819D02*
X4928571Y-8169104D01*
X4928571Y-8169104D02*
X5261904Y-7454819D01*
X5261904Y-7454819D02*
X5261904Y-8454819D01*
X6166666Y-8454819D02*
X6166666Y-7931009D01*
X6166666Y-7931009D02*
X6119047Y-7835771D01*
X6119047Y-7835771D02*
X6023809Y-7788152D01*
X6023809Y-7788152D02*
X5833333Y-7788152D01*
X5833333Y-7788152D02*
X5738095Y-7835771D01*
X6166666Y-8407200D02*
X6071428Y-8454819D01*
X6071428Y-8454819D02*
X5833333Y-8454819D01*
X5833333Y-8454819D02*
X5738095Y-8407200D01*
X5738095Y-8407200D02*
X5690476Y-8311961D01*
X5690476Y-8311961D02*
X5690476Y-8216723D01*
X5690476Y-8216723D02*
X5738095Y-8121485D01*
X5738095Y-8121485D02*
X5833333Y-8073866D01*
X5833333Y-8073866D02*
X6071428Y-8073866D01*
X6071428Y-8073866D02*
X6166666Y-8026247D01*
X6642857Y-8454819D02*
X6642857Y-7788152D01*
X6642857Y-7978628D02*
X6690476Y-7883390D01*
X6690476Y-7883390D02*
X6738095Y-7835771D01*
X6738095Y-7835771D02*
X6833333Y-7788152D01*
X6833333Y-7788152D02*
X6928571Y-7788152D01*
X7690476Y-7788152D02*
X7690476Y-8597676D01*
X7690476Y-8597676D02*
X7642857Y-8692914D01*
X7642857Y-8692914D02*
X7595238Y-8740533D01*
X7595238Y-8740533D02*
X7500000Y-8788152D01*
X7500000Y-8788152D02*
X7357143Y-8788152D01*
X7357143Y-8788152D02*
X7261905Y-8740533D01*
X7690476Y-8407200D02*
X7595238Y-8454819D01*
X7595238Y-8454819D02*
X7404762Y-8454819D01*
X7404762Y-8454819D02*
X7309524Y-8407200D01*
X7309524Y-8407200D02*
X7261905Y-8359580D01*
X7261905Y-8359580D02*
X7214286Y-8264342D01*
X7214286Y-8264342D02*
X7214286Y-7978628D01*
X7214286Y-7978628D02*
X7261905Y-7883390D01*
X7261905Y-7883390D02*
X7309524Y-7835771D01*
X7309524Y-7835771D02*
X7404762Y-7788152D01*
X7404762Y-7788152D02*
X7595238Y-7788152D01*
X7595238Y-7788152D02*
X7690476Y-7835771D01*
X8166667Y-8454819D02*
X8166667Y-7788152D01*
X8166667Y-7454819D02*
X8119048Y-7502438D01*
X8119048Y-7502438D02*
X8166667Y-7550057D01*
X8166667Y-7550057D02*
X8214286Y-7502438D01*
X8214286Y-7502438D02*
X8166667Y-7454819D01*
X8166667Y-7454819D02*
X8166667Y-7550057D01*
X8642857Y-7788152D02*
X8642857Y-8454819D01*
X8642857Y-7883390D02*
X8690476Y-7835771D01*
X8690476Y-7835771D02*
X8785714Y-7788152D01*
X8785714Y-7788152D02*
X8928571Y-7788152D01*
X8928571Y-7788152D02*
X9023809Y-7835771D01*
X9023809Y-7835771D02*
X9071428Y-7931009D01*
X9071428Y-7931009D02*
X9071428Y-8454819D01*
M02*
