%TF.GenerationSoftware,KiCad,Pcbnew,10.0.5*%
%TF.CreationDate,NORMALIZED*%
%TF.ProjectId,board,626f6172-642e-46b6-9963-61645f706362,rev?*%
%TF.SameCoordinates,Original*%
%TF.FileFunction,Copper,L1,Top*%
%TF.FilePolarity,Positive*%
%FSLAX46Y46*%
G04 Gerber Fmt 4.6, Leading zero omitted, Abs format (unit mm)*
G04 Created by KiCad NORMALIZED*
%MOMM*%
%LPD*%
G01*
G04 APERTURE LIST*
%ADD10C,0.150000*%
%TA.AperFunction,NonConductor*%
%ADD11C,0.150000*%
%TD*%
G04 APERTURE END LIST*
D10*
D11*
X9285714Y-7669104D02*
X9761904Y-7669104D01*
X9190476Y-7954819D02*
X9523809Y-6954819D01*
X9523809Y-6954819D02*
X9857142Y-7954819D01*
X10714285Y-7954819D02*
X10142857Y-7954819D01*
X10428571Y-7954819D02*
X10428571Y-6954819D01*
X10428571Y-6954819D02*
X10333333Y-7097676D01*
X10333333Y-7097676D02*
X10238095Y-7192914D01*
X10238095Y-7192914D02*
X10142857Y-7240533D01*
D10*
D11*
X19595238Y-7431009D02*
X19738095Y-7478628D01*
X19738095Y-7478628D02*
X19785714Y-7526247D01*
X19785714Y-7526247D02*
X19833333Y-7621485D01*
X19833333Y-7621485D02*
X19833333Y-7764342D01*
X19833333Y-7764342D02*
X19785714Y-7859580D01*
X19785714Y-7859580D02*
X19738095Y-7907200D01*
X19738095Y-7907200D02*
X19642857Y-7954819D01*
X19642857Y-7954819D02*
X19261905Y-7954819D01*
X19261905Y-7954819D02*
X19261905Y-6954819D01*
X19261905Y-6954819D02*
X19595238Y-6954819D01*
X19595238Y-6954819D02*
X19690476Y-7002438D01*
X19690476Y-7002438D02*
X19738095Y-7050057D01*
X19738095Y-7050057D02*
X19785714Y-7145295D01*
X19785714Y-7145295D02*
X19785714Y-7240533D01*
X19785714Y-7240533D02*
X19738095Y-7335771D01*
X19738095Y-7335771D02*
X19690476Y-7383390D01*
X19690476Y-7383390D02*
X19595238Y-7431009D01*
X19595238Y-7431009D02*
X19261905Y-7431009D01*
X20785714Y-7954819D02*
X20214286Y-7954819D01*
X20500000Y-7954819D02*
X20500000Y-6954819D01*
X20500000Y-6954819D02*
X20404762Y-7097676D01*
X20404762Y-7097676D02*
X20309524Y-7192914D01*
X20309524Y-7192914D02*
X20214286Y-7240533D01*
D10*
X5000000Y-5000000D02*
X25000000Y-5000000D01*
X25000000Y-5000000D02*
X25000000Y-10000000D01*
X25000000Y-10000000D02*
X5000000Y-10000000D01*
X5000000Y-10000000D02*
X5000000Y-5000000D01*
M02*
