%TF.GenerationSoftware,KiCad,Pcbnew,10.0.5*%
%TF.CreationDate,NORMALIZED*%
%TF.ProjectId,board,626f6172-642e-46b6-9963-61645f706362,rev?*%
%TF.SameCoordinates,Original*%
%TF.FileFunction,Legend,Top*%
%TF.FilePolarity,Positive*%
%FSLAX46Y46*%
G04 Gerber Fmt 4.6, Leading zero omitted, Abs format (unit mm)*
G04 Created by KiCad NORMALIZED*
%MOMM*%
%LPD*%
G01*
G04 APERTURE LIST*
%ADD10C,0.150000*%
G04 APERTURE END LIST*
D10*
X11571427Y-10454819D02*
X11571427Y-9454819D01*
X11571427Y-9454819D02*
X11238094Y-10169104D01*
X11238094Y-10169104D02*
X10904761Y-9454819D01*
X10904761Y-9454819D02*
X10904761Y-10454819D01*
X10428570Y-10454819D02*
X10428570Y-9454819D01*
X9380952Y-10454819D02*
X9714285Y-9978628D01*
X9952380Y-10454819D02*
X9952380Y-9454819D01*
X9952380Y-9454819D02*
X9571428Y-9454819D01*
X9571428Y-9454819D02*
X9476190Y-9502438D01*
X9476190Y-9502438D02*
X9428571Y-9550057D01*
X9428571Y-9550057D02*
X9380952Y-9645295D01*
X9380952Y-9645295D02*
X9380952Y-9788152D01*
X9380952Y-9788152D02*
X9428571Y-9883390D01*
X9428571Y-9883390D02*
X9476190Y-9931009D01*
X9476190Y-9931009D02*
X9571428Y-9978628D01*
X9571428Y-9978628D02*
X9952380Y-9978628D01*
X8380952Y-10454819D02*
X8714285Y-9978628D01*
X8952380Y-10454819D02*
X8952380Y-9454819D01*
X8952380Y-9454819D02*
X8571428Y-9454819D01*
X8571428Y-9454819D02*
X8476190Y-9502438D01*
X8476190Y-9502438D02*
X8428571Y-9550057D01*
X8428571Y-9550057D02*
X8380952Y-9645295D01*
X8380952Y-9645295D02*
X8380952Y-9788152D01*
X8380952Y-9788152D02*
X8428571Y-9883390D01*
X8428571Y-9883390D02*
X8476190Y-9931009D01*
X8476190Y-9931009D02*
X8571428Y-9978628D01*
X8571428Y-9978628D02*
X8952380Y-9978628D01*
M02*
