%TF.GenerationSoftware,KiCad,Pcbnew,10.0.5*%
%TF.CreationDate,NORMALIZED*%
%TF.ProjectId,board,626f6172-642e-46b6-9963-61645f706362,rev?*%
%TF.SameCoordinates,Original*%
%TF.FileFunction,Copper,L1,Top*%
%TF.FilePolarity,Positive*%
%FSLAX46Y46*%
G04 Gerber Fmt 4.6, Leading zero omitted, Abs format (unit mm)*
G04 Created by KiCad NORMALIZED*
%MOMM*%
%LPD*%
G01*
G04 APERTURE LIST*
%TA.AperFunction,NonConductor*%
%ADD10C,0.300000*%
%TD*%
G04 APERTURE END LIST*
D10*
X5000000Y-10000000D02*
X8300000Y-10000000D01*
X9500000Y-10000000D02*
X12800000Y-10000000D01*
X14000000Y-10000000D02*
X17300000Y-10000000D01*
X18500000Y-10000000D02*
X21800000Y-10000000D01*
X23000000Y-10000000D02*
X26300000Y-10000000D01*
X27500000Y-10000000D02*
X30800000Y-10000000D01*
X32000000Y-10000000D02*
X35000000Y-10000000D01*
X5000000Y-15000000D02*
X5060000Y-15000000D01*
X6260000Y-15000000D02*
X6320000Y-15000000D01*
X7520000Y-15000000D02*
X7580000Y-15000000D01*
X8780000Y-15000000D02*
X8840000Y-15000000D01*
X10040000Y-15000000D02*
X10100000Y-15000000D01*
X11300000Y-15000000D02*
X11360000Y-15000000D01*
X12560000Y-15000000D02*
X12620000Y-15000000D01*
X13820000Y-15000000D02*
X13880000Y-15000000D01*
X15080000Y-15000000D02*
X15140000Y-15000000D01*
X16340000Y-15000000D02*
X16400000Y-15000000D01*
X17600000Y-15000000D02*
X17660000Y-15000000D01*
X18860000Y-15000000D02*
X18920000Y-15000000D01*
X20120000Y-15000000D02*
X20180000Y-15000000D01*
X21380000Y-15000000D02*
X21440000Y-15000000D01*
X22640000Y-15000000D02*
X22700000Y-15000000D01*
X23900000Y-15000000D02*
X23960000Y-15000000D01*
X25160000Y-15000000D02*
X25220000Y-15000000D01*
X26420000Y-15000000D02*
X26480000Y-15000000D01*
X27680000Y-15000000D02*
X27740000Y-15000000D01*
X28940000Y-15000000D02*
X29000000Y-15000000D01*
X30200000Y-15000000D02*
X30260000Y-15000000D01*
X31460000Y-15000000D02*
X31520000Y-15000000D01*
X32720000Y-15000000D02*
X32780000Y-15000000D01*
X33980000Y-15000000D02*
X34040000Y-15000000D01*
X5000000Y-20000000D02*
X8300000Y-20000000D01*
X9500000Y-20000000D02*
X9560000Y-20000000D01*
X10760000Y-20000000D02*
X14060000Y-20000000D01*
X15260000Y-20000000D02*
X15320000Y-20000000D01*
X16520000Y-20000000D02*
X19820000Y-20000000D01*
X21020000Y-20000000D02*
X21080000Y-20000000D01*
X22280000Y-20000000D02*
X25580000Y-20000000D01*
X26780000Y-20000000D02*
X26840000Y-20000000D01*
X28040000Y-20000000D02*
X31340000Y-20000000D01*
X32540000Y-20000000D02*
X32600000Y-20000000D01*
X33800000Y-20000000D02*
X35000000Y-20000000D01*
M02*
