%TF.GenerationSoftware,KiCad,Pcbnew,10.0.5*%
%TF.CreationDate,NORMALIZED*%
%TF.ProjectId,board,626f6172-642e-46b6-9963-61645f706362,rev?*%
%TF.SameCoordinates,Original*%
%TF.FileFunction,Legend,Top*%
%TF.FilePolarity,Positive*%
%FSLAX46Y46*%
G04 Gerber Fmt 4.6, Leading zero omitted, Abs format (unit mm)*
G04 Created by KiCad NORMALIZED*
%MOMM*%
%LPD*%
G01*
G04 APERTURE LIST*
%ADD10C,0.125000*%
G04 APERTURE END LIST*
D10*
X9000000Y-6456119D02*
X9190476Y-6456119D01*
X9190476Y-6456119D02*
X9285714Y-6503738D01*
X9285714Y-6503738D02*
X9380952Y-6598976D01*
X9380952Y-6598976D02*
X9428571Y-6789452D01*
X9428571Y-6789452D02*
X9428571Y-7122785D01*
X9428571Y-7122785D02*
X9380952Y-7313261D01*
X9380952Y-7313261D02*
X9285714Y-7408500D01*
X9285714Y-7408500D02*
X9190476Y-7456119D01*
X9190476Y-7456119D02*
X9000000Y-7456119D01*
X9000000Y-7456119D02*
X8904762Y-7408500D01*
X8904762Y-7408500D02*
X8809524Y-7313261D01*
X8809524Y-7313261D02*
X8761905Y-7122785D01*
X8761905Y-7122785D02*
X8761905Y-6789452D01*
X8761905Y-6789452D02*
X8809524Y-6598976D01*
X8809524Y-6598976D02*
X8904762Y-6503738D01*
X8904762Y-6503738D02*
X9000000Y-6456119D01*
X9714286Y-6456119D02*
X10047619Y-7456119D01*
X10047619Y-7456119D02*
X10380952Y-6456119D01*
X11238095Y-7456119D02*
X10666667Y-7456119D01*
X10952381Y-7456119D02*
X10952381Y-6456119D01*
X10952381Y-6456119D02*
X10857143Y-6598976D01*
X10857143Y-6598976D02*
X10761905Y-6694214D01*
X10761905Y-6694214D02*
X10666667Y-6741833D01*
X12000000Y-6456119D02*
X12190476Y-6456119D01*
X12190476Y-6456119D02*
X12285714Y-6503738D01*
X12285714Y-6503738D02*
X12380952Y-6598976D01*
X12380952Y-6598976D02*
X12428571Y-6789452D01*
X12428571Y-6789452D02*
X12428571Y-7122785D01*
X12428571Y-7122785D02*
X12380952Y-7313261D01*
X12380952Y-7313261D02*
X12285714Y-7408500D01*
X12285714Y-7408500D02*
X12190476Y-7456119D01*
X12190476Y-7456119D02*
X12000000Y-7456119D01*
X12000000Y-7456119D02*
X11904762Y-7408500D01*
X11904762Y-7408500D02*
X11809524Y-7313261D01*
X11809524Y-7313261D02*
X11761905Y-7122785D01*
X11761905Y-7122785D02*
X11761905Y-6789452D01*
X11761905Y-6789452D02*
X11809524Y-6598976D01*
X11809524Y-6598976D02*
X11904762Y-6503738D01*
X11904762Y-6503738D02*
X12000000Y-6456119D01*
X12714286Y-6456119D02*
X13047619Y-7456119D01*
X13047619Y-7456119D02*
X13380952Y-6456119D01*
X13666667Y-6551357D02*
X13714286Y-6503738D01*
X13714286Y-6503738D02*
X13809524Y-6456119D01*
X13809524Y-6456119D02*
X14047619Y-6456119D01*
X14047619Y-6456119D02*
X14142857Y-6503738D01*
X14142857Y-6503738D02*
X14190476Y-6551357D01*
X14190476Y-6551357D02*
X14238095Y-6646595D01*
X14238095Y-6646595D02*
X14238095Y-6741833D01*
X14238095Y-6741833D02*
X14190476Y-6884690D01*
X14190476Y-6884690D02*
X13619048Y-7456119D01*
X13619048Y-7456119D02*
X14238095Y-7456119D01*
X9047618Y-19360880D02*
X8999999Y-19408500D01*
X8999999Y-19408500D02*
X8857142Y-19456119D01*
X8857142Y-19456119D02*
X8761904Y-19456119D01*
X8761904Y-19456119D02*
X8619047Y-19408500D01*
X8619047Y-19408500D02*
X8523809Y-19313261D01*
X8523809Y-19313261D02*
X8476190Y-19218023D01*
X8476190Y-19218023D02*
X8428571Y-19027547D01*
X8428571Y-19027547D02*
X8428571Y-18884690D01*
X8428571Y-18884690D02*
X8476190Y-18694214D01*
X8476190Y-18694214D02*
X8523809Y-18598976D01*
X8523809Y-18598976D02*
X8619047Y-18503738D01*
X8619047Y-18503738D02*
X8761904Y-18456119D01*
X8761904Y-18456119D02*
X8857142Y-18456119D01*
X8857142Y-18456119D02*
X8999999Y-18503738D01*
X8999999Y-18503738D02*
X9047618Y-18551357D01*
X9333333Y-18456119D02*
X9904761Y-18456119D01*
X9619047Y-19456119D02*
X9619047Y-18456119D01*
X10714285Y-19456119D02*
X10238095Y-19456119D01*
X10238095Y-19456119D02*
X10238095Y-18456119D01*
X10952381Y-18456119D02*
X11571428Y-18456119D01*
X11571428Y-18456119D02*
X11238095Y-18837071D01*
X11238095Y-18837071D02*
X11380952Y-18837071D01*
X11380952Y-18837071D02*
X11476190Y-18884690D01*
X11476190Y-18884690D02*
X11523809Y-18932309D01*
X11523809Y-18932309D02*
X11571428Y-19027547D01*
X11571428Y-19027547D02*
X11571428Y-19265642D01*
X11571428Y-19265642D02*
X11523809Y-19360880D01*
X11523809Y-19360880D02*
X11476190Y-19408500D01*
X11476190Y-19408500D02*
X11380952Y-19456119D01*
X11380952Y-19456119D02*
X11095238Y-19456119D01*
X11095238Y-19456119D02*
X11000000Y-19408500D01*
X11000000Y-19408500D02*
X10952381Y-19360880D01*
X14047618Y-19360880D02*
X13999999Y-19408500D01*
X13999999Y-19408500D02*
X13857142Y-19456119D01*
X13857142Y-19456119D02*
X13761904Y-19456119D01*
X13761904Y-19456119D02*
X13619047Y-19408500D01*
X13619047Y-19408500D02*
X13523809Y-19313261D01*
X13523809Y-19313261D02*
X13476190Y-19218023D01*
X13476190Y-19218023D02*
X13428571Y-19027547D01*
X13428571Y-19027547D02*
X13428571Y-18884690D01*
X13428571Y-18884690D02*
X13476190Y-18694214D01*
X13476190Y-18694214D02*
X13523809Y-18598976D01*
X13523809Y-18598976D02*
X13619047Y-18503738D01*
X13619047Y-18503738D02*
X13761904Y-18456119D01*
X13761904Y-18456119D02*
X13857142Y-18456119D01*
X13857142Y-18456119D02*
X13999999Y-18503738D01*
X13999999Y-18503738D02*
X14047618Y-18551357D01*
X14333333Y-18456119D02*
X14904761Y-18456119D01*
X14619047Y-19456119D02*
X14619047Y-18456119D01*
X15714285Y-19456119D02*
X15238095Y-19456119D01*
X15238095Y-19456119D02*
X15238095Y-18456119D01*
X16476190Y-18789452D02*
X16476190Y-19456119D01*
X16238095Y-18408500D02*
X16000000Y-19122785D01*
X16000000Y-19122785D02*
X16619047Y-19122785D01*
M02*
