%TF.GenerationSoftware,KiCad,Pcbnew,10.0.5*%
%TF.CreationDate,NORMALIZED*%
%TF.ProjectId,board,626f6172-642e-46b6-9963-61645f706362,rev?*%
%TF.SameCoordinates,Original*%
%TF.FileFunction,AssemblyDrawing,Top*%
%FSLAX46Y46*%
G04 Gerber Fmt 4.6, Leading zero omitted, Abs format (unit mm)*
G04 Created by KiCad NORMALIZED*
%MOMM*%
%LPD*%
G01*
G04 APERTURE LIST*
%ADD10C,0.150000*%
G04 APERTURE END LIST*
D10*
X2309523Y-8407200D02*
X2452380Y-8454819D01*
X2452380Y-8454819D02*
X2690475Y-8454819D01*
X2690475Y-8454819D02*
X2785713Y-8407200D01*
X2785713Y-8407200D02*
X2833332Y-8359580D01*
X2833332Y-8359580D02*
X2880951Y-8264342D01*
X2880951Y-8264342D02*
X2880951Y-8169104D01*
X2880951Y-8169104D02*
X2833332Y-8073866D01*
X2833332Y-8073866D02*
X2785713Y-8026247D01*
X2785713Y-8026247D02*
X2690475Y-7978628D01*
X2690475Y-7978628D02*
X2499999Y-7931009D01*
X2499999Y-7931009D02*
X2404761Y-7883390D01*
X2404761Y-7883390D02*
X2357142Y-7835771D01*
X2357142Y-7835771D02*
X2309523Y-7740533D01*
X2309523Y-7740533D02*
X2309523Y-7645295D01*
X2309523Y-7645295D02*
X2357142Y-7550057D01*
X2357142Y-7550057D02*
X2404761Y-7502438D01*
X2404761Y-7502438D02*
X2499999Y-7454819D01*
X2499999Y-7454819D02*
X2738094Y-7454819D01*
X2738094Y-7454819D02*
X2880951Y-7502438D01*
X3452380Y-8454819D02*
X3357142Y-8407200D01*
X3357142Y-8407200D02*
X3309523Y-8311961D01*
X3309523Y-8311961D02*
X3309523Y-7454819D01*
X3976190Y-8454819D02*
X3880952Y-8407200D01*
X3880952Y-8407200D02*
X3833333Y-8359580D01*
X3833333Y-8359580D02*
X3785714Y-8264342D01*
X3785714Y-8264342D02*
X3785714Y-7978628D01*
X3785714Y-7978628D02*
X3833333Y-7883390D01*
X3833333Y-7883390D02*
X3880952Y-7835771D01*
X3880952Y-7835771D02*
X3976190Y-7788152D01*
X3976190Y-7788152D02*
X4119047Y-7788152D01*
X4119047Y-7788152D02*
X4214285Y-7835771D01*
X4214285Y-7835771D02*
X4261904Y-7883390D01*
X4261904Y-7883390D02*
X4309523Y-7978628D01*
X4309523Y-7978628D02*
X4309523Y-8264342D01*
X4309523Y-8264342D02*
X4261904Y-8359580D01*
X4261904Y-8359580D02*
X4214285Y-8407200D01*
X4214285Y-8407200D02*
X4119047Y-8454819D01*
X4119047Y-8454819D02*
X3976190Y-8454819D01*
X4595238Y-7788152D02*
X4976190Y-7788152D01*
X4738095Y-7454819D02*
X4738095Y-8311961D01*
X4738095Y-8311961D02*
X4785714Y-8407200D01*
X4785714Y-8407200D02*
X4880952Y-8454819D01*
X4880952Y-8454819D02*
X4976190Y-8454819D01*
X5309524Y-8454819D02*
X5309524Y-7454819D01*
X5309524Y-7454819D02*
X5690476Y-7454819D01*
X5690476Y-7454819D02*
X5785714Y-7502438D01*
X5785714Y-7502438D02*
X5833333Y-7550057D01*
X5833333Y-7550057D02*
X5880952Y-7645295D01*
X5880952Y-7645295D02*
X5880952Y-7788152D01*
X5880952Y-7788152D02*
X5833333Y-7883390D01*
X5833333Y-7883390D02*
X5785714Y-7931009D01*
X5785714Y-7931009D02*
X5690476Y-7978628D01*
X5690476Y-7978628D02*
X5309524Y-7978628D01*
X6738095Y-8454819D02*
X6738095Y-7931009D01*
X6738095Y-7931009D02*
X6690476Y-7835771D01*
X6690476Y-7835771D02*
X6595238Y-7788152D01*
X6595238Y-7788152D02*
X6404762Y-7788152D01*
X6404762Y-7788152D02*
X6309524Y-7835771D01*
X6738095Y-8407200D02*
X6642857Y-8454819D01*
X6642857Y-8454819D02*
X6404762Y-8454819D01*
X6404762Y-8454819D02*
X6309524Y-8407200D01*
X6309524Y-8407200D02*
X6261905Y-8311961D01*
X6261905Y-8311961D02*
X6261905Y-8216723D01*
X6261905Y-8216723D02*
X6309524Y-8121485D01*
X6309524Y-8121485D02*
X6404762Y-8073866D01*
X6404762Y-8073866D02*
X6642857Y-8073866D01*
X6642857Y-8073866D02*
X6738095Y-8026247D01*
X7642857Y-8454819D02*
X7642857Y-7454819D01*
X7642857Y-8407200D02*
X7547619Y-8454819D01*
X7547619Y-8454819D02*
X7357143Y-8454819D01*
X7357143Y-8454819D02*
X7261905Y-8407200D01*
X7261905Y-8407200D02*
X7214286Y-8359580D01*
X7214286Y-8359580D02*
X7166667Y-8264342D01*
X7166667Y-8264342D02*
X7166667Y-7978628D01*
X7166667Y-7978628D02*
X7214286Y-7883390D01*
X7214286Y-7883390D02*
X7261905Y-7835771D01*
X7261905Y-7835771D02*
X7357143Y-7788152D01*
X7357143Y-7788152D02*
X7547619Y-7788152D01*
X7547619Y-7788152D02*
X7642857Y-7835771D01*
M02*
