%TF.GenerationSoftware,KiCad,Pcbnew,10.0.5*%
%TF.CreationDate,NORMALIZED*%
%TF.ProjectId,board,626f6172-642e-46b6-9963-61645f706362,rev?*%
%TF.SameCoordinates,Original*%
%TF.FileFunction,Legend,Bot*%
%TF.FilePolarity,Positive*%
%FSLAX46Y46*%
G04 Gerber Fmt 4.6, Leading zero omitted, Abs format (unit mm)*
G04 Created by KiCad NORMALIZED*
%MOMM*%
%LPD*%
G01*
G04 APERTURE LIST*
%ADD10C,0.150000*%
G04 APERTURE END LIST*
D10*
X8642857Y-9931009D02*
X8785714Y-9978628D01*
X8785714Y-9978628D02*
X8833333Y-10026247D01*
X8833333Y-10026247D02*
X8880952Y-10121485D01*
X8880952Y-10121485D02*
X8880952Y-10264342D01*
X8880952Y-10264342D02*
X8833333Y-10359580D01*
X8833333Y-10359580D02*
X8785714Y-10407200D01*
X8785714Y-10407200D02*
X8690476Y-10454819D01*
X8690476Y-10454819D02*
X8309524Y-10454819D01*
X8309524Y-10454819D02*
X8309524Y-9454819D01*
X8309524Y-9454819D02*
X8642857Y-9454819D01*
X8642857Y-9454819D02*
X8738095Y-9502438D01*
X8738095Y-9502438D02*
X8785714Y-9550057D01*
X8785714Y-9550057D02*
X8833333Y-9645295D01*
X8833333Y-9645295D02*
X8833333Y-9740533D01*
X8833333Y-9740533D02*
X8785714Y-9835771D01*
X8785714Y-9835771D02*
X8738095Y-9883390D01*
X8738095Y-9883390D02*
X8642857Y-9931009D01*
X8642857Y-9931009D02*
X8309524Y-9931009D01*
X9261905Y-10169104D02*
X9738095Y-10169104D01*
X9166667Y-10454819D02*
X9500000Y-9454819D01*
X9500000Y-9454819D02*
X9833333Y-10454819D01*
X10738095Y-10359580D02*
X10690476Y-10407200D01*
X10690476Y-10407200D02*
X10547619Y-10454819D01*
X10547619Y-10454819D02*
X10452381Y-10454819D01*
X10452381Y-10454819D02*
X10309524Y-10407200D01*
X10309524Y-10407200D02*
X10214286Y-10311961D01*
X10214286Y-10311961D02*
X10166667Y-10216723D01*
X10166667Y-10216723D02*
X10119048Y-10026247D01*
X10119048Y-10026247D02*
X10119048Y-9883390D01*
X10119048Y-9883390D02*
X10166667Y-9692914D01*
X10166667Y-9692914D02*
X10214286Y-9597676D01*
X10214286Y-9597676D02*
X10309524Y-9502438D01*
X10309524Y-9502438D02*
X10452381Y-9454819D01*
X10452381Y-9454819D02*
X10547619Y-9454819D01*
X10547619Y-9454819D02*
X10690476Y-9502438D01*
X10690476Y-9502438D02*
X10738095Y-9550057D01*
X11166667Y-10454819D02*
X11166667Y-9454819D01*
X11738095Y-10454819D02*
X11309524Y-9883390D01*
X11738095Y-9454819D02*
X11166667Y-10026247D01*
M02*
