%TF.GenerationSoftware,KiCad,Pcbnew,10.0.5*%
%TF.CreationDate,NORMALIZED*%
%TF.ProjectId,board,626f6172-642e-46b6-9963-61645f706362,rev?*%
%TF.SameCoordinates,Original*%
%TF.FileFunction,AssemblyDrawing,Top*%
%FSLAX46Y46*%
G04 Gerber Fmt 4.6, Leading zero omitted, Abs format (unit mm)*
G04 Created by KiCad NORMALIZED*
%MOMM*%
%LPD*%
G01*
G04 APERTURE LIST*
%ADD10C,0.150000*%
G04 APERTURE END LIST*
D10*
X1166666Y-8454819D02*
X1166666Y-7454819D01*
X1166666Y-7454819D02*
X1547618Y-7454819D01*
X1547618Y-7454819D02*
X1642856Y-7502438D01*
X1642856Y-7502438D02*
X1690475Y-7550057D01*
X1690475Y-7550057D02*
X1738094Y-7645295D01*
X1738094Y-7645295D02*
X1738094Y-7788152D01*
X1738094Y-7788152D02*
X1690475Y-7883390D01*
X1690475Y-7883390D02*
X1642856Y-7931009D01*
X1642856Y-7931009D02*
X1547618Y-7978628D01*
X1547618Y-7978628D02*
X1166666Y-7978628D01*
X2595237Y-8454819D02*
X2595237Y-7931009D01*
X2595237Y-7931009D02*
X2547618Y-7835771D01*
X2547618Y-7835771D02*
X2452380Y-7788152D01*
X2452380Y-7788152D02*
X2261904Y-7788152D01*
X2261904Y-7788152D02*
X2166666Y-7835771D01*
X2595237Y-8407200D02*
X2499999Y-8454819D01*
X2499999Y-8454819D02*
X2261904Y-8454819D01*
X2261904Y-8454819D02*
X2166666Y-8407200D01*
X2166666Y-8407200D02*
X2119047Y-8311961D01*
X2119047Y-8311961D02*
X2119047Y-8216723D01*
X2119047Y-8216723D02*
X2166666Y-8121485D01*
X2166666Y-8121485D02*
X2261904Y-8073866D01*
X2261904Y-8073866D02*
X2499999Y-8073866D01*
X2499999Y-8073866D02*
X2595237Y-8026247D01*
X3499999Y-8454819D02*
X3499999Y-7454819D01*
X3499999Y-8407200D02*
X3404761Y-8454819D01*
X3404761Y-8454819D02*
X3214285Y-8454819D01*
X3214285Y-8454819D02*
X3119047Y-8407200D01*
X3119047Y-8407200D02*
X3071428Y-8359580D01*
X3071428Y-8359580D02*
X3023809Y-8264342D01*
X3023809Y-8264342D02*
X3023809Y-7978628D01*
X3023809Y-7978628D02*
X3071428Y-7883390D01*
X3071428Y-7883390D02*
X3119047Y-7835771D01*
X3119047Y-7835771D02*
X3214285Y-7788152D01*
X3214285Y-7788152D02*
X3404761Y-7788152D01*
X3404761Y-7788152D02*
X3499999Y-7835771D01*
X3928571Y-8407200D02*
X4071428Y-8454819D01*
X4071428Y-8454819D02*
X4309523Y-8454819D01*
X4309523Y-8454819D02*
X4404761Y-8407200D01*
X4404761Y-8407200D02*
X4452380Y-8359580D01*
X4452380Y-8359580D02*
X4499999Y-8264342D01*
X4499999Y-8264342D02*
X4499999Y-8169104D01*
X4499999Y-8169104D02*
X4452380Y-8073866D01*
X4452380Y-8073866D02*
X4404761Y-8026247D01*
X4404761Y-8026247D02*
X4309523Y-7978628D01*
X4309523Y-7978628D02*
X4119047Y-7931009D01*
X4119047Y-7931009D02*
X4023809Y-7883390D01*
X4023809Y-7883390D02*
X3976190Y-7835771D01*
X3976190Y-7835771D02*
X3928571Y-7740533D01*
X3928571Y-7740533D02*
X3928571Y-7645295D01*
X3928571Y-7645295D02*
X3976190Y-7550057D01*
X3976190Y-7550057D02*
X4023809Y-7502438D01*
X4023809Y-7502438D02*
X4119047Y-7454819D01*
X4119047Y-7454819D02*
X4357142Y-7454819D01*
X4357142Y-7454819D02*
X4499999Y-7502438D01*
X4928571Y-8454819D02*
X4928571Y-7454819D01*
X5357142Y-8454819D02*
X5357142Y-7931009D01*
X5357142Y-7931009D02*
X5309523Y-7835771D01*
X5309523Y-7835771D02*
X5214285Y-7788152D01*
X5214285Y-7788152D02*
X5071428Y-7788152D01*
X5071428Y-7788152D02*
X4976190Y-7835771D01*
X4976190Y-7835771D02*
X4928571Y-7883390D01*
X6261904Y-8454819D02*
X6261904Y-7931009D01*
X6261904Y-7931009D02*
X6214285Y-7835771D01*
X6214285Y-7835771D02*
X6119047Y-7788152D01*
X6119047Y-7788152D02*
X5928571Y-7788152D01*
X5928571Y-7788152D02*
X5833333Y-7835771D01*
X6261904Y-8407200D02*
X6166666Y-8454819D01*
X6166666Y-8454819D02*
X5928571Y-8454819D01*
X5928571Y-8454819D02*
X5833333Y-8407200D01*
X5833333Y-8407200D02*
X5785714Y-8311961D01*
X5785714Y-8311961D02*
X5785714Y-8216723D01*
X5785714Y-8216723D02*
X5833333Y-8121485D01*
X5833333Y-8121485D02*
X5928571Y-8073866D01*
X5928571Y-8073866D02*
X6166666Y-8073866D01*
X6166666Y-8073866D02*
X6261904Y-8026247D01*
X6738095Y-7788152D02*
X6738095Y-8788152D01*
X6738095Y-7835771D02*
X6833333Y-7788152D01*
X6833333Y-7788152D02*
X7023809Y-7788152D01*
X7023809Y-7788152D02*
X7119047Y-7835771D01*
X7119047Y-7835771D02*
X7166666Y-7883390D01*
X7166666Y-7883390D02*
X7214285Y-7978628D01*
X7214285Y-7978628D02*
X7214285Y-8264342D01*
X7214285Y-8264342D02*
X7166666Y-8359580D01*
X7166666Y-8359580D02*
X7119047Y-8407200D01*
X7119047Y-8407200D02*
X7023809Y-8454819D01*
X7023809Y-8454819D02*
X6833333Y-8454819D01*
X6833333Y-8454819D02*
X6738095Y-8407200D01*
X8023809Y-8407200D02*
X7928571Y-8454819D01*
X7928571Y-8454819D02*
X7738095Y-8454819D01*
X7738095Y-8454819D02*
X7642857Y-8407200D01*
X7642857Y-8407200D02*
X7595238Y-8311961D01*
X7595238Y-8311961D02*
X7595238Y-7931009D01*
X7595238Y-7931009D02*
X7642857Y-7835771D01*
X7642857Y-7835771D02*
X7738095Y-7788152D01*
X7738095Y-7788152D02*
X7928571Y-7788152D01*
X7928571Y-7788152D02*
X8023809Y-7835771D01*
X8023809Y-7835771D02*
X8071428Y-7931009D01*
X8071428Y-7931009D02*
X8071428Y-8026247D01*
X8071428Y-8026247D02*
X7595238Y-8121485D01*
X8452381Y-8407200D02*
X8547619Y-8454819D01*
X8547619Y-8454819D02*
X8738095Y-8454819D01*
X8738095Y-8454819D02*
X8833333Y-8407200D01*
X8833333Y-8407200D02*
X8880952Y-8311961D01*
X8880952Y-8311961D02*
X8880952Y-8264342D01*
X8880952Y-8264342D02*
X8833333Y-8169104D01*
X8833333Y-8169104D02*
X8738095Y-8121485D01*
X8738095Y-8121485D02*
X8595238Y-8121485D01*
X8595238Y-8121485D02*
X8500000Y-8073866D01*
X8500000Y-8073866D02*
X8452381Y-7978628D01*
X8452381Y-7978628D02*
X8452381Y-7931009D01*
X8452381Y-7931009D02*
X8500000Y-7835771D01*
X8500000Y-7835771D02*
X8595238Y-7788152D01*
X8595238Y-7788152D02*
X8738095Y-7788152D01*
X8738095Y-7788152D02*
X8833333Y-7835771D01*
M02*
