%TF.GenerationSoftware,KiCad,Pcbnew,10.0.5*%
%TF.CreationDate,NORMALIZED*%
%TF.ProjectId,board,626f6172-642e-46b6-9963-61645f706362,rev?*%
%TF.SameCoordinates,Original*%
%TF.FileFunction,Legend,Top*%
%TF.FilePolarity,Positive*%
%FSLAX46Y46*%
G04 Gerber Fmt 4.6, Leading zero omitted, Abs format (unit mm)*
G04 Created by KiCad NORMALIZED*
%MOMM*%
%LPD*%
G01*
G04 APERTURE LIST*
%ADD10C,0.150000*%
G04 APERTURE END LIST*
D10*
X9285714Y-8169104D02*
X9761904Y-8169104D01*
X9190476Y-8454819D02*
X9523809Y-7454819D01*
X9523809Y-7454819D02*
X9857142Y-8454819D01*
X10714285Y-8454819D02*
X10142857Y-8454819D01*
X10428571Y-8454819D02*
X10428571Y-7454819D01*
X10428571Y-7454819D02*
X10333333Y-7597676D01*
X10333333Y-7597676D02*
X10238095Y-7692914D01*
X10238095Y-7692914D02*
X10142857Y-7740533D01*
X19285714Y-8169104D02*
X19761904Y-8169104D01*
X19190476Y-8454819D02*
X19523809Y-7454819D01*
X19523809Y-7454819D02*
X19857142Y-8454819D01*
X20142857Y-7550057D02*
X20190476Y-7502438D01*
X20190476Y-7502438D02*
X20285714Y-7454819D01*
X20285714Y-7454819D02*
X20523809Y-7454819D01*
X20523809Y-7454819D02*
X20619047Y-7502438D01*
X20619047Y-7502438D02*
X20666666Y-7550057D01*
X20666666Y-7550057D02*
X20714285Y-7645295D01*
X20714285Y-7645295D02*
X20714285Y-7740533D01*
X20714285Y-7740533D02*
X20666666Y-7883390D01*
X20666666Y-7883390D02*
X20095238Y-8454819D01*
X20095238Y-8454819D02*
X20714285Y-8454819D01*
X9595238Y-17931009D02*
X9738095Y-17978628D01*
X9738095Y-17978628D02*
X9785714Y-18026247D01*
X9785714Y-18026247D02*
X9833333Y-18121485D01*
X9833333Y-18121485D02*
X9833333Y-18264342D01*
X9833333Y-18264342D02*
X9785714Y-18359580D01*
X9785714Y-18359580D02*
X9738095Y-18407200D01*
X9738095Y-18407200D02*
X9642857Y-18454819D01*
X9642857Y-18454819D02*
X9261905Y-18454819D01*
X9261905Y-18454819D02*
X9261905Y-17454819D01*
X9261905Y-17454819D02*
X9595238Y-17454819D01*
X9595238Y-17454819D02*
X9690476Y-17502438D01*
X9690476Y-17502438D02*
X9738095Y-17550057D01*
X9738095Y-17550057D02*
X9785714Y-17645295D01*
X9785714Y-17645295D02*
X9785714Y-17740533D01*
X9785714Y-17740533D02*
X9738095Y-17835771D01*
X9738095Y-17835771D02*
X9690476Y-17883390D01*
X9690476Y-17883390D02*
X9595238Y-17931009D01*
X9595238Y-17931009D02*
X9261905Y-17931009D01*
X10785714Y-18454819D02*
X10214286Y-18454819D01*
X10500000Y-18454819D02*
X10500000Y-17454819D01*
X10500000Y-17454819D02*
X10404762Y-17597676D01*
X10404762Y-17597676D02*
X10309524Y-17692914D01*
X10309524Y-17692914D02*
X10214286Y-17740533D01*
X19595238Y-17931009D02*
X19738095Y-17978628D01*
X19738095Y-17978628D02*
X19785714Y-18026247D01*
X19785714Y-18026247D02*
X19833333Y-18121485D01*
X19833333Y-18121485D02*
X19833333Y-18264342D01*
X19833333Y-18264342D02*
X19785714Y-18359580D01*
X19785714Y-18359580D02*
X19738095Y-18407200D01*
X19738095Y-18407200D02*
X19642857Y-18454819D01*
X19642857Y-18454819D02*
X19261905Y-18454819D01*
X19261905Y-18454819D02*
X19261905Y-17454819D01*
X19261905Y-17454819D02*
X19595238Y-17454819D01*
X19595238Y-17454819D02*
X19690476Y-17502438D01*
X19690476Y-17502438D02*
X19738095Y-17550057D01*
X19738095Y-17550057D02*
X19785714Y-17645295D01*
X19785714Y-17645295D02*
X19785714Y-17740533D01*
X19785714Y-17740533D02*
X19738095Y-17835771D01*
X19738095Y-17835771D02*
X19690476Y-17883390D01*
X19690476Y-17883390D02*
X19595238Y-17931009D01*
X19595238Y-17931009D02*
X19261905Y-17931009D01*
X20214286Y-17550057D02*
X20261905Y-17502438D01*
X20261905Y-17502438D02*
X20357143Y-17454819D01*
X20357143Y-17454819D02*
X20595238Y-17454819D01*
X20595238Y-17454819D02*
X20690476Y-17502438D01*
X20690476Y-17502438D02*
X20738095Y-17550057D01*
X20738095Y-17550057D02*
X20785714Y-17645295D01*
X20785714Y-17645295D02*
X20785714Y-17740533D01*
X20785714Y-17740533D02*
X20738095Y-17883390D01*
X20738095Y-17883390D02*
X20166667Y-18454819D01*
X20166667Y-18454819D02*
X20785714Y-18454819D01*
M02*
