%TF.GenerationSoftware,KiCad,Pcbnew,10.0.5*%
%TF.CreationDate,NORMALIZED*%
%TF.ProjectId,board,626f6172-642e-46b6-9963-61645f706362,rev?*%
%TF.SameCoordinates,Original*%
%TF.FileFunction,AssemblyDrawing,Top*%
%FSLAX46Y46*%
G04 Gerber Fmt 4.6, Leading zero omitted, Abs format (unit mm)*
G04 Created by KiCad NORMALIZED*
%MOMM*%
%LPD*%
G01*
G04 APERTURE LIST*
%ADD10C,0.150000*%
G04 APERTURE END LIST*
D10*
X1309523Y-8359580D02*
X1261904Y-8407200D01*
X1261904Y-8407200D02*
X1119047Y-8454819D01*
X1119047Y-8454819D02*
X1023809Y-8454819D01*
X1023809Y-8454819D02*
X880952Y-8407200D01*
X880952Y-8407200D02*
X785714Y-8311961D01*
X785714Y-8311961D02*
X738095Y-8216723D01*
X738095Y-8216723D02*
X690476Y-8026247D01*
X690476Y-8026247D02*
X690476Y-7883390D01*
X690476Y-7883390D02*
X738095Y-7692914D01*
X738095Y-7692914D02*
X785714Y-7597676D01*
X785714Y-7597676D02*
X880952Y-7502438D01*
X880952Y-7502438D02*
X1023809Y-7454819D01*
X1023809Y-7454819D02*
X1119047Y-7454819D01*
X1119047Y-7454819D02*
X1261904Y-7502438D01*
X1261904Y-7502438D02*
X1309523Y-7550057D01*
X1738095Y-8454819D02*
X1738095Y-7454819D01*
X2166666Y-8454819D02*
X2166666Y-7931009D01*
X2166666Y-7931009D02*
X2119047Y-7835771D01*
X2119047Y-7835771D02*
X2023809Y-7788152D01*
X2023809Y-7788152D02*
X1880952Y-7788152D01*
X1880952Y-7788152D02*
X1785714Y-7835771D01*
X1785714Y-7835771D02*
X1738095Y-7883390D01*
X3071428Y-8454819D02*
X3071428Y-7931009D01*
X3071428Y-7931009D02*
X3023809Y-7835771D01*
X3023809Y-7835771D02*
X2928571Y-7788152D01*
X2928571Y-7788152D02*
X2738095Y-7788152D01*
X2738095Y-7788152D02*
X2642857Y-7835771D01*
X3071428Y-8407200D02*
X2976190Y-8454819D01*
X2976190Y-8454819D02*
X2738095Y-8454819D01*
X2738095Y-8454819D02*
X2642857Y-8407200D01*
X2642857Y-8407200D02*
X2595238Y-8311961D01*
X2595238Y-8311961D02*
X2595238Y-8216723D01*
X2595238Y-8216723D02*
X2642857Y-8121485D01*
X2642857Y-8121485D02*
X2738095Y-8073866D01*
X2738095Y-8073866D02*
X2976190Y-8073866D01*
X2976190Y-8073866D02*
X3071428Y-8026247D01*
X3547619Y-8454819D02*
X3547619Y-7788152D01*
X3547619Y-7883390D02*
X3595238Y-7835771D01*
X3595238Y-7835771D02*
X3690476Y-7788152D01*
X3690476Y-7788152D02*
X3833333Y-7788152D01*
X3833333Y-7788152D02*
X3928571Y-7835771D01*
X3928571Y-7835771D02*
X3976190Y-7931009D01*
X3976190Y-7931009D02*
X3976190Y-8454819D01*
X3976190Y-7931009D02*
X4023809Y-7835771D01*
X4023809Y-7835771D02*
X4119047Y-7788152D01*
X4119047Y-7788152D02*
X4261904Y-7788152D01*
X4261904Y-7788152D02*
X4357143Y-7835771D01*
X4357143Y-7835771D02*
X4404762Y-7931009D01*
X4404762Y-7931009D02*
X4404762Y-8454819D01*
X4738095Y-7788152D02*
X5119047Y-7788152D01*
X4880952Y-8454819D02*
X4880952Y-7597676D01*
X4880952Y-7597676D02*
X4928571Y-7502438D01*
X4928571Y-7502438D02*
X5023809Y-7454819D01*
X5023809Y-7454819D02*
X5119047Y-7454819D01*
X5833333Y-8407200D02*
X5738095Y-8454819D01*
X5738095Y-8454819D02*
X5547619Y-8454819D01*
X5547619Y-8454819D02*
X5452381Y-8407200D01*
X5452381Y-8407200D02*
X5404762Y-8311961D01*
X5404762Y-8311961D02*
X5404762Y-7931009D01*
X5404762Y-7931009D02*
X5452381Y-7835771D01*
X5452381Y-7835771D02*
X5547619Y-7788152D01*
X5547619Y-7788152D02*
X5738095Y-7788152D01*
X5738095Y-7788152D02*
X5833333Y-7835771D01*
X5833333Y-7835771D02*
X5880952Y-7931009D01*
X5880952Y-7931009D02*
X5880952Y-8026247D01*
X5880952Y-8026247D02*
X5404762Y-8121485D01*
X6309524Y-8454819D02*
X6309524Y-7788152D01*
X6309524Y-7978628D02*
X6357143Y-7883390D01*
X6357143Y-7883390D02*
X6404762Y-7835771D01*
X6404762Y-7835771D02*
X6500000Y-7788152D01*
X6500000Y-7788152D02*
X6595238Y-7788152D01*
X6928572Y-8454819D02*
X6928572Y-7454819D01*
X6928572Y-7454819D02*
X7309524Y-7454819D01*
X7309524Y-7454819D02*
X7404762Y-7502438D01*
X7404762Y-7502438D02*
X7452381Y-7550057D01*
X7452381Y-7550057D02*
X7500000Y-7645295D01*
X7500000Y-7645295D02*
X7500000Y-7788152D01*
X7500000Y-7788152D02*
X7452381Y-7883390D01*
X7452381Y-7883390D02*
X7404762Y-7931009D01*
X7404762Y-7931009D02*
X7309524Y-7978628D01*
X7309524Y-7978628D02*
X6928572Y-7978628D01*
X8357143Y-8454819D02*
X8357143Y-7931009D01*
X8357143Y-7931009D02*
X8309524Y-7835771D01*
X8309524Y-7835771D02*
X8214286Y-7788152D01*
X8214286Y-7788152D02*
X8023810Y-7788152D01*
X8023810Y-7788152D02*
X7928572Y-7835771D01*
X8357143Y-8407200D02*
X8261905Y-8454819D01*
X8261905Y-8454819D02*
X8023810Y-8454819D01*
X8023810Y-8454819D02*
X7928572Y-8407200D01*
X7928572Y-8407200D02*
X7880953Y-8311961D01*
X7880953Y-8311961D02*
X7880953Y-8216723D01*
X7880953Y-8216723D02*
X7928572Y-8121485D01*
X7928572Y-8121485D02*
X8023810Y-8073866D01*
X8023810Y-8073866D02*
X8261905Y-8073866D01*
X8261905Y-8073866D02*
X8357143Y-8026247D01*
X9261905Y-8454819D02*
X9261905Y-7454819D01*
X9261905Y-8407200D02*
X9166667Y-8454819D01*
X9166667Y-8454819D02*
X8976191Y-8454819D01*
X8976191Y-8454819D02*
X8880953Y-8407200D01*
X8880953Y-8407200D02*
X8833334Y-8359580D01*
X8833334Y-8359580D02*
X8785715Y-8264342D01*
X8785715Y-8264342D02*
X8785715Y-7978628D01*
X8785715Y-7978628D02*
X8833334Y-7883390D01*
X8833334Y-7883390D02*
X8880953Y-7835771D01*
X8880953Y-7835771D02*
X8976191Y-7788152D01*
X8976191Y-7788152D02*
X9166667Y-7788152D01*
X9166667Y-7788152D02*
X9261905Y-7835771D01*
M02*
